#N canvas 303 143 685 425 12;
#X floatatom 970 361 10 0 0 3 sample_rate - sample_rate, f 10;
#N canvas 77 391 1160 608 \$0-arpegiator 0;
#N canvas 792 327 450 300 \$0-mtArp 0;
#X obj 125 266 outlet;
#X obj 123 82 list split 1;
#X obj 125 42 route z;
#X obj 119 124 list fromsymbol;
#X obj 119 153 - 48;
#X floatatom 51 170 5 0 0 0 - - -, f 5;
#X obj 123 0 inlet;
#X floatatom 243 172 5 0 0 0 - - -, f 5;
#X obj 119 182 pack;
#X msg 119 211 \$2 \$1;
#X connect 1 0 3 0;
#X connect 1 1 7 0;
#X connect 2 1 1 0;
#X connect 3 0 4 0;
#X connect 4 0 5 0;
#X connect 4 0 8 0;
#X connect 6 0 2 0;
#X connect 7 0 8 1;
#X connect 8 0 9 0;
#X connect 9 0 0 0;
#X restore 58 117 pd \$0-mtArp;
#X obj 58 147 unpack;
#X obj 60 323 array set arpNotes;
#X obj 253 430 array get arpNotes;
#X msg 577 37 1;
#X obj 604 37 loadbang;
#X obj 259 521 + 60;
#X obj 187 36 array define -yrange 1 16 arpNotes 16;
#X obj 259 551 s toMidiOut2;
#X obj 253 393 spigot;
#X obj 59 55 r parsedOSC;
#X obj 365 369 tgl 34 0 empty empty empty 17 7 0 10 #fcfcfc #000000
#000000 0 1;
#X obj 282 162 route 1 2;
#X obj 282 191 tgl 15 0 empty empty empty 17 7 0 10 #fcfcfc #000000
#000000 0 1;
#X obj 309 195 tgl 15 0 empty empty empty 17 7 0 10 #fcfcfc #000000
#000000 0 1;
#N canvas 830 141 450 300 arp-dir 0;
#X obj 125 266 outlet;
#X obj 123 82 list split 1;
#X obj 125 42 route z;
#X obj 119 124 list fromsymbol;
#X obj 119 153 - 48;
#X floatatom 51 170 5 0 0 0 - - -, f 5;
#X obj 123 0 inlet;
#X obj 119 202 pack;
#X obj 271 129 list split 1;
#X floatatom 310 171 5 0 0 0 - - -, f 5;
#X connect 1 0 3 0;
#X connect 1 1 8 0;
#X connect 2 1 1 0;
#X connect 3 0 4 0;
#X connect 4 0 5 0;
#X connect 4 0 7 0;
#X connect 6 0 2 0;
#X connect 7 0 0 0;
#X connect 8 1 9 0;
#X connect 8 1 7 1;
#X restore 282 133 pd arp-dir;
#X floatatom 386 165 5 0 0 0 - - -, f 5;
#N canvas 830 137 450 300 octv-rpt 0;
#X obj 125 266 outlet;
#X obj 123 82 list split 1;
#X obj 125 42 route z;
#X obj 119 124 list fromsymbol;
#X floatatom 51 170 5 0 0 0 - - -, f 5;
#X obj 123 0 inlet;
#X obj 119 153 - 49;
#X connect 1 0 3 0;
#X connect 2 1 1 0;
#X connect 3 0 6 0;
#X connect 5 0 2 0;
#X connect 6 0 4 0;
#X connect 6 0 0 0;
#X restore 386 136 pd octv-rpt;
#X floatatom 573 224 5 0 0 0 - - -, f 5;
#N canvas 794 323 450 300 note-count 0;
#X obj 125 266 outlet;
#X obj 123 82 list split 1;
#X obj 125 42 route z;
#X obj 123 0 inlet;
#X obj 107 125 list fromsymbol;
#X obj 107 154 - 48;
#X floatatom 107 183 5 0 0 0 - - -, f 5;
#X connect 1 1 4 0;
#X connect 2 1 1 0;
#X connect 3 0 2 0;
#X connect 4 0 5 0;
#X connect 5 0 6 0;
#X connect 5 0 0 0;
#X restore 645 146 pd note-count;
#X floatatom 558 186 5 0 0 0 - - -, f 5;
#N canvas 102 260 450 325 arp-speed 0;
#X obj 125 266 outlet;
#X obj 123 82 list split 1;
#X obj 125 42 route z;
#X obj 123 0 inlet;
#X obj 244 116 list fromsymbol;
#X obj 244 145 - 48;
#X obj 49 126 list fromsymbol;
#X obj 49 155 - 48;
#X floatatom 13 229 5 0 0 0 - - -, f 5;
#X obj 244 174 - 1;
#X obj 244 203 * 5;
#X obj 139 200 +;
#X floatatom 327 196 5 0 0 0 - - -, f 5;
#X obj 244 232 t b f;
#X connect 1 0 6 0;
#X connect 1 1 4 0;
#X connect 2 1 1 0;
#X connect 3 0 2 0;
#X connect 4 0 5 0;
#X connect 5 0 9 0;
#X connect 6 0 7 0;
#X connect 7 0 8 0;
#X connect 7 0 11 0;
#X connect 9 0 10 0;
#X connect 10 0 12 0;
#X connect 10 0 13 0;
#X connect 11 0 0 0;
#X connect 13 0 11 0;
#X connect 13 1 11 1;
#X restore 767 148 pd arp-speed;
#N canvas 313 176 450 407 vol+gate 0;
#X obj 115 306 outlet;
#X obj 123 82 list split 1;
#X obj 125 42 route z;
#X obj 119 124 list fromsymbol;
#X obj 119 153 - 48;
#X floatatom 51 170 5 0 0 0 - - -, f 5;
#X obj 123 0 inlet;
#X floatatom 243 172 5 0 0 0 - - -, f 5;
#X obj 119 182 pack;
#X obj 289 277 outlet;
#X obj 119 211 route 1 2;
#X connect 1 0 3 0;
#X connect 1 1 7 0;
#X connect 2 1 1 0;
#X connect 3 0 4 0;
#X connect 4 0 5 0;
#X connect 4 0 8 0;
#X connect 6 0 2 0;
#X connect 7 0 8 1;
#X connect 8 0 10 0;
#X connect 10 0 0 0;
#X connect 10 1 9 0;
#X restore 883 146 pd vol+gate;
#X floatatom 577 56 1 0 0 0 LB1 - loadbang-1, f 1;
#X floatatom 314 411 1 0 0 0 - loadbang-1 -, f 1;
#X floatatom 883 175 5 0 0 0 - - -, f 5;
#X floatatom 938 180 5 0 0 0 - - -, f 5;
#X floatatom 301 474 5 0 0 2 keyOctave keyOctave -, f 5;
#X obj 301 501 * 12;
#X floatatom 773 290 5 0 0 0 - - -, f 5;
#X msg 899 270 18;
#X msg 973 269 32;
#X obj 746 230 sel 1 2 3 4 5 6 7 8 9 10;
#X obj 56 179 * 12;
#X obj 56 208 i;
#X obj 60 242 sel 1 3 6 8 10;
#X msg 60 264 0, f 1;
#X msg 77 264 2, f 1;
#X msg 93 264 4, f 1;
#X msg 113 264 5, f 1;
#X msg 134 264 7, f 1;
#X floatatom 60 292 5 0 0 0 - - -, f 5;
#X floatatom 797 335 9 0 0 2 metroSpeed metronomSpeed -, f 9;
#X obj 773 438 *;
#X obj 797 363 t b f;
#X floatatom 727 540 5 0 0 3 arp-pulse-time - arp-pulse-time, f 5
;
#X obj 808 479 *;
#X obj 819 451 t b f;
#X msg 1017 271 48;
#X obj 254 357 r arp_tick;
#X msg 863 270 192;
#X msg 827 269 96;
#X msg 791 269 48;
#X msg 759 269 24;
#X msg 723 269 12;
#X msg 929 269 40;
#X msg 1060 271 144;
#X obj 1030 156 loadbang;
#X msg 1030 185 0.8;
#X obj 386 218 r clock-steps;
#X floatatom 386 247 5 0 0 0 - - -, f 5;
#N canvas 436 64 638 651 \$0-clocktickmaage 0;
#X obj 64 -166 r clk_tick;
#X obj 96 264 + 1;
#X obj 64 264 f;
#X obj 64 342 %;
#X obj 141 298 sel;
#X msg 141 244 0, f 1;
#X obj 64 371 + 1;
#X obj 64 436 s arp_tick;
#X obj 42 156 sel 0 12;
#X floatatom 93 391 5 0 0 0 - - -, f 5;
#X floatatom 234 -157 3 0 0 2 clk_steps clock-steps -, f 3;
#X obj 256 248 inlet;
#X obj 287 86 mod 1;
#X floatatom 237 98 5 0 0 0 - - -, f 5;
#X msg 390 -12 4;
#X msg 203 -16 1;
#X obj 287 115 sel 0;
#X obj 164 263 - 1;
#X obj 285 -126 inlet;
#X obj 292 -44 sel 1 2 3 4 5 6 7 8 9 10;
#X msg 298 -12 1;
#X msg 343 -12 2;
#X floatatom 472 7 5 0 0 0 - - -, f 5;
#X msg 440 -12 8;
#X obj 54 83 spigot;
#X obj 121 87 tgl 15 0 empty empty empty 17 7 0 10 #fcfcfc #000000
#000000 0 1;
#X obj 190 178 spigot;
#X obj 171 119 tgl 15 0 empty empty empty 17 7 0 10 #fcfcfc #000000
#000000 0 1;
#X msg 242 -16 0;
#X obj 285 -98 t a b;
#X msg 179 -16 1;
#X msg 218 -16 0;
#X connect 0 0 24 0;
#X connect 1 0 2 1;
#X connect 2 0 1 0;
#X connect 2 0 3 0;
#X connect 2 0 4 0;
#X connect 3 0 6 0;
#X connect 4 0 5 0;
#X connect 5 0 2 1;
#X connect 6 0 7 0;
#X connect 6 0 9 0;
#X connect 8 0 2 0;
#X connect 8 1 2 0;
#X connect 10 0 12 0;
#X connect 11 0 17 0;
#X connect 11 0 3 1;
#X connect 12 0 13 0;
#X connect 12 0 16 0;
#X connect 14 0 22 0;
#X connect 15 0 25 0;
#X connect 16 0 26 0;
#X connect 17 0 4 1;
#X connect 18 0 29 0;
#X connect 19 0 15 0;
#X connect 19 0 28 0;
#X connect 19 1 20 0;
#X connect 19 2 21 0;
#X connect 19 3 14 0;
#X connect 19 4 23 0;
#X connect 20 0 22 0;
#X connect 21 0 22 0;
#X connect 22 0 12 1;
#X connect 23 0 22 0;
#X connect 24 0 8 0;
#X connect 25 0 24 1;
#X connect 26 0 2 0;
#X connect 27 0 26 1;
#X connect 28 0 27 0;
#X connect 29 0 19 0;
#X connect 29 1 30 0;
#X connect 29 1 31 0;
#X connect 30 0 27 0;
#X connect 31 0 25 0;
#X restore 553 249 pd \$0-clocktickmaage;
#X obj 808 508 - 20;
#X obj 59 90 route multifader6 arp_tgl arp-direction octave-repeat
multitoggle27 multitoggle60 multifader7, f 128;
#X connect 0 0 1 0;
#X connect 1 0 33 0;
#X connect 1 1 2 1;
#X connect 3 0 6 0;
#X connect 4 0 23 0;
#X connect 5 0 4 0;
#X connect 6 0 8 0;
#X connect 9 0 3 0;
#X connect 10 0 63 0;
#X connect 11 0 9 1;
#X connect 12 0 13 0;
#X connect 12 1 14 0;
#X connect 15 0 12 0;
#X connect 17 0 16 0;
#X connect 19 0 18 0;
#X connect 19 0 61 0;
#X connect 21 0 20 0;
#X connect 21 0 32 0;
#X connect 21 0 61 1;
#X connect 22 0 25 0;
#X connect 22 1 26 0;
#X connect 22 1 47 0;
#X connect 24 0 3 1;
#X connect 27 0 28 0;
#X connect 28 0 6 1;
#X connect 29 0 43 0;
#X connect 30 0 29 0;
#X connect 31 0 29 0;
#X connect 32 0 54 0;
#X connect 32 1 53 0;
#X connect 32 2 52 0;
#X connect 32 3 51 0;
#X connect 32 4 50 0;
#X connect 32 5 30 0;
#X connect 32 6 55 0;
#X connect 32 7 31 0;
#X connect 32 8 48 0;
#X connect 32 9 56 0;
#X connect 33 0 34 0;
#X connect 34 0 35 0;
#X connect 35 0 36 0;
#X connect 35 1 37 0;
#X connect 35 2 38 0;
#X connect 35 3 39 0;
#X connect 35 4 40 0;
#X connect 35 5 41 0;
#X connect 36 0 41 0;
#X connect 37 0 41 0;
#X connect 38 0 41 0;
#X connect 39 0 41 0;
#X connect 40 0 41 0;
#X connect 41 0 2 0;
#X connect 42 0 44 0;
#X connect 43 0 46 0;
#X connect 44 0 43 0;
#X connect 44 1 43 1;
#X connect 46 0 62 0;
#X connect 47 0 46 0;
#X connect 47 1 46 1;
#X connect 48 0 29 0;
#X connect 49 0 9 0;
#X connect 50 0 29 0;
#X connect 51 0 29 0;
#X connect 52 0 29 0;
#X connect 53 0 29 0;
#X connect 54 0 29 0;
#X connect 55 0 29 0;
#X connect 56 0 29 0;
#X connect 57 0 50 0;
#X connect 57 0 58 0;
#X connect 58 0 47 0;
#X connect 59 0 60 0;
#X connect 62 0 45 0;
#X connect 63 0 0 0;
#X connect 63 1 11 0;
#X connect 63 2 15 0;
#X connect 63 3 17 0;
#X connect 63 4 19 0;
#X connect 63 5 21 0;
#X connect 63 6 22 0;
#X restore 198 95 pd \$0-arpegiator;
#N canvas 354 209 450 333 \$0-autosave 0;
#X msg 27 170 menusave;
#X obj 27 105 tgl 15 0 empty empty empty 17 7 0 10 #fcfcfc #000000
#000000 1 1;
#X obj 27 130 metro 1000;
#X msg 114 84 5;
#X obj 114 107 * 60000;
#X floatatom 114 129 8 0 0 0 - - -, f 8;
#X obj 27 7 loadbang;
#X obj 27 76 t b b;
#X obj 27 36 del 6000;
#X obj 27 199 s pd-arpeggiator.pd;
#X connect 0 0 9 0;
#X connect 1 0 2 0;
#X connect 2 0 0 0;
#X connect 3 0 4 0;
#X connect 4 0 5 0;
#X connect 4 0 2 1;
#X connect 6 0 8 0;
#X connect 7 0 1 0;
#X connect 7 1 3 0;
#X connect 8 0 7 0;
#X restore 166 27 pd \$0-autosave;
#X coords 0 -1 1 1 95 110 1 16 11;
