#N canvas 214 64 894 583 12;
#X obj 89 10 cnv 15 82 40 \$0-dum \$0-ddd empty 2 18 0 18 #0a6100 #ffffff
0;
#X obj 63 286 + 1;
#X obj 263 246 + 1;
#X obj 233 372 + 1;
#X obj 233 488 outlet;
#X obj 17 11 tgl 20 0 dumm \$0-pd_dsp_tgl OFF 1 8 0 10 #000000 #000000
#ffffff 0 1;
#X text 18 31 DSP;
#X obj 33 245 bng 15 250 50 0 empty \$0-clocktick tick -4 -9 0 10 #fcfcfc
#000000 #31b007;
#X floatatom 51 266 1 0 0 1 - #0-zeroClock -, f 1;
#X floatatom 251 223 1 0 0 1 - #0-zeroClock2 -, f 1;
#X obj 33 286 f;
#X obj 233 246 f;
#X obj 233 342 % 16;
#X obj 332 362 sel 15;
#X obj 33 415 % 6;
#X obj 33 435 sel 0;
#X obj 75 435 sel 5;
#X obj 75 457 bng 15 250 50 0 \$0-zeroClockBNG empty 0b 17 7 0 10 #fcfcfc
#000000 #0bf909;
#X obj 332 396 bng 15 250 50 0 \$0-zeroClock2BNG empty 0b2 16 10 0
10 #fcfcfc #000000 #0bf909;
#X floatatom 420 441 3 0 0 3 clk_steps - clock-steps, f 3;
#X floatatom 89 396 3 0 0 1 clk_div #0-clockDivide -, f 3;
#X obj 89 415 - 1;
#X floatatom 353 323 3 0 0 1 STEPS #0-step_count -, f 3;
#X obj 353 342 - 1;
#X floatatom 134 522 3 0 0 3 clk_tick - clk_tick, f 3;
#X obj 44 10 tgl 40 0 \$0-dum \$0-midiclockTGL \ OFF 2 18 0 18 #000000
#000000 #fcfcfc 0 1;
#X obj 691 343 bng 15 250 50 0 \$0-clocktick empty tick -7 20 0 10
#fcfcfc #000000 #31b007;
#X obj 691 289 bng 46 250 50 0 empty empty empty 17 7 0 10 #fcfcfc
#000000 #000000;
#X text 115 50 BPM;
#X obj 90 11 cnv 15 80 38 \$0-dum \$0-BPMgui \ 185.025 2 18 0 18 #000000
#ffffff 0;
#X obj 388 11 cnv 15 40 40 \$0-dum \$0-ddd empty 2 18 0 18 #0a6100
#ffffff 0;
#X obj 389 12 cnv 15 38 38 \$0-dum \$0-step_count \ 16 8 18 0 18 #000000
#ffffff 0;
#X obj 456 11 cnv 15 40 40 \$0-dum \$0-ddd empty 2 18 0 18 #0a6100
#ffffff 0;
#X obj 457 12 cnv 15 38 38 \$0-dum \$0-pulse_note 1/16 2 18 0 14 #000000
#ffffff 0;
#N canvas 96 197 975 523 \$0-osc 0;
#X obj 6 20 r parsedOSC;
#X floatatom 291 256 5 0 0 3 clk_div - #0-clockDivide, f 5;
#X floatatom 519 308 5 0 0 3 step_count - #0-step_count, f 5;
#N canvas 71 346 638 676 \$0-bpm_fine 0;
#X obj 11 -114 inlet;
#X obj 83 -32 route z;
#X obj 155 -32 route z;
#X obj 227 -32 route z;
#X obj 299 -32 route z;
#X obj 83 -7 tgl 15 0 empty empty empty 17 7 0 10 #fcfcfc #000000 #000000
0 1;
#X obj 155 -7 tgl 15 0 empty empty empty 17 7 0 10 #fcfcfc #000000
#000000 0 1;
#X obj 227 -7 tgl 15 0 empty empty empty 17 7 0 10 #fcfcfc #000000
#000000 0 1;
#X obj 299 -7 tgl 15 0 empty empty empty 17 7 0 10 #fcfcfc #000000
#000000 0 1;
#X obj 85 92 + 0.05;
#X obj 155 13 sel 1;
#X obj 83 13 sel 1;
#X obj 299 13 sel 1;
#X obj 227 13 sel 1;
#X obj 11 203 outlet;
#X obj 19 8 metro 50;
#X obj 221 231 s udpOUT2;
#X obj 11 92 route z;
#X floatatom 157 200 5 0 0 3 clockBPM - #0-clockBPM, f 5;
#X obj 11 144 clip 20 320;
#X obj 11 -57 route bpm_fader bpm-- bpm- bpm+ bpm++, f 52;
#X obj 19 37 v \$0-bpm;
#X obj 74 201 v \$0-bpm;
#X msg 221 202 \$1 clock bpm_fader;
#X obj 495 156 v \$0++;
#X obj 547 155 v \$0--;
#X obj 547 134 * -1;
#X floatatom 495 105 5 0 0 0 - - -, f 5;
#X obj 450 135 * -1;
#X floatatom 398 106 5 0 0 0 - - -, f 5;
#X obj 450 156 v \$0-;
#X obj 398 157 v \$0+;
#X msg 495 80 5;
#X msg 398 80 0.005;
#X obj 418 39 loadbang;
#X obj 299 36 v \$0++;
#X obj 227 36 v \$0+;
#X obj 155 36 v \$0-;
#X obj 83 36 v \$0--;
#X obj 493 -19 inlet;
#X text 450 -100 from npad in;
#X floatatom 106 261 5 0 0 2 clockBPM #0-clockBPM -, f 5;
#X floatatom 493 10 5 0 0 0 - - -, f 5;
#X connect 0 0 20 0;
#X connect 1 1 5 0;
#X connect 2 1 6 0;
#X connect 3 1 7 0;
#X connect 4 1 8 0;
#X connect 5 0 11 0;
#X connect 5 0 15 0;
#X connect 6 0 10 0;
#X connect 6 0 15 0;
#X connect 7 0 13 0;
#X connect 7 0 15 0;
#X connect 8 0 12 0;
#X connect 8 0 15 0;
#X connect 9 0 19 0;
#X connect 10 0 37 0;
#X connect 11 0 38 0;
#X connect 12 0 35 0;
#X connect 13 0 36 0;
#X connect 15 0 21 0;
#X connect 17 1 19 0;
#X connect 19 0 14 0;
#X connect 19 0 22 0;
#X connect 19 0 18 0;
#X connect 19 0 23 0;
#X connect 20 0 17 0;
#X connect 20 1 1 0;
#X connect 20 2 2 0;
#X connect 20 3 3 0;
#X connect 20 4 4 0;
#X connect 21 0 9 0;
#X connect 23 0 16 0;
#X connect 26 0 25 0;
#X connect 27 0 24 0;
#X connect 27 0 26 0;
#X connect 28 0 30 0;
#X connect 29 0 28 0;
#X connect 29 0 31 0;
#X connect 32 0 27 0;
#X connect 33 0 29 0;
#X connect 34 0 33 0;
#X connect 34 0 32 0;
#X connect 35 0 9 1;
#X connect 36 0 9 1;
#X connect 37 0 9 1;
#X connect 38 0 9 1;
#X connect 39 0 19 0;
#X connect 39 0 42 0;
#X connect 41 0 22 0;
#X restore 260 55 pd \$0-bpm_fine;
#X floatatom 260 138 5 0 0 3 BPM - clockBPM, f 5;
#N canvas 324 286 450 434 \$0-dsp 0;
#X msg 75 105 \; pd dsp \$1;
#X msg 29 174 ON;
#X msg 58 174 OFF;
#X obj 29 204 symbol;
#X msg 29 226 label \$1;
#X obj 29 152 sel 1 0, f 9;
#X obj 29 74 t f f f;
#X obj 29 43 route z;
#X obj 29 14 inlet;
#X obj 29 255 outlet;
#X connect 1 0 3 0;
#X connect 2 0 3 0;
#X connect 3 0 4 0;
#X connect 4 0 9 0;
#X connect 5 0 1 0;
#X connect 5 1 2 0;
#X connect 6 0 5 0;
#X connect 6 1 9 0;
#X connect 6 2 0 0;
#X connect 7 1 6 0;
#X connect 8 0 7 0;
#X restore 144 85 pd \$0-dsp;
#N canvas 811 297 450 375 \$0-clock 0;
#X msg 22 -172 ON;
#X msg 53 -172 OFF;
#X obj 22 -197 sel 1 0, f 8;
#X obj 23 -220 route z;
#X symbolatom 81 -140 10 0 0 3 - #0-whitespace -, f 10;
#X obj 58 -107 pack 0 s s;
#X obj 22 -143 t b s;
#X msg 58 -83 label \$3\$2;
#X msg 34 -61 label_pos 2 18;
#X msg 22 -37 label_pos 8 18;
#X obj 23 -248 inlet;
#X obj 22 0 outlet;
#X connect 0 0 6 0;
#X connect 1 0 6 0;
#X connect 2 0 0 0;
#X connect 2 0 9 0;
#X connect 2 1 1 0;
#X connect 2 1 8 0;
#X connect 3 1 2 0;
#X connect 3 1 11 0;
#X connect 4 0 5 2;
#X connect 5 0 7 0;
#X connect 6 0 5 0;
#X connect 6 1 5 1;
#X connect 7 0 11 0;
#X connect 8 0 11 0;
#X connect 9 0 11 0;
#X connect 10 0 3 0;
#X restore 6 85 pd \$0-clock;
#X obj 6 124 s \$0-midiclockTGL;
#X obj 144 124 s \$0-pd_dsp_tgl;
#N canvas 455 147 638 496 \$0-numpad 0;
#X obj 11 -114 inlet;
#X floatatom 19 -30 5 0 0 0 - - -, f 5;
#X obj 11 211 s udpOUT2;
#X msg 11 188 \$1 clock numpad_value;
#N canvas 623 124 638 584 npDec 0;
#X obj 34 314 outlet;
#X obj 34 13 inlet;
#X obj 263 189 pow;
#X obj 263 140 t b f;
#X obj 293 115 + 1;
#X obj 263 115 f;
#X floatatom 281 96 1 0 0 1 - #0-zeroDecimal -, f 1;
#X msg 263 161 10, f 2;
#X obj 302 37 tgl 15 0 empty \$0-npad.dec empty 17 7 0 10 #fcfcfc #000000
#000000 0 1;
#X obj 263 67 spigot;
#X floatatom 263 292 5 0 0 3 decimal - #0-decimal-tgl, f 5;
#X obj 263 263 /;
#X obj 263 218 t b f;
#X msg 263 239 1, f 1;
#X floatatom 295 240 8 0 0 0 - - -, f 8;
#X obj 86 94 v npad;
#X obj 86 140 * 10;
#X floatatom 124 160 7 0 0 0 - - -, f 7;
#X obj 34 180 +;
#X floatatom 124 200 7 0 0 0 - - -, f 7;
#X obj 34 282 v npad;
#X obj 34 255 t b f;
#X floatatom 52 226 1 0 0 1 - #0-zeroDecimal -, f 1;
#X obj 34 140 * 1;
#X obj 34 40 t f b b;
#X msg 381 242 1, f 1;
#X msg 404 242 10, f 2;
#X obj 381 192 sel 1 0;
#X floatatom 381 293 2 0 0 3 npad_x10 - #0-NPxTEN, f 2;
#X floatatom 52 120 2 0 0 0 - #0-decimal-tgl -, f 2;
#X floatatom 111 120 2 0 0 0 - #0-NPxTEN -, f 2;
#X connect 1 0 24 0;
#X connect 2 0 12 0;
#X connect 3 0 7 0;
#X connect 3 1 2 1;
#X connect 4 0 5 1;
#X connect 5 0 4 0;
#X connect 5 0 3 0;
#X connect 6 0 5 0;
#X connect 7 0 2 0;
#X connect 8 0 9 1;
#X connect 8 0 27 0;
#X connect 9 0 5 0;
#X connect 11 0 10 0;
#X connect 12 0 13 0;
#X connect 12 1 14 0;
#X connect 13 0 11 0;
#X connect 14 0 11 1;
#X connect 15 0 16 0;
#X connect 16 0 17 0;
#X connect 16 0 18 1;
#X connect 18 0 19 0;
#X connect 18 0 21 0;
#X connect 20 0 0 0;
#X connect 21 0 20 0;
#X connect 21 1 20 0;
#X connect 22 0 21 0;
#X connect 23 0 18 0;
#X connect 24 0 23 0;
#X connect 24 1 15 0;
#X connect 24 2 9 0;
#X connect 25 0 28 0;
#X connect 26 0 28 0;
#X connect 27 0 25 0;
#X connect 27 1 26 0;
#X connect 29 0 23 1;
#X connect 30 0 16 1;
#X restore 11 8 pd npDec;
#X floatatom 16 28 12 0 0 3 npad# - #0-npad_nmb, f 12;
#X obj 185 -50 route z;
#X obj 185 -27 sel 1 0;
#X obj 185 -5 bng 15 250 50 0 empty empty empty 17 7 0 10 #fcfcfc #000000
#000000;
#N canvas 60 44 680 651 \$0-numpad_input 0;
#X obj 65 2 inlet;
#X obj 63 616 outlet;
#X obj 251 94 list split 1;
#X obj 65 57 list split 1;
#X obj 135 134 list fromsymbol;
#X obj 172 257 unpack;
#X obj 172 281 - 48;
#X obj 211 305 - 48;
#X obj 172 333 +;
#X floatatom 172 364 5 0 0 0 - - -, f 5;
#X obj 167 183 list length;
#X obj 135 208 list prepend;
#X obj 135 158 t a a;
#X obj 135 231 route 1 2, f 11;
#X obj 172 305 * 10;
#X obj 135 305 - 48;
#X obj 65 29 route z;
#X obj 65 94 list fromsymbol;
#X obj 65 123 - 48;
#X floatatom 16 143 5 0 0 0 - - -, f 5;
#X obj 65 153 * 10;
#X obj 65 402 +;
#X floatatom 12 422 5 0 0 0 - - -, f 5;
#X floatatom 291 364 5 0 0 0 - - -, f 5;
#X obj 65 425 pack;
#X msg 65 449 \$2 \$1;
#X obj 65 478 route 1;
#X obj 65 526 sel 11 12 13 21 22 23 31 32 33 41 42 43;
#X msg 87 546 0, f 1;
#X msg 132 546 1, f 1;
#X msg 155 546 2, f 1;
#X msg 177 546 3, f 1;
#X msg 222 546 5, f 1;
#X msg 200 546 4, f 1;
#X msg 245 546 6, f 1;
#X msg 267 546 7, f 1;
#X msg 290 546 8, f 1;
#X msg 312 546 9, f 1;
#X floatatom 147 575 5 0 0 0 - - -, f 5;
#X msg 110 546 0, f 1;
#X floatatom 110 574 1 0 0 1 - - #0-zeroDecimal, f 1;
#X obj 65 575 tgl 15 0 \$0-npad.dec empty empty 17 7 0 10 #fcfcfc #000000
#000000 0 1;
#X msg 65 546 1, f 2;
#X msg 145 492 13;
#X obj 145 472 bng 15 250 50 0 empty \$0-npad_clear np_clear 17 7 0
10 #fcfcfc #000000 #149c00;
#X connect 0 0 16 0;
#X connect 2 0 4 0;
#X connect 2 1 23 0;
#X connect 3 0 17 0;
#X connect 3 1 2 0;
#X connect 4 0 12 0;
#X connect 5 0 6 0;
#X connect 5 1 7 0;
#X connect 6 0 14 0;
#X connect 7 0 8 1;
#X connect 8 0 9 0;
#X connect 9 0 21 1;
#X connect 10 0 11 1;
#X connect 11 0 13 0;
#X connect 12 0 11 0;
#X connect 12 1 10 0;
#X connect 13 0 15 0;
#X connect 13 1 5 0;
#X connect 14 0 8 0;
#X connect 15 0 9 0;
#X connect 16 1 3 0;
#X connect 17 0 18 0;
#X connect 18 0 19 0;
#X connect 18 0 20 0;
#X connect 20 0 21 0;
#X connect 21 0 22 0;
#X connect 21 0 24 0;
#X connect 23 0 24 1;
#X connect 24 0 25 0;
#X connect 25 0 26 0;
#X connect 26 0 27 0;
#X connect 27 0 42 0;
#X connect 27 1 28 0;
#X connect 27 2 39 0;
#X connect 27 3 29 0;
#X connect 27 4 30 0;
#X connect 27 5 31 0;
#X connect 27 6 33 0;
#X connect 27 7 32 0;
#X connect 27 8 34 0;
#X connect 27 9 35 0;
#X connect 27 10 36 0;
#X connect 27 11 37 0;
#X connect 28 0 38 0;
#X connect 29 0 38 0;
#X connect 30 0 38 0;
#X connect 31 0 38 0;
#X connect 32 0 38 0;
#X connect 33 0 38 0;
#X connect 34 0 38 0;
#X connect 35 0 38 0;
#X connect 36 0 38 0;
#X connect 37 0 38 0;
#X connect 38 0 1 0;
#X connect 39 0 40 0;
#X connect 39 0 41 0;
#X connect 42 0 41 0;
#X connect 43 0 27 0;
#X connect 44 0 43 0;
#X restore 11 -50 pd \$0-numpad_input;
#X floatatom 316 -8 5 0 0 0 - - -, f 5;
#N canvas 120 114 534 552 \$0-clk_param 0;
#X obj 31 1 inlet;
#X obj 31 381 outlet;
#X obj 31 56 list split 1;
#X obj 31 29 route z;
#X obj 31 87 list fromsymbol;
#X obj 31 116 - 48;
#X obj 166 84 list split 1;
#X obj 142 131 list fromsymbol;
#X obj 142 189 * 7;
#X obj 142 160 - 49;
#X obj 31 236 +;
#X floatatom 39 256 5 0 0 0 - - -, f 5;
#X obj 31 145 - 8;
#X obj 31 174 * -1;
#X obj 31 325 spigot;
#X obj 208 259 tgl 15 0 empty empty empty 17 7 0 10 #fcfcfc #000000
#000000 0 1;
#X connect 0 0 3 0;
#X connect 2 0 4 0;
#X connect 2 1 6 0;
#X connect 3 1 2 0;
#X connect 4 0 5 0;
#X connect 5 0 12 0;
#X connect 6 0 7 0;
#X connect 6 1 15 0;
#X connect 7 0 9 0;
#X connect 8 0 10 1;
#X connect 9 0 8 0;
#X connect 10 0 11 0;
#X connect 10 0 14 0;
#X connect 12 0 13 0;
#X connect 13 0 10 0;
#X connect 14 0 1 0;
#X connect 15 0 14 1;
#X restore 316 -48 pd \$0-clk_param;
#X obj 185 13 f, f 1;
#X obj 217 75 pack;
#X floatatom 242 55 14 0 0 2 npad# #0-npad_nmb -, f 14;
#X obj 185 42 t b f;
#X obj 144 62 bng 15 250 50 0 \$0-npad_clear empty np_clear 17 7 0
10 #fcfcfc #000000 #149c00;
#N canvas 96 396 696 527 \$0-osc-gui 0;
#X msg 348 172 \$1 clock label_TC_time;
#X msg 285 265 \$1 clock label_TC_delay;
#X msg 193 318 \$1 clock label_TC_target;
#X msg 90 361 \$1 clock label_TS_beat_value;
#X obj 348 147 tosym;
#X obj 285 237 tosym;
#X obj 90 317 tosym;
#X obj 28 317 tosym;
#X floatatom 73 122 5 0 0 3 beats/bar - #0-beats/bar, f 5;
#X floatatom 119 187 5 0 0 3 beat_v - #0-beat-val, f 5;
#X floatatom 34 121 5 0 0 3 BPM - #0-clockBPM, f 5;
#X obj 524 176 tosym;
#X symbolatom 523 207 10 0 0 0 - - -, f 10;
#X floatatom 503 119 5 0 0 3 step_count - #0-step_count, f 5;
#X obj 33 24 inlet;
#X obj 194 17 unpack;
#X floatatom 194 46 5 0 0 0 - - -, f 5;
#X floatatom 252 45 5 0 0 0 - - -, f 5;
#X obj 51 432 outlet;
#X msg 28 388 \$1 clock label_TS_beats-per-bar;
#X msg 588 51 16;
#X obj 36 90 route 2 3 4 5 6 7 9 10, f 54;
#X obj 193 293 tosym;
#X obj 161 269 sel 0;
#X msg 161 292 -;
#X obj 160 316 t s;
#X obj 257 210 sel 0;
#X msg 257 233 -;
#X obj 256 257 t s;
#X obj 323 126 sel 0;
#X msg 323 149 -;
#X obj 322 173 t s;
#X connect 0 0 18 0;
#X connect 1 0 18 0;
#X connect 2 0 18 0;
#X connect 3 0 18 0;
#X connect 4 0 0 0;
#X connect 5 0 1 0;
#X connect 6 0 3 0;
#X connect 7 0 19 0;
#X connect 11 0 12 0;
#X connect 14 0 15 0;
#X connect 14 0 21 0;
#X connect 15 0 16 0;
#X connect 15 1 17 0;
#X connect 19 0 18 0;
#X connect 20 0 13 0;
#X connect 21 0 10 0;
#X connect 21 1 7 0;
#X connect 21 1 8 0;
#X connect 21 2 6 0;
#X connect 21 2 9 0;
#X connect 21 3 23 0;
#X connect 21 4 26 0;
#X connect 21 5 29 0;
#X connect 21 7 13 0;
#X connect 22 0 2 0;
#X connect 23 0 24 0;
#X connect 23 1 22 0;
#X connect 24 0 25 0;
#X connect 25 0 2 0;
#X connect 26 0 27 0;
#X connect 26 1 5 0;
#X connect 27 0 28 0;
#X connect 28 0 1 0;
#X connect 29 0 30 0;
#X connect 29 1 4 0;
#X connect 30 0 31 0;
#X connect 31 0 0 0;
#X restore 216 130 pd \$0-osc-gui;
#X obj 11 -87 route numpad label_enter multipush28;
#X obj 316 20 bng 15 250 50 0 empty empty empty 17 7 0 10 #fcfcfc #000000
#000000;
#X connect 0 0 18 0;
#X connect 3 0 2 0;
#X connect 4 0 5 0;
#X connect 4 0 3 0;
#X connect 6 0 7 0;
#X connect 7 0 8 0;
#X connect 8 0 12 0;
#X connect 9 0 1 0;
#X connect 9 0 4 0;
#X connect 10 0 19 0;
#X connect 11 0 10 0;
#X connect 11 0 12 0;
#X connect 12 0 15 0;
#X connect 13 0 17 0;
#X connect 14 0 13 1;
#X connect 15 0 16 0;
#X connect 15 1 13 0;
#X connect 17 0 2 0;
#X connect 18 0 9 0;
#X connect 18 1 6 0;
#X connect 18 2 11 0;
#X restore 374 55 pd \$0-numpad;
#X obj 6 55 route clk_tgl dsp_tgl toggleONOFF, f 34;
#X msg 59 236 48;
#X msg 14 236 96;
#X msg 106 236 24;
#X msg 156 236 12;
#X msg 203 236 6;
#X msg 246 236 3;
#X msg 563 234 1;
#X msg 595 234 2;
#X msg 627 234 4;
#X msg 663 234 8;
#X msg 697 234 16;
#X msg 731 234 32;
#X text 14 256 1/;
#X text 203 256 1/;
#X text 14 256 1/4;
#X text 59 256 1/8;
#X text 106 256 1/16;
#X text 156 256 1/32;
#X text 246 256 1/128;
#X text 203 256 1/64;
#X floatatom 651 42 5 0 0 0 BVAL #0-beat-val -, f 5;
#X floatatom 524 48 5 0 0 0 BPB #0-beats/bar -, f 5;
#X obj 651 130 t b f;
#X obj 524 170 *;
#X floatatom 545 194 5 0 0 0 - - -, f 5;
#X msg 637 188 12;
#X obj 14 216 route 4 8 16 32 64 128;
#X floatatom 32 422 5 0 0 3 clk_div - #0-clockDivide, f 5;
#X floatatom 87 422 5 0 0 3 step_count - #0-step_count, f 5;
#X obj 42 327 loadbang;
#X obj 42 354 del 100;
#X msg 77 388 16;
#X msg 42 388 24;
#X obj 651 70 sel 4 8;
#X msg 651 99 4, f 1;
#X msg 676 99 2, f 1;
#X floatatom 160 417 5 0 0 3 beats/bar - #0-beats/bar, f 5;
#X floatatom 214 417 5 0 0 3 beat_v - #0-beat-val, f 5;
#X msg 175 388 4;
#X floatatom 517 370 5 0 0 2 step_count #0-step_count step_count,
f 5;
#X msg 333 134 120;
#X obj 333 105 loadbang;
#X connect 0 0 10 0;
#X connect 0 0 9 0;
#X connect 0 0 3 0;
#X connect 3 0 4 0;
#X connect 5 0 8 0;
#X connect 6 0 7 0;
#X connect 10 0 6 0;
#X connect 10 1 5 0;
#X connect 10 2 5 0;
#X connect 11 0 1 0;
#X connect 12 0 1 0;
#X connect 13 0 1 0;
#X connect 14 0 1 0;
#X connect 15 0 1 0;
#X connect 16 0 1 0;
#X connect 17 0 2 0;
#X connect 18 0 2 0;
#X connect 19 0 2 0;
#X connect 20 0 2 0;
#X connect 21 0 2 0;
#X connect 22 0 2 0;
#X connect 31 0 44 0;
#X connect 32 0 34 0;
#X connect 33 0 34 0;
#X connect 33 1 34 1;
#X connect 34 0 35 0;
#X connect 34 0 2 0;
#X connect 36 0 2 0;
#X connect 37 0 12 0;
#X connect 37 1 11 0;
#X connect 37 2 13 0;
#X connect 37 3 14 0;
#X connect 37 4 15 0;
#X connect 37 5 16 0;
#X connect 40 0 41 0;
#X connect 41 0 42 0;
#X connect 41 0 43 0;
#X connect 41 0 49 0;
#X connect 42 0 39 0;
#X connect 43 0 38 0;
#X connect 44 0 45 0;
#X connect 44 1 46 0;
#X connect 45 0 33 0;
#X connect 46 0 33 0;
#X connect 49 0 47 0;
#X connect 49 0 48 0;
#X connect 51 0 4 0;
#X connect 52 0 51 0;
#X restore 17 182 pd \$0-osc;
#N canvas 754 221 185 499 \$0-midi 0;
#X obj 33 6 midirealtimein;
#X obj 33 156 sel 248 250;
#X msg 70 201 0, f 1;
#X floatatom 70 224 1 0 0 3 z1 - #0-zeroClock, f 1;
#X obj 33 224 bng 15 250 50 0 \$0-clocktick empty tick -7 20 0 10 #fcfcfc
#000000 #31b007;
#X obj 51 178 bng 15 250 50 0 empty \$0-zeroClockBNG 0b 17 7 0 10 #fcfcfc
#000000 #0bf909;
#X msg 95 201 0, f 1;
#X floatatom 95 224 1 0 0 3 z2 - #0-zeroClock2, f 1;
#X obj 102 178 bng 15 250 50 0 empty \$0-zeroClock2BNG 0b2 17 7 0 10
#fcfcfc #000000 #0bf909;
#X obj 33 95 spigot;
#X obj 72 57 tgl 29 0 empty empty empty 17 7 0 10 #fcfcfc #000000 #000000
0 1;
#X connect 0 0 9 0;
#X connect 1 0 4 0;
#X connect 1 1 2 0;
#X connect 1 1 6 0;
#X connect 2 0 3 0;
#X connect 5 0 2 0;
#X connect 6 0 7 0;
#X connect 8 0 6 0;
#X connect 9 0 1 0;
#X connect 10 0 9 1;
#X restore 17 159 pd \$0-midi;
#N canvas 104 82 1076 624 \$0-gui 0;
#X obj 177 110 >= 1;
#X obj 177 136 sel 1 0;
#X obj 213 179 pack f s;
#X symbolatom 249 160 3 0 0 3 - #0-whitespace -, f 3;
#X obj 177 86 / 10;
#X floatatom 178 -44 5 0 0 2 clk_div #0-clockDivide -, f 5;
#X obj 177 54 t f f;
#X floatatom 14 -44 5 0 0 2 clockBPM #0-clockBPM -, f 5;
#X obj 13 272 s \$0-BPMgui;
#X obj 14 59 t f f;
#X obj 14 84 / 100;
#X obj 14 108 >= 1;
#X obj 14 134 sel 1 0;
#X obj 50 177 pack f s;
#X symbolatom 86 158 3 0 0 3 - #0-whitespace -, f 3;
#X msg 50 201 label \$2\$1;
#X msg 14 247 label_pos 2 18;
#X msg 26 223 label_pos 13 18;
#X obj 383 48 list tosymbol;
#X symbolatom 383 69 3 0 0 3 wspace - #0-whitespace, f 3;
#X msg 384 25 32;
#X obj 384 1 loadbang;
#X obj 333 107 >= 1;
#X obj 333 133 sel 1 0;
#X obj 369 176 pack f s;
#X symbolatom 405 157 3 0 0 3 - #0-whitespace -, f 3;
#X msg 369 200 label \$2\$1;
#X obj 333 83 / 10;
#X obj 333 51 t f f;
#X msg 345 222 label_pos 13 18;
#X msg 333 246 label_pos 8 18;
#X obj 35 28 s udpOUT2;
#X msg 35 -2 \$1 clock bpm_gui;
#X obj 178 -16 expr 384/$f1;
#X obj 176 274 s \$0-pulse_note;
#X obj 332 271 s \$0-pulse_count;
#X floatatom 333 -44 3 0 0 1 STEPS #0-step_count -, f 3;
#X floatatom 567 -45 5 0 0 0 BVAL #0-beat-val -, f 5;
#X obj 490 134 s \$0-TimeSig;
#X floatatom 490 -51 5 0 0 0 BPB #0-beats/bar -, f 5;
#X obj 490 17 pack;
#X obj 567 -17 t b f;
#X msg 490 41 label \$1/\$2;
#X msg 507 100 label_pos 2 18;
#X obj 490 70 t a b;
#X obj 785 143 >= 1;
#X obj 785 169 sel 1 0;
#X obj 821 212 pack f s;
#X symbolatom 857 193 3 0 0 3 - #0-whitespace -, f 3;
#X msg 821 236 label \$2\$1;
#X obj 785 119 / 10;
#X obj 785 87 t f f;
#X msg 797 258 label_pos 13 18;
#X msg 785 282 label_pos 8 18;
#X floatatom 785 -38 3 0 0 2 clk_steps clock-steps -, f 3;
#X obj 785 20 div 4;
#X obj 785 -17 - 1;
#X obj 785 55 + 1;
#X obj 947 142 >= 1;
#X obj 947 168 sel 1 0;
#X obj 983 211 pack f s;
#X symbolatom 1019 192 3 0 0 3 - #0-whitespace -, f 3;
#X msg 983 235 label \$2\$1;
#X obj 947 118 / 10;
#X obj 947 86 t f f;
#X msg 959 257 label_pos 13 18;
#X msg 947 281 label_pos 8 18;
#X obj 946 306 s \$0-tickGUI;
#X obj 646 146 >= 1;
#X obj 646 172 sel 1 0;
#X obj 682 215 pack f s;
#X symbolatom 718 196 3 0 0 3 - #0-whitespace -, f 3;
#X msg 682 239 label \$2\$1;
#X obj 646 122 / 10;
#X obj 646 90 t f f;
#X msg 658 261 label_pos 13 18;
#X msg 646 285 label_pos 8 18;
#X obj 645 310 s \$0-bar_counter;
#X floatatom 649 -31 3 0 0 2 bar_count #0-bar_count -, f 3;
#X obj 784 307 s \$0-beat_counter;
#X obj 917 -2 - 1;
#X obj 917 53 + 1;
#X obj 917 20 mod 4;
#X floatatom 1002 1 5 0 0 0 - - -, f 5;
#X msg 981 -45 3, f 1;
#X msg 998 -45 4, f 1;
#X msg 1023 -45 6, f 1;
#X msg 963 -47 2, f 1;
#X msg 833 -4 2, f 1;
#X msg 213 203 label 1/\$1;
#X msg 177 249 label_pos 2 18;
#X msg 189 225 label_pos 5 18;
#X connect 0 0 1 0;
#X connect 1 0 90 0;
#X connect 1 1 91 0;
#X connect 2 0 89 0;
#X connect 3 0 2 1;
#X connect 4 0 0 0;
#X connect 5 0 33 0;
#X connect 6 0 4 0;
#X connect 6 1 2 0;
#X connect 7 0 9 0;
#X connect 7 0 32 0;
#X connect 9 0 10 0;
#X connect 9 1 13 0;
#X connect 10 0 11 0;
#X connect 11 0 12 0;
#X connect 12 0 16 0;
#X connect 12 1 17 0;
#X connect 13 0 15 0;
#X connect 14 0 13 1;
#X connect 15 0 8 0;
#X connect 16 0 8 0;
#X connect 17 0 8 0;
#X connect 18 0 19 0;
#X connect 20 0 18 0;
#X connect 21 0 20 0;
#X connect 22 0 23 0;
#X connect 23 0 30 0;
#X connect 23 1 29 0;
#X connect 24 0 26 0;
#X connect 25 0 24 1;
#X connect 26 0 35 0;
#X connect 27 0 22 0;
#X connect 28 0 27 0;
#X connect 28 1 24 0;
#X connect 29 0 35 0;
#X connect 30 0 35 0;
#X connect 32 0 31 0;
#X connect 33 0 6 0;
#X connect 36 0 28 0;
#X connect 37 0 41 0;
#X connect 39 0 40 0;
#X connect 40 0 42 0;
#X connect 41 0 40 0;
#X connect 41 1 40 1;
#X connect 42 0 44 0;
#X connect 43 0 38 0;
#X connect 44 0 38 0;
#X connect 44 1 43 0;
#X connect 45 0 46 0;
#X connect 46 0 53 0;
#X connect 46 1 52 0;
#X connect 47 0 49 0;
#X connect 48 0 47 1;
#X connect 49 0 79 0;
#X connect 50 0 45 0;
#X connect 51 0 50 0;
#X connect 51 1 47 0;
#X connect 52 0 79 0;
#X connect 53 0 79 0;
#X connect 54 0 56 0;
#X connect 54 0 80 0;
#X connect 55 0 57 0;
#X connect 56 0 55 0;
#X connect 57 0 51 0;
#X connect 58 0 59 0;
#X connect 59 0 66 0;
#X connect 59 1 65 0;
#X connect 60 0 62 0;
#X connect 61 0 60 1;
#X connect 62 0 67 0;
#X connect 63 0 58 0;
#X connect 64 0 63 0;
#X connect 64 1 60 0;
#X connect 65 0 67 0;
#X connect 66 0 67 0;
#X connect 68 0 69 0;
#X connect 69 0 76 0;
#X connect 69 1 75 0;
#X connect 70 0 72 0;
#X connect 71 0 70 1;
#X connect 72 0 77 0;
#X connect 73 0 68 0;
#X connect 74 0 73 0;
#X connect 74 1 70 0;
#X connect 75 0 77 0;
#X connect 76 0 77 0;
#X connect 78 0 74 0;
#X connect 80 0 82 0;
#X connect 81 0 64 0;
#X connect 82 0 81 0;
#X connect 83 0 55 1;
#X connect 83 0 82 1;
#X connect 84 0 83 0;
#X connect 85 0 83 0;
#X connect 86 0 83 0;
#X connect 87 0 82 1;
#X connect 88 0 55 1;
#X connect 89 0 34 0;
#X connect 90 0 34 0;
#X connect 91 0 34 0;
#X restore 17 206 pd \$0-gui;
#N canvas 642 105 713 512 \$0-parameters 0;
#X floatatom 281 182 5 0 0 3 metroSpeed - #0-metronomSpeed, f 5;
#X floatatom 281 39 5 0 0 2 clockBPM #0-clockBPM -, f 5;
#X floatatom 165 45 5 0 0 2 clockBPM #0-clockBPM -, f 5;
#X floatatom 165 182 5 0 0 3 bpm2Hz - -, f 5;
#X obj 165 73 * 0.0166667;
#X floatatom 455 38 5 0 0 2 clk_div #0-clockDivide -, f 5;
#X obj 415 105 *;
#X floatatom 415 182 5 0 0 3 pulseLenMsec - pulseLenMsec, f 5;
#X obj 455 66 t b f;
#X obj 24 194 metro 100;
#X floatatom 44 175 9 0 0 2 metroSpeed #0-metronomSpeed -, f 9;
#X obj 24 220 bng 15 250 50 0 \$0-clocktick empty tick 21 5 0 10 #fcfcfc
#000000 #31b007;
#X obj 24 19 tgl 40 0 \$0-dum \$0-midiclockTGL \ OFF 2 18 0 18 #000000
#000000 #fcfcfc 0 1;
#X obj 282 67 expr 60000/($f1 * 96);
#X obj 41 116 bng 15 250 50 0 \$0-zeroClockBNG empty 0b 17 7 0 10 #fcfcfc
#000000 #0bf909;
#X obj 30 68 sel 0;
#X obj 78 116 bng 15 250 50 0 \$0-zeroClock2BNG empty 0b2 16 10 0 10
#fcfcfc #000000 #0bf909;
#X floatatom 125 118 1 0 0 3 z3 - #0-zeroClock3, f 1;
#X floatatom 305 244 5 0 0 3 metroSpeed - metronomSpeed, f 5;
#X connect 1 0 13 0;
#X connect 2 0 4 0;
#X connect 4 0 3 0;
#X connect 5 0 8 0;
#X connect 6 0 7 0;
#X connect 8 0 6 0;
#X connect 8 1 6 1;
#X connect 9 0 11 0;
#X connect 10 0 9 1;
#X connect 12 0 9 0;
#X connect 12 0 15 0;
#X connect 13 0 0 0;
#X connect 13 0 6 0;
#X connect 13 0 18 0;
#X connect 15 0 14 0;
#X connect 15 0 16 0;
#X connect 15 0 17 0;
#X restore 17 135 pd \$0-parameters;
#X floatatom 236 266 3 0 0 0 - - -, f 3;
#X obj 233 208 bng 15 250 50 0 empty \$0-pulseBNG pulsBNG 17 7 0 10
#fcfcfc #000000 #03b521;
#X obj 33 464 bng 15 250 50 0 \$0-pulseBNG empty pulsB -4 22 0 10 #fcfcfc
#000000 #03b521;
#X text 44 49 CLOCK;
#N canvas 36 141 450 325 future 0;
#X text 14 12 PARAMETERS;
#X text 14 47 dsp = DSP TOGGLE;
#X text 14 62 bpm = TEMPO (BPM);
#X text 14 77 btm = BEATS PER MEASURE;
#X text 14 92 btv = BEAT VALUE;
#X text 14 32 clk = CLOCK ON/OFF;
#X text 14 107 ppqn = PULSES PER QUARTER NOTE;
#X text 14 122 ext = EXTERNAL CLOCK TOGGLE;
#X text 14 137 =;
#X text 14 152 =;
#X text 14 172 =;
#X obj 11 256 route clk dsp bpm btm btv ppqn ext 1 2 3;
#X obj 11 282 s \$0-clk;
#X obj 41 307 s \$0-dsp;
#X obj 72 332 s \$0-bpm;
#X obj 102 357 s \$0-btm;
#X obj 133 282 s \$0-btv;
#X obj 163 307 s \$0-ppqn;
#X obj 194 332 s \$0-ext;
#X obj 224 357 s \$0-1;
#X obj 255 282 s \$0-2;
#X obj 285 307 s \$0-3;
#X obj 250 70 s udpOUT2;
#X msg 250 47 \$1 clock numpad_value;
#X obj 43 225 r \$0-param-in;
#X connect 11 0 12 0;
#X connect 11 1 13 0;
#X connect 11 2 14 0;
#X connect 11 3 15 0;
#X connect 11 4 16 0;
#X connect 11 5 17 0;
#X connect 11 6 18 0;
#X connect 11 7 19 0;
#X connect 11 8 20 0;
#X connect 11 9 21 0;
#X connect 23 0 22 0;
#X restore 96 159 pd future;
#X obj 188 9 cnv 15 40 40 \$0-dum \$0-ddd empty 2 18 0 18 #0a6100 #ffffff
0;
#X text 388 51 STEPS;
#X obj 189 10 cnv 15 38 38 \$0-dum \$0-TimeSig 4/4 2 18 0 18 #000000
#ffffff 0;
#X obj 371 241 bng 15 250 50 0 empty empty empty 17 7 0 10 #fcfcfc
#000000 #000000;
#X text 455 51 PULSE;
#X obj 293 10 cnv 15 40 40 \$0-dum \$0-ddd empty 2 18 0 18 #0a6100
#ffffff 0;
#X obj 294 11 cnv 15 38 38 \$0-dum \$0-beat_counter \ 2 13 18 0 18
#000000 #ffffff 0;
#X obj 333 10 cnv 15 40 40 \$0-dum \$0-ddd empty 2 18 0 18 #0a6100
#ffffff 0;
#X obj 334 11 cnv 15 38 38 \$0-dum \$0-tickGUI \ 4 13 18 0 18 #000000
#ffffff 0;
#X text 332 50 TICK;
#X obj 253 10 cnv 15 40 40 \$0-dum \$0-ddd empty 2 18 0 18 #0a6100
#ffffff 0;
#X obj 254 11 cnv 15 38 38 \$0-dum \$0-bar_counter \ 1 13 18 0 18 #000000
#ffffff 0;
#X text 255 50 BAR;
#X text 295 50 BEAT;
#X obj 502 324 + 1;
#X obj 472 324 f;
#X obj 278 362 sel 0;
#X obj 278 391 bng 15 250 50 0 \$0-pulseC empty pulsC -4 22 0 10 #fcfcfc
#000000 #03b521;
#X obj 472 284 bng 15 250 50 0 empty \$0-pulseC pulsC -4 -11 0 10 #fcfcfc
#000000 #03b521;
#X obj 472 353 + 1;
#X floatatom 472 382 3 0 0 0 - - #0-bar_count, f 3;
#X floatatom 490 305 1 0 0 3 - #0-zeroClock3 -, f 1;
#X text 174 64 SIGNATURE;
#X text 190 49 TIME;
#X text 455 64 VALUE;
#N canvas 147 412 450 283 \$0-autosave 0;
#X msg 27 170 menusave;
#X obj 27 105 tgl 15 0 empty empty empty 17 7 0 10 #fcfcfc #000000
#000000 1 1;
#X obj 27 130 metro 1000;
#X msg 114 84 5;
#X obj 114 107 * 60000;
#X floatatom 114 129 8 0 0 0 - - -, f 8;
#X obj 27 7 loadbang;
#X obj 27 76 t b b;
#X obj 27 199 s pd-MIDI_CLOCK.pd;
#X obj 27 36 del 1000;
#X connect 0 0 8 0;
#X connect 1 0 2 0;
#X connect 2 0 0 0;
#X connect 3 0 4 0;
#X connect 4 0 5 0;
#X connect 4 0 2 1;
#X connect 6 0 9 0;
#X connect 7 0 1 0;
#X connect 7 1 3 0;
#X connect 9 0 7 0;
#X restore 18 104 pd \$0-autosave;
#X obj 47 312 s clk_tick;
#X connect 1 0 10 1;
#X connect 2 0 11 1;
#X connect 3 0 4 0;
#X connect 3 0 19 0;
#X connect 7 0 10 0;
#X connect 8 0 10 1;
#X connect 9 0 11 1;
#X connect 9 0 46 0;
#X connect 10 0 1 0;
#X connect 10 0 14 0;
#X connect 10 0 69 0;
#X connect 11 0 2 0;
#X connect 11 0 12 0;
#X connect 11 0 38 0;
#X connect 12 0 13 0;
#X connect 12 0 3 0;
#X connect 12 0 59 0;
#X connect 13 0 18 0;
#X connect 14 0 15 0;
#X connect 14 0 16 0;
#X connect 15 0 40 0;
#X connect 16 0 17 0;
#X connect 20 0 21 0;
#X connect 20 0 14 1;
#X connect 21 0 16 1;
#X connect 22 0 23 0;
#X connect 22 0 12 1;
#X connect 23 0 13 1;
#X connect 27 0 26 0;
#X connect 39 0 11 0;
#X connect 57 0 58 1;
#X connect 58 0 57 0;
#X connect 58 0 62 0;
#X connect 59 0 60 0;
#X connect 61 0 58 0;
#X connect 62 0 63 0;
#X connect 64 0 58 1;
#X coords 0 -1 1 1 417 75 1 16 9;
