#N canvas 376 224 450 382 12;
#X obj 51 -173 inlet;
#X obj 51 -24 until;
#X obj 51 35 f;
#X obj 82 35 + 1;
#X obj 107 65 sel 15;
#X msg 107 7 0, f 1;
#X msg 220 -146 16;
#X obj 51 129 outlet;
#X obj 51 -51 sel 0;
#X obj 51 -79 f, f 1;
#X obj 146 -173 inlet;
#X floatatom 146 -111 5 0 0 0 - - -, f 5;
#X obj 146 38 - 1;
#X obj 220 -173 loadbang;
#X obj 72 -117 bng 15 250 50 0 empty empty empty 17 7 0 10 #fcfcfc
#000000 #000000;
#X obj 51 -144 t b;
#X connect 0 0 15 0;
#X connect 1 0 2 0;
#X connect 2 0 3 0;
#X connect 2 0 4 0;
#X connect 2 0 7 0;
#X connect 3 0 2 1;
#X connect 4 0 5 0;
#X connect 5 0 2 1;
#X connect 6 0 11 0;
#X connect 8 1 1 0;
#X connect 9 0 8 0;
#X connect 10 0 11 0;
#X connect 11 0 12 0;
#X connect 11 0 9 1;
#X connect 12 0 4 1;
#X connect 13 0 6 0;
#X connect 14 0 9 0;
#X connect 15 0 9 0;
