#N canvas 376 224 450 382 12;
#X obj 51 -173 inlet;
#X obj 51 -55 f;
#X obj 82 -55 + 1;
#X msg 119 -83 0, f 1;
#X msg 220 -125 16;
#X obj 51 89 outlet;
#X obj 177 -173 inlet;
#X obj 147 -50 - 1;
#X obj 220 -173 loadbang;
#X obj 129 -20 >=;
#X obj 51 -144 t b;
#X obj 119 9 sel 1;
#X obj 51 -26 + 1;
#X obj 177 89 outlet;
#X connect 0 0 10 0;
#X connect 1 0 2 0;
#X connect 1 0 9 0;
#X connect 1 0 12 0;
#X connect 2 0 1 1;
#X connect 3 0 1 1;
#X connect 4 0 7 0;
#X connect 6 0 7 0;
#X connect 6 0 13 0;
#X connect 7 0 9 1;
#X connect 8 0 4 0;
#X connect 9 0 11 0;
#X connect 10 0 1 0;
#X connect 11 0 3 0;
#X connect 12 0 5 0;
