#N canvas 1993 347 724 609 12;
#N canvas 417 231 450 325 (subpatch) 0;
#X array waveform 1000 float 5 black #00de04;
#A 0 0 0 0 0 0 0 0 0 0 0 0 0 0 0 0 0 0 0 0 0 0 0 0 0 0 0 0 0 0 0 0
0 0 0 0 0 0 0 0 0 0 0 0 0 0 0 0 0 0 0 0 0 0 0 0 0 0 0 0 0 0 0 0 0 0
0 0 0 0 0 0 0 0 0 0 0 0 0 0 0 0 0 0 0 0 0 0 0 0 0 0 0 0 0 0 0 0 0 0
0 0 0 0 0 0 0 0 0 0 0 0 0 0 0 0 0 0 0 0 0 0 0 0 0 0 0 0 0 0 0 0 0 0
0 0 0 0 0 0 0 0 0 0 0 0 0 0 0 0 0 0 0 0 0 0 0 0 0 0 0 0 0 0 0 0 0 0
0 0 0 0 0 0 0 0 0 0 0 0 0 0 0 0 0 0 0 0 0 0 0 0 0 0 0 0 0 0 0 0 0 0
0 0 0 0 0 0 0 0 0 0 0 0 0 0 0 0 0 0 0 0 0 0 0 0 0 0 0 0 0 0 0 0 0 0
0 0 0 0 0 0 0 0 0 0 0 0 0 0 0 0 0 0 0 0 0 0 0 0 0 0 0 0 0 0 0 0 0 0
0 0 0 0 0 0 0 0 0 0 0 0 0 0 0 0 0 0 0 0 0 0 0 0 0 0 0 0 0 0 0 0 0 0
0 0 0 0 0 0 0 0 0 0 0 0 0 0 0 0 0 0 0 0 0 0 0 0 0 0 0 0 0 0 0 0 0 0
0 0 0 0 0 0 0 0 0 0 0 0 0 0 0 0 0 0 0 0 0 0 0 0 0 0 0 0 0 0 0 0 0 0
0 0 0 0 0 0 0 0 0 0 0 0 0 0 0 0 0 0 0 0 0 0 0 0 0 0 0 0 0 0 0 0 0 0
0 0 0 0 0 0 0 0 0 0 0 0 0 0 0 0 0 0 0 0 0 0 0 0 0 0 0 0 0 0 0 0 0 0
0 0 0 0 0 0 0 0 0 0 0 0 0 0 0 0 0 0 0 0 0 0 0 0 0 0 0 0 0 0 0 0 0 0
0 0 0 0 0 0 0 0 0 0 0 0 0 0 0 0 0 0 0 0 0 0 0 0 0 0 0 0 0 0 0 0 0 0
0 0 0 0 0 0 0 0 0 0 0 0 0 0 0 0 0 0 0 0 0 0 0 0 0 0 0 0 0 0 0 0 0 0
0 0 0 0 0 0 0 0 0 0 0 0 0 0 0 0 0 0 0 0 0 0 0 0 0 0 0 0 0 0 0 0 0 0
0 0 0 0 0 0 0 0 0 0 0 0 0 0 0 0 0 0 0 0 0 0 0 0 0 0 0 0 0 0 0 0 0 0
0 0 0 0 0 0 0 0 0 0 0 0 0 0 0 0 0 0 0 0 0 0 0 0 0 0 0 0 0 0 0 0 0 0
0 0 0 0 0 0 0 0 0 0 0 0 0 0 0 0 0 0 0 0 0 0 0 0 0 0 0 0 0 0 0 0 0 0
0 0 0 0 0 0 0 0 0 0 0 0 0 0 0 0 0 0 0 0 0 0 0 0 0 0 0 0 0 0 0 0 0 0
0 0 0 0 0 0 0 0 0 0 0 0 0 0 0 0 0 0 0 0 0 0 0 0 0 0 0 0 0 0 0 0 0 0
0 0 0 0 0 0 0 0 0 0 0 0 0 0 0 0 0 0 0 0 0 0 0 0 0 0 0 0 0 0 0 0 0 0
0 0 0 0 0 0 0 0 0 0 0 0 0 0 0 0 0 0 0 0 0 0 0 0 0 0 0 0 0 0 0 0 0 0
0 0 0 0 0 0 0 0 0 0 0 0 0 0 0 0 0 0 0 0 0 0 0 0 0 0 0 0 0 0 0 0 0 0
0 0 0 0 0 0 0 0 0 0 0 0 0 0 0 0 0 0 0 0 0 0 0 0 0 0 0 0 0 0 0 0 0 0
0 0 0 0 0 0 0 0 0 0 0 0 0 0 0 0 0 0 0 0 0 0 0 0 0 0 0 0 0 0 0 0 0 0
0 0 0 0 0 0 0 0 0 0 0 0 0 0 0 0 0 0 0 0 0 0 0 0 0 0 0 0 0 0 0 0 0 0
0 0 0 0 0 0 0 0 0 0 0 0 0 0 0 0 0 0 0 0 0 0 0 0 0 0 0 0 0 0 0 0 0 0
0 0 0 0 0 0 0 0 0 0 0 0 0 0 0 0 0;
#X coords 0 1 999 -1 208 150 1;
#X restore 19 26 graph;
#X obj 21 262 hsl 120 20 0.01 20000 1 0 \$0-sndfrq \$0-rcvfrq frequency
32 7 0 14 #fcfcfc #000000 #000000 0 1;
#X obj 21 311 hsl 120 20 0 1 0 0 \$0-sndpwm \$0-rcvpwm pulse_width
22 7 0 14 #fcfcfc #000000 #000000 0 1;
#X obj 21 287 hsl 120 20 0 1 0 0 \$0-sndpos \$0-rcvpos phase_offset
22 7 0 14 #fcfcfc #000000 #000000 0 1;
#X obj 198 219 tgl 30 0 \$0-sndinv \$0-rcvinv INV 2 15 0 14 #000000
#000000 #fcfcfc 0 1;
#X obj 22 335 hsl 120 20 0 1 0 0 \$0-sndvol \$0-rcvvol amplitude 32
7 0 14 #fcfcfc #000000 #000000 119 1;
#X obj 147 335 nbx 5 20 0 32 0 0 \$0-sndvolnmb \$0-rcvvolnmb empty
0 -8 0 10 #fcfcfc #000000 #000000 0 256 0;
#X obj 147 262 nbx 5 20 0.01 20000 0 0 \$0-sndfrqnmb \$0-rcvfrqnmb
empty 0 -8 0 10 #fcfcfc #000000 #000000 0.01 256 0;
#X obj 147 311 nbx 5 20 0 32 0 0 \$0-sndpwmnmb \$0-rcvpwmnmb empty
0 -8 0 10 #fcfcfc #000000 #000000 0 256 0;
#X obj 147 287 nbx 5 20 0 32 0 0 \$0-sndposnmb \$0-rcvposnmb empty
0 -8 0 10 #fcfcfc #000000 #000000 0 256 0;
#X obj 19 178 tgl 30 1 \$0-sndtgl \$0-rcvtgl OFF 2 15 0 14 #fcfcfc
#fcfcfc #000000 0 1;
#N canvas 0 42 1280 653 \$0-sliders 0;
#X obj 687 -9 r \$0-sndtgl;
#X msg 687 50 ON;
#X msg 790 50 OFF;
#X obj 687 116 symbol;
#X msg 687 138 label \$1;
#X obj 683 172 s \$0-rcvtgl;
#X msg 687 72 color 22 22 0;
#X msg 790 72 color 0 0 22;
#X msg 687 94 label_pos 6 15;
#X msg 790 94 label_pos 2 15;
#X obj 687 28 sel 1 0, f 30;
#X msg 343 56 set \$1;
#X msg 448 56 set \$1;
#X obj 448 -13 r \$0-sndvolnmb;
#X obj 343 -13 r \$0-sndvol;
#X obj 343 81 s \$0-rcvvolnmb;
#X obj 448 81 s \$0-rcvvol;
#X obj 534 29 s \$0-vol;
#X obj 534 61 r \$0-vol;
#X floatatom 534 81 5 0 0 0 - - -, f 5;
#X obj 448 9 f;
#X obj 343 9 f;
#X msg 23 59 set \$1;
#X msg 130 59 set \$1;
#X obj 130 81 s \$0-rcvvol;
#X floatatom 214 81 5 0 0 0 - - -, f 5;
#X obj 130 11 f;
#X obj 23 11 f;
#X obj 214 61 r \$0-frq;
#X obj 213 30 s \$0-frq;
#X obj 130 -12 r \$0-sndfrqnmb;
#X obj 23 -12 r \$0-sndfrq;
#X obj 23 81 s \$0-rcvfrqnmb;
#X msg 21 247 set \$1;
#X msg 128 247 set \$1;
#X floatatom 216 269 5 0 0 0 - - -, f 5;
#X obj 128 205 f;
#X obj 21 205 f;
#X obj 21 182 r \$0-sndaos;
#X obj 128 182 r \$0-sndaosnmb;
#X obj 21 269 s \$0-rcvaosnmb;
#X obj 216 225 s \$0-aos;
#X obj 128 269 s \$0-rcvaos;
#X obj 216 249 r \$0-aos;
#X msg 696 464 label \$1;
#X msg 696 392 color 22 22 0;
#X msg 812 392 color 0 0 22;
#X msg 812 415 label_pos 2 15;
#X obj 696 346 sel 1 0, f 34;
#X obj 696 323 r \$0-sndinv;
#X obj 696 486 s \$0-rcvinv;
#X msg 696 369 INV;
#X msg 812 369 OFF;
#X msg 696 415 label_pos 2 15;
#N canvas 428 127 875 676 \$0-wf_cfg 0;
#X msg 71 334 color 22 22 0;
#X msg 97 360 color 0 0 22;
#X obj 71 216 r \$0-sndwf_sin;
#X obj 71 388 s \$0-rcvwf_sin;
#X msg 209 334 color 22 22 0;
#X msg 235 360 color 0 0 22;
#X msg 346 334 color 22 22 0;
#X msg 372 360 color 0 0 22;
#X msg 479 334 color 22 22 0;
#X msg 505 360 color 0 0 22;
#X obj 209 216 r \$0-sndwf_tri;
#X obj 209 388 s \$0-rcvwf_tri;
#X obj 346 216 r \$0-sndwf_sqr;
#X obj 346 388 s \$0-rcvwf_sqr;
#X obj 479 216 r \$0-sndwf_saw;
#X obj 479 388 s \$0-rcvwf_saw;
#X obj 724 279 bng 55 250 50 0 empty set-tgl-dark set-dark 0 27 0 10
#fcfcfc #000000 #000000;
#X obj 71 242 sel 0 1, f 8;
#X obj 71 268 t b b;
#X obj 103 289 bng 15 250 50 0 set-tgl-dark empty set-dark 17 7 0 10
#fcfcfc #000000 #02a000;
#X obj 206 242 sel 0 1, f 8;
#X obj 206 268 t b b;
#X obj 238 289 bng 15 250 50 0 set-tgl-dark empty set-dark 17 7 0 10
#fcfcfc #000000 #02a000;
#X obj 345 242 sel 0 1, f 8;
#X obj 345 268 t b b;
#X obj 377 289 bng 15 250 50 0 set-tgl-dark empty set-dark 17 7 0 10
#fcfcfc #000000 #02a000;
#X obj 481 242 sel 0 1, f 8;
#X obj 481 268 t b b;
#X obj 513 289 bng 15 250 50 0 set-tgl-dark empty set-dark 17 7 0 10
#fcfcfc #000000 #02a000;
#X obj 11 -18 r \$0-rcvwf_nmb;
#X obj 26 153 s \$0-sndwf_tri;
#X obj 147 153 s \$0-sndwf_sqr;
#X obj 271 153 s \$0-sndwf_saw;
#X obj 395 153 s \$0-sndwf_sin;
#X msg 11 107 \$1 1;
#X msg 261 46 tri;
#X msg 295 46 sqr;
#X msg 329 46 saw;
#X msg 360 46 sin;
#X obj 261 65 t s;
#X symbolatom 261 87 10 0 0 3 selected_WF - selected_WF, f 10;
#X obj 11 153 tgl 15 0 tri-tgl empty empty -25 19 0 10 #fcfcfc #000000
#22923f 0 1;
#X obj 131 153 tgl 15 0 sqr-tgl empty empty -25 19 0 10 #fcfcfc #000000
#22923f 0 1;
#X obj 256 153 tgl 15 0 saw-tgl empty empty -25 19 0 10 #fcfcfc #000000
#22923f 0 1;
#X obj 380 153 tgl 15 0 sin-tgl empty empty -25 19 0 10 #fcfcfc #000000
#22923f 0 1;
#X msg 122 133 0, f 2;
#X msg 619 334 color 22 22 0;
#X msg 645 360 color 0 0 22;
#X obj 621 242 sel 0 1, f 8;
#X obj 621 268 t b b;
#X obj 653 289 bng 15 250 50 0 set-tgl-dark empty set-dark 17 7 0 10
#fcfcfc #000000 #02a000;
#X obj 619 216 r \$0-sndwf_noi;
#X obj 619 388 s \$0-rcvwf_noi;
#X obj 11 133 route 1 2 3 4 5;
#X obj 519 153 s \$0-sndwf_noi;
#X msg 391 46 noi;
#X obj 262 25 sel 1 2 3 4 5;
#X obj 504 153 tgl 15 0 noi-tgl empty empty -25 19 0 10 #fcfcfc #000000
#22923f 0 1;
#X msg 71 309 1, f 2;
#X msg 206 309 2, f 2;
#X msg 345 309 3, f 2;
#X msg 481 309 4, f 2;
#X msg 621 309 5, f 2;
#X floatatom 10 331 5 0 0 0 - - -, f 5;
#X obj 11 5 t f f b;
#X connect 0 0 3 0;
#X connect 1 0 3 0;
#X connect 2 0 17 0;
#X connect 4 0 11 0;
#X connect 5 0 11 0;
#X connect 6 0 13 0;
#X connect 7 0 13 0;
#X connect 8 0 15 0;
#X connect 9 0 15 0;
#X connect 10 0 20 0;
#X connect 12 0 23 0;
#X connect 14 0 26 0;
#X connect 16 0 8 0;
#X connect 16 0 6 0;
#X connect 16 0 4 0;
#X connect 16 0 0 0;
#X connect 16 0 46 0;
#X connect 17 0 18 0;
#X connect 17 1 18 0;
#X connect 18 0 1 0;
#X connect 18 1 19 0;
#X connect 18 1 58 0;
#X connect 20 0 21 0;
#X connect 20 1 21 0;
#X connect 21 0 5 0;
#X connect 21 1 22 0;
#X connect 21 1 59 0;
#X connect 23 0 24 0;
#X connect 23 1 24 0;
#X connect 24 0 7 0;
#X connect 24 1 25 0;
#X connect 24 1 60 0;
#X connect 26 0 27 0;
#X connect 26 1 27 0;
#X connect 27 0 9 0;
#X connect 27 1 28 0;
#X connect 27 1 61 0;
#X connect 29 0 64 0;
#X connect 34 0 53 0;
#X connect 35 0 39 0;
#X connect 36 0 39 0;
#X connect 37 0 39 0;
#X connect 38 0 39 0;
#X connect 39 0 40 0;
#X connect 45 0 44 0;
#X connect 45 0 41 0;
#X connect 45 0 43 0;
#X connect 45 0 57 0;
#X connect 45 0 42 0;
#X connect 46 0 52 0;
#X connect 47 0 52 0;
#X connect 48 0 49 0;
#X connect 48 1 49 0;
#X connect 49 0 47 0;
#X connect 49 1 50 0;
#X connect 49 1 62 0;
#X connect 51 0 48 0;
#X connect 53 0 30 0;
#X connect 53 0 41 0;
#X connect 53 1 31 0;
#X connect 53 1 42 0;
#X connect 53 2 32 0;
#X connect 53 2 43 0;
#X connect 53 3 33 0;
#X connect 53 3 44 0;
#X connect 53 4 54 0;
#X connect 53 4 57 0;
#X connect 55 0 39 0;
#X connect 56 0 35 0;
#X connect 56 1 36 0;
#X connect 56 2 37 0;
#X connect 56 3 38 0;
#X connect 56 4 55 0;
#X connect 58 0 63 0;
#X connect 59 0 63 0;
#X connect 60 0 63 0;
#X connect 61 0 63 0;
#X connect 62 0 63 0;
#X connect 64 1 56 0;
#X connect 64 1 34 0;
#X connect 64 2 45 0;
#X restore 23 -56 pd \$0-wf_cfg;
#X obj 696 439 t s;
#X msg 351 444 set \$1;
#X floatatom 546 466 5 0 0 0 - - -, f 5;
#X obj 458 402 f;
#X obj 351 402 f;
#X obj 458 380 r \$0-rcvl-rnmb;
#X obj 351 380 r \$0-sndl-r;
#X obj 351 466 s \$0-rcvl-rnmb;
#X obj 458 466 s \$0-rcvl-r;
#X obj 547 422 s \$0-l-r;
#X obj 546 446 r \$0-l-r;
#X msg 350 246 set \$1;
#X msg 457 246 set \$1;
#X floatatom 545 268 5 0 0 0 - - -, f 5;
#X obj 457 204 f;
#X obj 350 204 f;
#X obj 350 180 r \$0-sndpos;
#X obj 350 268 s \$0-rcvposnmb;
#X obj 457 181 r \$0-sndposnmb;
#X obj 457 268 s \$0-rcvpos;
#X obj 546 224 s \$0-pos;
#X obj 545 248 r \$0-pos;
#X msg 18 444 set \$1;
#X msg 125 444 set \$1;
#X floatatom 213 466 5 0 0 0 - - -, f 5;
#X obj 125 402 f;
#X obj 18 402 f;
#X obj 18 379 r \$0-sndpwm;
#X obj 18 466 s \$0-rcvpwmnmb;
#X obj 125 380 r \$0-sndpwmnmb;
#X obj 126 466 s \$0-rcvpwm;
#X obj 213 422 s \$0-pwm;
#X obj 213 446 r \$0-pwm;
#X msg 458 431 set \$1;
#X floatatom 953 63 5 0 0 0 - - -, f 5;
#X obj 954 19 s \$0-tgl;
#X obj 953 43 r \$0-tgl;
#X connect 0 0 10 0;
#X connect 0 0 90 0;
#X connect 1 0 3 0;
#X connect 2 0 3 0;
#X connect 3 0 4 0;
#X connect 4 0 5 0;
#X connect 6 0 5 0;
#X connect 7 0 5 0;
#X connect 8 0 5 0;
#X connect 9 0 5 0;
#X connect 10 0 1 0;
#X connect 10 0 6 0;
#X connect 10 0 8 0;
#X connect 10 1 2 0;
#X connect 10 1 7 0;
#X connect 10 1 9 0;
#X connect 11 0 15 0;
#X connect 12 0 16 0;
#X connect 13 0 20 0;
#X connect 14 0 21 0;
#X connect 18 0 19 0;
#X connect 20 0 12 0;
#X connect 20 0 17 0;
#X connect 21 0 11 0;
#X connect 21 0 17 0;
#X connect 22 0 32 0;
#X connect 23 0 24 0;
#X connect 26 0 23 0;
#X connect 26 0 29 0;
#X connect 27 0 22 0;
#X connect 27 0 29 0;
#X connect 28 0 25 0;
#X connect 30 0 26 0;
#X connect 31 0 27 0;
#X connect 33 0 40 0;
#X connect 34 0 42 0;
#X connect 36 0 34 0;
#X connect 36 0 41 0;
#X connect 37 0 33 0;
#X connect 37 0 41 0;
#X connect 38 0 37 0;
#X connect 39 0 36 0;
#X connect 43 0 35 0;
#X connect 44 0 50 0;
#X connect 45 0 50 0;
#X connect 46 0 50 0;
#X connect 47 0 50 0;
#X connect 48 0 51 0;
#X connect 48 0 45 0;
#X connect 48 0 53 0;
#X connect 48 1 52 0;
#X connect 48 1 46 0;
#X connect 48 1 47 0;
#X connect 49 0 48 0;
#X connect 51 0 55 0;
#X connect 52 0 55 0;
#X connect 53 0 50 0;
#X connect 55 0 44 0;
#X connect 56 0 62 0;
#X connect 58 0 64 0;
#X connect 58 0 88 0;
#X connect 59 0 56 0;
#X connect 59 0 64 0;
#X connect 60 0 58 0;
#X connect 61 0 59 0;
#X connect 65 0 57 0;
#X connect 66 0 72 0;
#X connect 67 0 74 0;
#X connect 69 0 67 0;
#X connect 69 0 75 0;
#X connect 70 0 66 0;
#X connect 70 0 75 0;
#X connect 71 0 70 0;
#X connect 73 0 69 0;
#X connect 76 0 68 0;
#X connect 77 0 83 0;
#X connect 78 0 85 0;
#X connect 80 0 78 0;
#X connect 80 0 86 0;
#X connect 81 0 77 0;
#X connect 81 0 86 0;
#X connect 82 0 81 0;
#X connect 84 0 80 0;
#X connect 87 0 79 0;
#X connect 88 0 63 0;
#X connect 91 0 89 0;
#X restore 400 46 pd \$0-sliders;
#X obj 109 221 tgl 28 1 \$0-sndwf_sin \$0-rcvwf_sin SIN 1 12 0 14 #000000
#000000 #fcfcfc 1 1;
#X obj 79 221 tgl 28 1 \$0-sndwf_saw \$0-rcvwf_saw SAW 1 12 0 14 #000000
#000000 #fcfcfc 0 1;
#X obj 19 221 tgl 28 1 \$0-sndwf_tri \$0-rcvwf_tri TRI 1 12 0 14 #000000
#000000 #fcfcfc 0 1;
#X obj 49 221 tgl 28 1 \$0-sndwf_sqr \$0-rcvwf_sqr SQR 1 12 0 14 #000000
#000000 #fcfcfc 0 1;
#X text 234 106 tgl = TOGGLE ON/OFF;
#X text 234 26 PARAMETERS;
#X text 234 61 frq = FREQUENCY;
#X text 234 76 vol = VOLUME;
#X text 234 91 aos = AMP OFFSET;
#X text 234 121 pos = PHASE OFFSET;
#X text 234 136 pwm = PULSE WIDTH;
#X text 234 151 l-r = OUTPUT CHANNEL;
#X obj 356 273 s \$0-rcvtgl;
#X obj 234 273 s \$0-rcvwf_nmb;
#X obj 264 298 s \$0-rcvfrqnmb;
#X obj 295 323 s \$0-rcvvolnmb;
#X obj 325 348 s \$0-rcvaosnmb;
#X obj 386 298 s \$0-rcvpos;
#X obj 417 323 s \$0-rcvpwmnmb;
#X obj 447 348 s \$0-rcvl-rnmb;
#X text 234 46 wf = WAVEFORM;
#X obj 22 359 hsl 120 20 -1 1 0 0 \$0-sndaos \$0-rcvaos amp_offset
32 7 0 14 #fcfcfc #000000 #000000 0 1;
#X obj 148 359 nbx 5 20 -1 1 0 0 \$0-sndaosnmb \$0-rcvaosnmb empty
0 -8 0 10 #fcfcfc #000000 #000000 0 256 0;
#N canvas 203 181 886 338 \$0-modstuffOSC 0;
#X obj 324 10 r parsedOSC;
#N canvas 467 219 601 428 \$0-Freqy 0;
#X obj 61 6 inlet;
#X obj 122 143 route z;
#X obj 222 141 route z;
#X obj 319 138 route z;
#X obj 398 145 route z;
#X obj 168 168 tgl 15 0 empty empty empty 17 7 0 10 #fcfcfc #000000
#000000 0 1;
#X obj 268 167 tgl 15 0 empty empty empty 17 7 0 10 #fcfcfc #000000
#000000 0 1;
#X obj 351 165 tgl 15 0 empty empty empty 17 7 0 10 #fcfcfc #000000
#000000 0 1;
#X obj 417 182 tgl 15 0 empty empty empty 17 7 0 10 #fcfcfc #000000
#000000 0 1;
#X obj 96 343 v \$0-freq;
#X obj 213 286 v \$0-freq;
#X obj 216 413 v \$0-freq;
#X obj 213 345 + 0.05;
#X obj 156 230 sel 1;
#X obj 112 245 sel 1;
#X obj 417 246 sel 1;
#X obj 351 229 sel 1;
#X obj 10 408 outlet;
#X obj 248 219 metro 50;
#X msg 417 275 5;
#X msg 112 274 -5;
#X obj 81 440 s udpOUT2;
#X msg 156 259 -0.005;
#X msg 350 259 0.005;
#X obj 43 54 route frequency frequency-- frequency- frequency+ frequency++
, f 89;
#X obj 18 98 route z;
#X obj 215 376 clip 0.0001 20000;
#X obj 13 187 * 20000;
#X msg 81 411 \$1 wfGen freq_gui;
#X connect 0 0 24 0;
#X connect 1 1 5 0;
#X connect 2 1 6 0;
#X connect 3 1 7 0;
#X connect 4 1 8 0;
#X connect 5 0 14 0;
#X connect 5 0 18 0;
#X connect 6 0 13 0;
#X connect 6 0 18 0;
#X connect 7 0 16 0;
#X connect 7 0 18 0;
#X connect 8 0 15 0;
#X connect 8 0 18 0;
#X connect 10 0 12 0;
#X connect 12 0 26 0;
#X connect 13 0 22 0;
#X connect 14 0 20 0;
#X connect 15 0 19 0;
#X connect 16 0 23 0;
#X connect 18 0 10 0;
#X connect 19 0 12 1;
#X connect 20 0 12 1;
#X connect 22 0 12 1;
#X connect 23 0 12 1;
#X connect 24 0 25 0;
#X connect 24 1 1 0;
#X connect 24 2 2 0;
#X connect 24 3 3 0;
#X connect 24 4 4 0;
#X connect 25 1 27 0;
#X connect 26 0 11 0;
#X connect 26 0 28 0;
#X connect 26 0 17 0;
#X connect 27 0 9 0;
#X connect 27 0 17 0;
#X connect 27 0 28 0;
#X connect 28 0 21 0;
#X restore 111 51 pd \$0-Freqy;
#X obj 111 169 s \$0-param-in;
#X msg 111 76 frq \$1;
#X msg 409 76 vol \$1;
#X msg 492 76 aos \$1;
#X msg 310 76 pwm \$1;
#X msg 207 76 pos \$1;
#X msg 588 87 wf \$1;
#N canvas 30 98 606 559 \$0-Phasy 0;
#X obj 267 41 inlet;
#X obj 267 143 route z;
#X obj 327 141 route z;
#X obj 394 138 route z;
#X obj 473 145 route z;
#X obj 267 168 tgl 15 0 empty empty empty 17 7 0 10 #fcfcfc #000000
#000000 0 1;
#X obj 327 167 tgl 15 0 empty empty empty 17 7 0 10 #fcfcfc #000000
#000000 0 1;
#X obj 394 165 tgl 15 0 empty empty empty 17 7 0 10 #fcfcfc #000000
#000000 0 1;
#X obj 473 182 tgl 15 0 empty empty empty 17 7 0 10 #fcfcfc #000000
#000000 0 1;
#X obj 159 332 + 0.05;
#X obj 327 228 sel 1;
#X obj 267 243 sel 1;
#X obj 473 246 sel 1;
#X obj 394 243 sel 1;
#X obj 35 431 outlet;
#X obj 159 263 metro 50;
#X obj 159 290 v \$0-phso;
#X obj 277 375 v \$0-phso;
#X msg 473 275 0.01;
#X msg 267 272 -0.01;
#X obj 140 442 s udpOUT2;
#X msg 140 413 \$1 4 phase_offset;
#X msg 394 272 0.001;
#X msg 327 257 -0.001;
#X obj 57 220 route z;
#X obj 267 70 route phase_offset phase_offset-- phase_offset- phase_offset+
phase_offset++, f 38;
#X obj 159 361 clip 0 1;
#X connect 0 0 25 0;
#X connect 1 1 5 0;
#X connect 2 1 6 0;
#X connect 3 1 7 0;
#X connect 4 1 8 0;
#X connect 5 0 11 0;
#X connect 5 0 15 0;
#X connect 6 0 10 0;
#X connect 6 0 15 0;
#X connect 7 0 13 0;
#X connect 7 0 15 0;
#X connect 8 0 12 0;
#X connect 8 0 15 0;
#X connect 9 0 26 0;
#X connect 10 0 23 0;
#X connect 11 0 19 0;
#X connect 12 0 18 0;
#X connect 13 0 22 0;
#X connect 15 0 16 0;
#X connect 16 0 9 0;
#X connect 18 0 9 1;
#X connect 19 0 9 1;
#X connect 21 0 20 0;
#X connect 22 0 9 1;
#X connect 23 0 9 1;
#X connect 24 1 26 0;
#X connect 25 0 24 0;
#X connect 25 1 1 0;
#X connect 25 2 2 0;
#X connect 25 3 3 0;
#X connect 25 4 4 0;
#X connect 26 0 17 0;
#X connect 26 0 14 0;
#X connect 26 0 21 0;
#X restore 207 54 pd \$0-Phasy;
#N canvas 409 110 1075 587 \$0-Pulsy 0;
#X obj 179 65 inlet;
#X obj 179 167 route z;
#X obj 239 165 route z;
#X obj 306 162 route z;
#X obj 385 169 route z;
#X obj 179 192 tgl 15 0 empty empty empty 17 7 0 10 #fcfcfc #000000
#000000 0 1;
#X obj 239 191 tgl 15 0 empty empty empty 17 7 0 10 #fcfcfc #000000
#000000 0 1;
#X obj 306 189 tgl 15 0 empty empty empty 17 7 0 10 #fcfcfc #000000
#000000 0 1;
#X obj 385 206 tgl 15 0 empty empty empty 17 7 0 10 #fcfcfc #000000
#000000 0 1;
#X obj 71 396 + 0.05;
#X obj 239 252 sel 1;
#X obj 179 267 sel 1;
#X obj 385 270 sel 1;
#X obj 306 267 sel 1;
#X obj 71 287 metro 50;
#X msg 385 299 0.01;
#X msg 179 296 -0.01;
#X msg 306 296 0.001;
#X msg 239 281 -0.001;
#X obj 71 314 v \$0-plsw;
#X obj 4 203 route z;
#X obj 179 94 route pulse_width pulse_width-- pulse_width- pulse_width+
pulse_width++, f 38;
#X obj 79 525 outlet;
#X obj 169 537 s udpOUT2;
#X obj 197 481 v \$0-plsw;
#X msg 169 508 \$1 4 pulse_width;
#X obj 80 441 clip 0 1;
#X connect 0 0 21 0;
#X connect 1 1 5 0;
#X connect 2 1 6 0;
#X connect 3 1 7 0;
#X connect 4 1 8 0;
#X connect 5 0 11 0;
#X connect 5 0 14 0;
#X connect 6 0 10 0;
#X connect 6 0 14 0;
#X connect 7 0 13 0;
#X connect 7 0 14 0;
#X connect 8 0 12 0;
#X connect 8 0 14 0;
#X connect 9 0 26 0;
#X connect 10 0 18 0;
#X connect 11 0 16 0;
#X connect 12 0 15 0;
#X connect 13 0 17 0;
#X connect 14 0 19 0;
#X connect 15 0 9 1;
#X connect 16 0 9 1;
#X connect 17 0 9 1;
#X connect 18 0 9 1;
#X connect 19 0 9 0;
#X connect 20 1 26 0;
#X connect 21 0 20 0;
#X connect 21 1 1 0;
#X connect 21 2 2 0;
#X connect 21 3 3 0;
#X connect 21 4 4 0;
#X connect 25 0 23 0;
#X connect 26 0 22 0;
#X connect 26 0 25 0;
#X connect 26 0 24 0;
#X restore 310 58 pd \$0-Pulsy;
#N canvas 193 247 1075 405 \$0-Ampy 0;
#X obj 158 -235 inlet;
#X obj 158 -133 route z;
#X obj 218 -135 route z;
#X obj 285 -138 route z;
#X obj 364 -131 route z;
#X obj 158 -108 tgl 15 0 empty empty empty 17 7 0 10 #fcfcfc #000000
#000000 0 1;
#X obj 218 -109 tgl 15 0 empty empty empty 17 7 0 10 #fcfcfc #000000
#000000 0 1;
#X obj 285 -111 tgl 15 0 empty empty empty 17 7 0 10 #fcfcfc #000000
#000000 0 1;
#X obj 364 -94 tgl 15 0 empty empty empty 17 7 0 10 #fcfcfc #000000
#000000 0 1;
#X obj 50 56 + 0.05;
#X obj 218 -48 sel 1;
#X obj 158 -33 sel 1;
#X obj 364 -30 sel 1;
#X obj 285 -33 sel 1;
#X obj 50 -13 metro 50;
#X msg 364 -1 0.01;
#X msg 158 -4 -0.01;
#X msg 285 -4 0.001;
#X msg 218 -19 -0.001;
#X obj 50 14 v \$0-ampl;
#X obj 158 -206 route amplitude amplitude-- amplitude- amplitude+ amplitude++
, f 38;
#X obj 22 -90 route z;
#X obj 51 180 outlet;
#X obj 141 192 s udpOUT2;
#X msg 141 163 \$1 4 amplitude;
#X obj 169 136 v \$0-ampl;
#X obj 51 93 clip 0 1;
#X connect 0 0 20 0;
#X connect 1 1 5 0;
#X connect 2 1 6 0;
#X connect 3 1 7 0;
#X connect 4 1 8 0;
#X connect 5 0 11 0;
#X connect 5 0 14 0;
#X connect 6 0 10 0;
#X connect 6 0 14 0;
#X connect 7 0 13 0;
#X connect 7 0 14 0;
#X connect 8 0 12 0;
#X connect 8 0 14 0;
#X connect 9 0 26 0;
#X connect 10 0 18 0;
#X connect 11 0 16 0;
#X connect 12 0 15 0;
#X connect 13 0 17 0;
#X connect 14 0 19 0;
#X connect 15 0 9 1;
#X connect 16 0 9 1;
#X connect 17 0 9 1;
#X connect 18 0 9 1;
#X connect 19 0 9 0;
#X connect 20 0 21 0;
#X connect 20 1 1 0;
#X connect 20 2 2 0;
#X connect 20 3 3 0;
#X connect 20 4 4 0;
#X connect 21 1 26 0;
#X connect 24 0 23 0;
#X connect 26 0 22 0;
#X connect 26 0 24 0;
#X connect 26 0 25 0;
#X restore 409 58 pd \$0-Ampy;
#N canvas 78 44 585 651 \$0-AmpOffy 0;
#X obj 207 107 inlet;
#X obj 207 209 route z;
#X obj 267 207 route z;
#X obj 334 204 route z;
#X obj 413 211 route z;
#X obj 207 234 tgl 15 0 empty empty empty 17 7 0 10 #fcfcfc #000000
#000000 0 1;
#X obj 267 233 tgl 15 0 empty empty empty 17 7 0 10 #fcfcfc #000000
#000000 0 1;
#X obj 334 231 tgl 15 0 empty empty empty 17 7 0 10 #fcfcfc #000000
#000000 0 1;
#X obj 413 248 tgl 15 0 empty empty empty 17 7 0 10 #fcfcfc #000000
#000000 0 1;
#X obj 99 398 + 0.05;
#X obj 267 294 sel 1;
#X obj 207 309 sel 1;
#X obj 413 312 sel 1;
#X obj 334 309 sel 1;
#X obj 99 329 metro 50;
#X msg 413 341 0.01;
#X msg 207 338 -0.01;
#X msg 334 338 0.001;
#X msg 267 323 -0.001;
#X obj 99 356 v \$0-ampo;
#X obj 44 219 route z;
#X obj 207 136 route amp_offset amp_offset-- amp_offset- amp_offset+
amp_offset++, f 38;
#X obj 45 552 outlet;
#X obj 135 564 s udpOUT2;
#X msg 135 535 \$1 4 amp_offset;
#X obj 163 508 v \$0-ampo;
#X obj 45 465 clip -1 1;
#X connect 0 0 21 0;
#X connect 1 1 5 0;
#X connect 2 1 6 0;
#X connect 3 1 7 0;
#X connect 4 1 8 0;
#X connect 5 0 11 0;
#X connect 5 0 14 0;
#X connect 6 0 10 0;
#X connect 6 0 14 0;
#X connect 7 0 13 0;
#X connect 7 0 14 0;
#X connect 8 0 12 0;
#X connect 8 0 14 0;
#X connect 9 0 26 0;
#X connect 10 0 18 0;
#X connect 11 0 16 0;
#X connect 12 0 15 0;
#X connect 13 0 17 0;
#X connect 14 0 19 0;
#X connect 15 0 9 1;
#X connect 16 0 9 1;
#X connect 17 0 9 1;
#X connect 18 0 9 1;
#X connect 19 0 9 0;
#X connect 20 1 26 0;
#X connect 21 0 20 0;
#X connect 21 1 1 0;
#X connect 21 2 2 0;
#X connect 21 3 3 0;
#X connect 21 4 4 0;
#X connect 24 0 23 0;
#X connect 26 0 22 0;
#X connect 26 0 24 0;
#X connect 26 0 25 0;
#X restore 492 55 pd \$0-AmpOffy;
#X msg 641 92 l-r \$1;
#X msg 716 88 inv \$1;
#N canvas 428 185 826 479 \$0-WF-LR-INV 0;
#X obj 21 15 inlet;
#X floatatom 70 159 5 0 0 0 - - -, f 5;
#X obj 655 106 tgl 32 0 invert_wf empty invert_wf -15 37 0 10 #fcfcfc
#000000 #0b9e00 0 1;
#X floatatom 159 170 5 0 0 0 - - -, f 5;
#N canvas 502 347 680 676 \$0-WFsel 0;
#X obj 161 72 inlet;
#X obj 262 523 outlet;
#X obj 294 136 list split 1;
#X obj 170 102 list split 1;
#X obj 216 183 list fromsymbol;
#X obj 264 345 unpack;
#X obj 269 374 - 48;
#X obj 318 377 - 48;
#X obj 269 447 +;
#X floatatom 269 476 5 0 0 0 - - -, f 5;
#X obj 242 243 list length;
#X obj 219 285 list prepend;
#X obj 216 212 t a a;
#X obj 219 314 route 1 2;
#X obj 269 403 * 10;
#X obj 208 356 - 48;
#X obj 71 112 route z;
#X connect 0 0 16 0;
#X connect 2 0 4 0;
#X connect 3 1 2 0;
#X connect 4 0 12 0;
#X connect 5 0 6 0;
#X connect 5 1 7 0;
#X connect 6 0 14 0;
#X connect 7 0 8 1;
#X connect 8 0 9 0;
#X connect 9 0 1 0;
#X connect 10 0 11 1;
#X connect 11 0 13 0;
#X connect 12 0 11 0;
#X connect 12 1 10 0;
#X connect 13 0 15 0;
#X connect 13 1 5 0;
#X connect 14 0 8 0;
#X connect 15 0 9 0;
#X connect 16 1 3 0;
#X restore 39 129 pd \$0-WFsel;
#N canvas 426 643 680 658 \$0-LR-tgl 0;
#X obj 161 22 inlet;
#X obj 254 489 outlet;
#X obj 294 86 list split 1;
#X obj 170 52 list split 1;
#X obj 216 133 list fromsymbol;
#X obj 264 295 unpack;
#X obj 269 324 - 48;
#X obj 318 327 - 48;
#X obj 269 397 +;
#X floatatom 269 426 5 0 0 0 - - -, f 5;
#X obj 242 193 list length;
#X obj 219 235 list prepend;
#X obj 216 162 t a a;
#X obj 219 264 route 1 2;
#X obj 269 353 * 10;
#X obj 208 306 - 48;
#X obj 71 62 route z;
#X obj 269 454 - 1;
#X connect 0 0 16 0;
#X connect 2 0 4 0;
#X connect 3 1 2 0;
#X connect 4 0 12 0;
#X connect 5 0 6 0;
#X connect 5 1 7 0;
#X connect 6 0 14 0;
#X connect 7 0 8 1;
#X connect 8 0 9 0;
#X connect 9 0 17 0;
#X connect 10 0 11 1;
#X connect 11 0 13 0;
#X connect 12 0 11 0;
#X connect 12 1 10 0;
#X connect 13 0 15 0;
#X connect 13 1 5 0;
#X connect 14 0 8 0;
#X connect 15 0 9 0;
#X connect 16 1 3 0;
#X connect 17 0 1 0;
#X restore 136 135 pd \$0-LR-tgl;
#X obj 21 216 outlet;
#X obj 156 197 outlet;
#X msg 381 243 2 1;
#X msg 412 243 -2 -1;
#X obj 381 204 sel 0 1;
#X obj 382 161 r invert_wf;
#X obj 380 274 s inv-wf;
#X obj 290 233 outlet;
#X obj 281 113 route z;
#X obj 571 260 outlet;
#X obj 527 149 route z;
#X msg 621 211 \$1 4 toggleONOFF;
#X obj 621 240 s udpOUT2;
#X msg 663 182 \$1 clock dsp_tgl;
#X obj 24 52 route wf_sel lr_tgl inv_tgl toggleONOFF dsp_tgl, f 89
;
#X connect 0 0 20 0;
#X connect 4 0 1 0;
#X connect 4 0 6 0;
#X connect 5 0 3 0;
#X connect 5 0 7 0;
#X connect 8 0 12 0;
#X connect 9 0 12 0;
#X connect 10 0 8 0;
#X connect 10 1 9 0;
#X connect 11 0 10 0;
#X connect 14 1 2 0;
#X connect 14 1 13 0;
#X connect 16 1 15 0;
#X connect 16 1 17 0;
#X connect 16 1 19 0;
#X connect 17 0 18 0;
#X connect 19 0 18 0;
#X connect 20 0 4 0;
#X connect 20 1 5 0;
#X connect 20 2 14 0;
#X connect 20 3 16 0;
#X connect 20 4 16 0;
#X restore 598 58 pd \$0-WF-LR-INV;
#N canvas 256 206 450 400 \$0-bpm_2_Hz 0;
#X obj 42 32 inlet;
#X obj 42 233 outlet;
#X obj 44 68 route frequency_mtgl, f 89;
#N canvas 612 197 680 279 \$0-tempoFrq 0;
#X obj 252 -580 inlet;
#X obj 224 4 outlet;
#X obj 385 -516 list split 1;
#X obj 306 -545 list split 1;
#X obj 307 -469 list fromsymbol;
#X obj 355 -307 unpack;
#X obj 360 -278 - 48;
#X obj 409 -275 - 48;
#X obj 360 -205 +;
#X floatatom 360 -176 5 0 0 0 - - -, f 5;
#X obj 333 -409 list length;
#X obj 310 -367 list prepend;
#X obj 307 -440 t a a;
#X obj 310 -338 route 1 2;
#X obj 360 -249 * 10;
#X obj 299 -296 - 48;
#X obj 162 -540 route z;
#X obj 156 -458 list fromsymbol;
#X obj 156 -429 - 48;
#X floatatom 108 -407 5 0 0 0 - - -, f 5;
#X obj 156 -371 * -1;
#X floatatom 120 -146 5 0 0 0 - - -, f 5;
#X obj 156 -400 - 10;
#X obj 196 -262 - 1;
#X obj 196 -233 * 4;
#X floatatom 196 -204 5 0 0 0 - - -, f 5;
#X obj 249 -187 +;
#X obj 186 -140 moses 17;
#X floatatom 455 -81 5 0 0 0 - - -, f 5;
#X obj 455 -53 - 16;
#X obj 455 -24 expr 1/$f1;
#X floatatom 455 5 5 0 0 0 - - -, f 5;
#X obj 284 -126 sel 33 34 35 36;
#X msg 284 -97 24, f 2;
#X msg 366 -92 64, f 2;
#X msg 340 -92 48, f 2;
#X msg 314 -95 32, f 2;
#X obj 156 -319 - 5;
#X obj 156 -295 * -1;
#X obj 156 -342 moses 5;
#X floatatom 101 -19 5 0 0 2 toFREQfromTEMPO toFREQfromTEMPO -, f
5;
#X connect 0 0 16 0;
#X connect 2 0 4 0;
#X connect 3 0 17 0;
#X connect 3 1 2 0;
#X connect 4 0 12 0;
#X connect 5 0 6 0;
#X connect 5 1 7 0;
#X connect 6 0 14 0;
#X connect 7 0 8 1;
#X connect 8 0 9 0;
#X connect 9 0 26 1;
#X connect 10 0 11 1;
#X connect 11 0 13 0;
#X connect 12 0 11 0;
#X connect 12 1 10 0;
#X connect 13 0 15 0;
#X connect 13 1 5 0;
#X connect 14 0 8 0;
#X connect 15 0 9 0;
#X connect 16 1 3 0;
#X connect 17 0 18 0;
#X connect 18 0 19 0;
#X connect 18 0 22 0;
#X connect 20 0 39 0;
#X connect 22 0 20 0;
#X connect 23 0 24 0;
#X connect 24 0 25 0;
#X connect 24 0 26 0;
#X connect 26 0 21 0;
#X connect 26 0 27 0;
#X connect 27 0 1 0;
#X connect 27 1 32 0;
#X connect 28 0 29 0;
#X connect 29 0 30 0;
#X connect 30 0 31 0;
#X connect 30 0 1 0;
#X connect 32 0 33 0;
#X connect 32 1 36 0;
#X connect 32 2 35 0;
#X connect 32 3 34 0;
#X connect 32 4 28 0;
#X connect 33 0 28 0;
#X connect 34 0 28 0;
#X connect 35 0 28 0;
#X connect 36 0 28 0;
#X connect 37 0 38 0;
#X connect 38 0 23 0;
#X connect 39 0 37 0;
#X connect 39 1 23 0;
#X restore 42 102 pd \$0-tempoFrq;
#X floatatom 276 110 5 0 0 2 BPM clockBPM -, f 5;
#X obj 128 162 pack;
#X floatatom 42 131 5 0 0 0 - - -, f 5;
#X floatatom 128 220 5 0 0 0 - - -, f 5;
#X obj 276 138 * 0.0166667;
#X floatatom 276 167 5 0 0 0 - - -, f 5;
#X obj 128 191 expr $f2/$f1;
#X obj 250 275 s udpOUT2;
#X obj 276 202 v \$0-freq;
#X obj 185 124 t b f;
#X msg 250 246 \$1 wfGen freq_gui;
#X connect 0 0 2 0;
#X connect 2 0 3 0;
#X connect 3 0 5 0;
#X connect 3 0 6 0;
#X connect 4 0 8 0;
#X connect 5 0 10 0;
#X connect 8 0 9 0;
#X connect 8 0 13 0;
#X connect 10 0 7 0;
#X connect 10 0 1 0;
#X connect 10 0 12 0;
#X connect 10 0 14 0;
#X connect 13 0 5 0;
#X connect 13 1 5 1;
#X connect 14 0 11 0;
#X restore 93 7 pd \$0-bpm_2_Hz;
#X msg 790 95 tgl \$1;
#X connect 0 0 1 0;
#X connect 0 0 9 0;
#X connect 0 0 10 0;
#X connect 0 0 12 0;
#X connect 0 0 11 0;
#X connect 0 0 15 0;
#X connect 0 0 16 0;
#X connect 1 0 3 0;
#X connect 3 0 2 0;
#X connect 4 0 2 0;
#X connect 5 0 2 0;
#X connect 6 0 2 0;
#X connect 7 0 2 0;
#X connect 8 0 2 0;
#X connect 9 0 7 0;
#X connect 10 0 6 0;
#X connect 11 0 4 0;
#X connect 12 0 5 0;
#X connect 13 0 2 0;
#X connect 14 0 2 0;
#X connect 15 0 8 0;
#X connect 15 1 13 0;
#X connect 15 2 14 0;
#X connect 15 3 17 0;
#X connect 16 0 3 0;
#X connect 17 0 2 0;
#X restore 400 90 pd \$0-modstuffOSC;
#X obj 167 178 hradio 30 0 0 2 \$0-sndl-r \$0-rcvl-r L-R -21 14 0 10
#fcfcfc #000000 #39ca0f 0;
#X obj 234 220 r \$0-param-in;
#X text 234 186 sv2 = SAVED SPACE;
#X obj 508 298 s \$0-rcvsvsnmb;
#X obj 234 247 route wf frq vol aos tgl pos pwm l-r inv sv2;
#X obj 549 70 inlet;
#X text 551 45 CLOCK;
#X obj 518 143 bng 42 250 50 0 empty empty empty 17 7 0 10 #fcfcfc
#000000 #000000;
#X floatatom 549 99 5 0 0 3 pULSE - #0-CLOCKpULSE, f 5;
#X text 234 166 inv = INVERT WF;
#X obj 478 273 s \$0-rcvinv;
#N canvas 303 44 670 651 \$0-waveforming 0;
#X obj 639 214 cnv 15 151 433 empty empty empty 20 12 0 14 #404040
#404040 0;
#X obj 165 210 cnv 15 151 433 empty empty empty 20 12 0 14 #404040
#404040 0;
#X obj 485 210 cnv 15 151 433 empty empty empty 20 12 0 14 #404040
#404040 0;
#X obj 325 210 cnv 15 151 433 empty empty empty 20 12 0 14 #404040
#404040 0;
#X obj 7 210 cnv 15 151 433 empty empty empty 20 12 0 14 #404040 #404040
0;
#X obj 387 533 tgl 15 0 empty saw-tgl empty -15 24 0 10 #fcfcfc #000000
#22923f 0 1;
#X obj 7 648 cnv 15 636 300 empty empty empty 20 12 0 14 #404040 #404040
0;
#X obj 7 7 cnv 15 637 196 empty empty empty 20 12 0 14 #404040 #404040
0;
#X obj 512 80 metro 100;
#X obj 512 58 loadbang;
#X obj 178 509 *~ 2;
#X obj 178 532 -~ 1;
#X obj 213 674 *~, f 2;
#X obj 485 104 tabwrite~ waveform;
#X obj 341 457 *~ 2;
#X obj 341 482 -~ 1;
#X obj 503 550 spigot~;
#X obj 178 396 >~ 0.5;
#X floatatom 217 374 4 0 0 1 PW #0-pwm -, f 4;
#X obj 295 786 s~ wf_graph;
#X obj 485 32 r~ wf_graph;
#X obj 18 436 min~;
#X obj 43 390 *~ -1;
#X obj 43 413 +~ 1;
#X obj 18 539 *~ 4;
#X obj 18 563 -~ 1;
#X obj 18 600 spigot~;
#X obj 341 550 spigot~;
#X obj 178 560 spigot~;
#X obj 175 171 s wsin;
#X obj 29 171 s wtri;
#X obj 126 171 s wsaw;
#X obj 78 171 s wsqr;
#X obj 18 222 r wtri;
#X obj 18 276 phasor~;
#X obj 502 222 r wsin;
#X obj 340 222 r wsaw;
#X obj 178 222 r wsqr;
#X obj 178 276 phasor~;
#X obj 340 276 phasor~;
#X symbolatom 149 14 9 0 0 1 sel_WF selected_WF -, f 9;
#X floatatom 302 655 5 0 0 1 volume #0-vol -, f 5;
#X obj 64 573 tgl 15 0 empty tri-tgl empty -25 19 0 10 #fcfcfc #000000
#22923f 0 1;
#X obj 549 533 tgl 15 0 empty sin-tgl empty -15 24 0 10 #fcfcfc #000000
#22923f 0 1;
#X obj 224 543 tgl 15 0 empty sqr-tgl empty -15 24 0 10 #fcfcfc #000000
#22923f 0 1;
#X obj 366 423 unpack;
#X obj 56 64 v freq;
#X obj 340 345 wrap~;
#X obj 178 345 wrap~;
#X obj 18 345 wrap~;
#X floatatom 520 302 3 0 0 1 - phase_offset -, f 3;
#X obj 29 102 pack f s;
#X msg 29 125 \$2 \$1;
#X obj 502 405 cos~;
#X obj 502 276 phasor~;
#X obj 502 322 +~;
#X floatatom 358 302 3 0 0 1 - phase_offset -, f 3;
#X obj 340 322 +~;
#X floatatom 196 302 3 0 0 1 - phase_offset -, f 3;
#X obj 178 322 +~;
#X floatatom 36 302 3 0 0 1 - phase_offset -, f 3;
#X obj 18 322 +~;
#X obj 502 345 wrap~;
#X msg 572 256 0, f 1;
#X floatatom 405 457 3 0 0 0 - - -, f 3;
#X obj 366 47 tgl 32 0 invert_wf empty invert_wf -15 37 0 10 #fcfcfc
#000000 #0b9e00 0 1;
#X obj 28 19 r \$0-frq;
#X floatatom 17 60 5 0 0 0 - - -, f 5;
#X obj 366 398 r inv-wf;
#X obj 203 472 unpack;
#X floatatom 242 496 3 0 0 0 - - -, f 3;
#X obj 203 450 r inv-wf;
#X obj 83 489 unpack;
#X floatatom 122 513 3 0 0 0 - - -, f 3;
#X obj 83 467 r inv-wf;
#X obj 83 518 * 2;
#X obj 218 704 +~;
#X obj 283 683 r \$0-aos;
#X obj 149 42 t b s;
#X floatatom 593 257 5 0 0 2 pos #0-pos -, f 5;
#X obj 213 840 spigot~;
#X obj 259 823 tgl 15 0 empty \$0-l-r empty 17 7 0 10 #fcfcfc #000000
#1b7e29 0 1;
#X obj 212 882 dac~, f 6;
#X obj 703 536 tgl 15 0 empty noi-tgl empty -25 19 0 10 #fcfcfc #000000
#22923f 0 1;
#X obj 657 554 spigot~;
#X obj 29 149 route tri sqr saw sin noi;
#X obj 241 170 s wnoi;
#X obj 656 226 r wnoi;
#X obj 656 280 noise~;
#X obj 417 813 r~ filterjs;
#X obj 212 749 spigot~;
#X obj 258 732 tgl 15 0 empty \$0-tgl empty 17 7 0 10 #fcfcfc #000000
#1b7e29 0 1;
#X obj 43 821 r~ LFOjs;
#X connect 5 0 27 1;
#X connect 8 0 13 0;
#X connect 9 0 8 0;
#X connect 10 0 11 0;
#X connect 11 0 28 0;
#X connect 12 0 76 0;
#X connect 14 0 15 0;
#X connect 15 0 27 0;
#X connect 16 1 12 0;
#X connect 17 0 10 0;
#X connect 18 0 17 1;
#X connect 20 0 13 0;
#X connect 21 0 24 0;
#X connect 22 0 23 0;
#X connect 23 0 21 1;
#X connect 24 0 25 0;
#X connect 25 0 26 0;
#X connect 26 1 12 0;
#X connect 27 1 12 0;
#X connect 28 1 12 0;
#X connect 33 0 34 0;
#X connect 34 0 61 0;
#X connect 35 0 54 0;
#X connect 36 0 39 0;
#X connect 37 0 38 0;
#X connect 38 0 59 0;
#X connect 39 0 57 0;
#X connect 40 0 78 0;
#X connect 41 0 12 1;
#X connect 42 0 26 1;
#X connect 43 0 16 1;
#X connect 44 0 28 1;
#X connect 45 0 14 1;
#X connect 45 1 64 0;
#X connect 46 0 51 0;
#X connect 47 0 14 0;
#X connect 48 0 17 0;
#X connect 49 0 22 0;
#X connect 49 0 21 0;
#X connect 50 0 55 1;
#X connect 51 0 52 0;
#X connect 52 0 85 0;
#X connect 53 0 16 0;
#X connect 54 0 55 0;
#X connect 55 0 62 0;
#X connect 56 0 57 1;
#X connect 57 0 47 0;
#X connect 58 0 59 1;
#X connect 59 0 48 0;
#X connect 60 0 61 1;
#X connect 61 0 49 0;
#X connect 62 0 53 0;
#X connect 63 0 34 1;
#X connect 63 0 38 1;
#X connect 63 0 39 1;
#X connect 63 0 54 1;
#X connect 64 0 15 1;
#X connect 66 0 67 0;
#X connect 66 0 46 0;
#X connect 66 0 51 0;
#X connect 68 0 45 0;
#X connect 69 0 10 1;
#X connect 69 1 70 0;
#X connect 70 0 11 1;
#X connect 71 0 69 0;
#X connect 72 0 75 0;
#X connect 72 1 73 0;
#X connect 73 0 25 1;
#X connect 74 0 72 0;
#X connect 75 0 24 1;
#X connect 76 0 90 0;
#X connect 77 0 76 1;
#X connect 78 0 46 0;
#X connect 78 1 51 1;
#X connect 79 0 54 1;
#X connect 79 0 39 1;
#X connect 79 0 38 1;
#X connect 79 0 34 1;
#X connect 80 0 82 0;
#X connect 80 1 82 1;
#X connect 81 0 80 1;
#X connect 83 0 84 1;
#X connect 84 1 12 0;
#X connect 85 0 30 0;
#X connect 85 1 32 0;
#X connect 85 2 31 0;
#X connect 85 3 29 0;
#X connect 85 4 86 0;
#X connect 87 0 88 0;
#X connect 88 0 84 0;
#X connect 89 0 82 1;
#X connect 90 1 19 0;
#X connect 90 1 80 0;
#X connect 91 0 90 1;
#X connect 92 0 82 0;
#X restore 400 68 pd \$0-waveforming;
#X obj 139 221 tgl 28 1 \$0-sndwf_noi \$0-rcvwf_noi NOISE 1 12 0 9
#fcfcfc #fcfcfc #000000 0 1;
#X msg 463 166 \$0;
#X floatatom 463 195 5 0 0 0 - - -, f 5;
#X obj 361 206 r wfg_in;
#N canvas 149 408 450 283 \$0-autosave 0;
#X msg 27 170 menusave;
#X obj 27 105 tgl 15 0 empty empty empty 17 7 0 10 #fcfcfc #000000
#000000 1 1;
#X obj 27 130 metro 1000;
#X msg 114 84 5;
#X obj 114 107 * 60000;
#X floatatom 114 129 8 0 0 0 - - -, f 8;
#X obj 27 7 loadbang;
#X obj 27 76 t b b;
#X obj 27 36 del 2000;
#X obj 27 199 s pd-wf-generator22-2.pd;
#X connect 0 0 9 0;
#X connect 1 0 2 0;
#X connect 2 0 0 0;
#X connect 3 0 4 0;
#X connect 4 0 5 0;
#X connect 4 0 2 1;
#X connect 6 0 8 0;
#X connect 7 0 1 0;
#X connect 7 1 3 0;
#X connect 8 0 7 0;
#X restore 401 24 pd \$0-autosave;
#X connect 37 0 40 0;
#X connect 40 0 25 0;
#X connect 40 1 26 0;
#X connect 40 2 27 0;
#X connect 40 3 28 0;
#X connect 40 4 24 0;
#X connect 40 5 29 0;
#X connect 40 6 30 0;
#X connect 40 7 31 0;
#X connect 40 8 46 0;
#X connect 40 9 39 0;
#X connect 41 0 43 0;
#X connect 41 0 44 0;
#X connect 49 0 50 0;
#X connect 51 0 40 0;
#X coords 0 -1 1 1 210 436 1 18 25;
