#N canvas 1677 264 631 676 10;
#X obj 108 116 hsl 128 14 0 127 0 1 \$0-sndstp \$0-rcvstp STEPS -2
-6 0 12 #fcfcfc #000000 #000000 6300 1;
#X obj 238 116 nbx 2 14 1 32 0 0 \$0-sndstpnmb \$0-rcvstpnmb empty
0 -8 0 12 #fcfcfc #000000 #000000 16 256 0;
#X obj 108 146 hsl 128 14 0 127 0 0 \$0-sndbts \$0-rcvbts BEATS -2
-6 0 12 #fcfcfc #000000 #000000 0 1;
#X obj 238 146 nbx 2 14 0 16 0 0 \$0-sndbtsnmb \$0-rcvbtsnmb empty
0 -8 0 12 #fcfcfc #000000 #000000 0 256 0;
#X obj 108 176 hsl 128 14 0 127 0 0 \$0-sndrte \$0-rcvrte ROTATE -2
-6 0 12 #fcfcfc #000000 #000000 0 1;
#X obj 238 176 nbx 2 14 0 16 0 0 \$0-sndrtenmb \$0-rcvrtenmb empty
0 -8 0 12 #fcfcfc #000000 #000000 0 256 0;
#X obj 108 206 hsl 128 14 0 127 0 1 \$0-sndvel \$0-rcvvel VELOCITY
-2 -6 0 12 #fcfcfc #000000 #000000 2600 1;
#X obj 238 206 nbx 3 14 0 127 0 0 \$0-sndvelnmb \$0-rcvvelnmb empty
0 -8 0 12 #fcfcfc #000000 #000000 26 256 0;
#X obj 108 456 hsl 128 14 0 127 0 0 \$0-sndacc \$0-rcvacc ACCENTS -2
-6 0 12 #fcfcfc #000000 #000000 0 1;
#X obj 238 456 nbx 2 14 0 0 0 0 \$0-sndaccnmb \$0-rcvaccnmb empty 0
-8 0 12 #fcfcfc #000000 #000000 0 256 0;
#X obj 238 486 nbx 2 14 0 0 0 0 \$0-sndartnmb \$0-rcvartnmb empty 0
-8 0 12 #fcfcfc #000000 #000000 0 256 0;
#X obj 108 516 hsl 128 14 0 127 0 1 \$0-sndavl \$0-rcvavl ACCENT VELOCITY
-2 -6 0 12 #fcfcfc #000000 #000000 2600 1;
#X obj 238 516 nbx 3 14 0 127 0 0 \$0-sndavlnmb \$0-rcvavlnmb empty
0 -8 0 12 #fcfcfc #000000 #000000 26 256 0;
#X obj 143 426 hradio 14 1 1 9 \$0-sndspd \$0-rcvspd SPEED 1/1 0 -6
0 12 #fcfcfc #000000 #000000 0;
#N canvas 145 444 789 337 \$0-circle 0;
#X obj 180 95 r 1020-tgl0;
#X obj 208 101 r 1020-tgl1;
#X obj 233 117 r 1020-tgl2;
#X obj 249 142 r 1020-tgl3;
#X obj 255 170 r 1020-tgl4;
#X obj 249 198 r 1020-tgl5;
#X obj 233 223 r 1020-tgl6;
#X obj 208 239 r 1020-tgl7;
#X obj 180 245 r 1020-tgl8;
#X obj 152 239 r 1020-tgl9;
#X obj 127 223 r 1020-tgl10;
#X obj 111 198 r 1020-tgl11;
#X obj 105 170 r 1020-tgl12;
#X obj 111 142 r 1020-tgl13;
#X obj 127 117 r 1020-tgl14;
#X obj 152 101 r 1020-tgl15;
#X obj 180 105 tgl 15 0 empty empty empty 17 7 0 10 #fcfcfc #000000
#fcfcfc 0 1;
#X obj 208 111 tgl 15 0 empty empty empty 17 7 0 10 #fcfcfc #000000
#fcfcfc 0 1;
#X obj 233 127 tgl 15 0 empty empty empty 17 7 0 10 #fcfcfc #000000
#fcfcfc 0 1;
#X obj 249 152 tgl 15 0 empty empty empty 17 7 0 10 #fcfcfc #000000
#fcfcfc 0 1;
#X obj 255 180 tgl 15 0 empty empty empty 17 7 0 10 #fcfcfc #000000
#fcfcfc 0 1;
#X obj 249 208 tgl 15 0 empty empty empty 17 7 0 10 #fcfcfc #000000
#fcfcfc 0 1;
#X obj 233 233 tgl 15 0 empty empty empty 17 7 0 10 #fcfcfc #000000
#fcfcfc 0 1;
#X obj 208 249 tgl 15 0 empty empty empty 17 7 0 10 #fcfcfc #000000
#fcfcfc 0 1;
#X obj 180 255 tgl 15 0 empty empty empty 17 7 0 10 #fcfcfc #000000
#fcfcfc 0 1;
#X obj 152 249 tgl 15 0 empty empty empty 17 7 0 10 #fcfcfc #000000
#fcfcfc 0 1;
#X obj 127 233 tgl 15 0 empty empty empty 17 7 0 10 #fcfcfc #000000
#fcfcfc 0 1;
#X obj 111 208 tgl 15 0 empty empty empty 17 7 0 10 #fcfcfc #000000
#fcfcfc 0 1;
#X obj 105 180 tgl 15 0 empty empty empty 17 7 0 10 #fcfcfc #000000
#fcfcfc 0 1;
#X obj 111 152 tgl 15 0 empty empty empty 17 7 0 10 #fcfcfc #000000
#fcfcfc 0 1;
#X obj 127 127 tgl 15 0 empty empty empty 17 7 0 10 #fcfcfc #000000
#fcfcfc 0 1;
#X obj 152 111 tgl 15 0 empty empty empty 17 7 0 10 #fcfcfc #000000
#fcfcfc 0 1;
#X connect 0 0 16 0;
#X connect 1 0 17 0;
#X connect 2 0 18 0;
#X connect 3 0 19 0;
#X connect 4 0 20 0;
#X connect 5 0 21 0;
#X connect 6 0 22 0;
#X connect 7 0 23 0;
#X connect 8 0 24 0;
#X connect 9 0 25 0;
#X connect 10 0 26 0;
#X connect 11 0 27 0;
#X connect 12 0 28 0;
#X connect 13 0 29 0;
#X connect 14 0 30 0;
#X connect 15 0 31 0;
#X coords 0 -1 1 1 175 175 2 100 100;
#X restore 105 230 pd \$0-circle;
#X obj 105 412 tgl 28 1 \$0-sndtgl \$0-rcvtgl ON 6 15 0 14 #000000
#000000 #fcfcfc 1 1;
#X obj 108 485 hsl 128 14 0 127 0 0 \$0-sndart \$0-rcvart ACCENT ROTATE
-2 -6 0 12 #fcfcfc #000000 #000000 0 1;
#N canvas 265 334 638 980 \$0-tabwrite 0;
#X obj 12 12 table \$0-eucbts 32;
#X obj 12 34 table \$0-eucacc 32;
#X obj 336 44 r \$0-stp;
#X obj 359 88 t b f;
#X obj 359 132 i;
#X obj 391 132 + 1;
#X obj 359 154 sel;
#X obj 359 176 t b b;
#X msg 377 193 0;
#X obj 12 56 table \$0-btsacc 32;
#X obj 438 171 *;
#X obj 438 193 %;
#X obj 438 215 <;
#X obj 434 19 r \$0-bts;
#X obj 438 149 t f f;
#X obj 438 237 pack, f 5;
#X obj 438 259 tabwrite \$0-eucbts;
#X obj 391 154 - 1;
#X obj 359 110 until;
#X obj 175 132 t b f;
#X obj 175 176 i;
#X obj 207 176 + 1;
#X obj 175 198 sel;
#X obj 175 220 t b b;
#X msg 193 237 0;
#X obj 254 215 +;
#X obj 254 237 *;
#X obj 254 259 %;
#X obj 254 281 <;
#X obj 175 110 t f f;
#X obj 254 193 t f f;
#X obj 254 303 pack, f 5;
#X obj 207 198 - 1;
#X obj 175 154 until;
#X obj 310 105 t b f;
#X obj 310 127 -;
#X obj 226 115 r \$0-acc;
#X obj 152 66 r \$0-art;
#X obj 254 325 tabwrite \$0-eucacc;
#X obj 207 220 max 0;
#X obj 434 41 t b f b f;
#X obj 336 66 t f f f;
#X obj 108 105 t b f;
#X obj 108 149 i;
#X obj 140 149 + 1;
#X obj 108 171 sel;
#X obj 108 193 t b b;
#X msg 126 210 0;
#X obj 140 171 - 1;
#X obj 108 127 until;
#X obj 101 296 sel 1;
#X obj 108 83 t f b;
#X msg 140 301 0;
#X obj 69 428 pack;
#X obj 69 450 tabwrite \$0-btsacc;
#X obj 101 318 i;
#X obj 131 318 + 1;
#X obj 101 340 tabread \$0-eucacc;
#X obj 226 137 t b b f;
#X obj 152 88 t b b f;
#X obj 23 257 tabread \$0-eucbts;
#X obj 24 226 t f f;
#X obj 23 279 t f f;
#X obj 101 362 + 1;
#X obj 23 379 *;
#X obj 254 345 r \$0-rte;
#X obj 94 384 +;
#X obj 94 406 %;
#X obj 254 367 t b b f;
#X obj 73 713 tabread \$0-eucbts;
#X obj 188 712 tabread \$0-eucacc;
#X obj 290 415 bng 56 250 50 0 empty empty empty 17 7 0 10 #fcfcfc
#000000 #000000;
#X obj 290 479 i;
#X obj 325 479 + 1;
#X msg 430 432 0;
#X obj 308 712 tabread \$0-btsacc;
#X msg 413 580 1;
#X msg 454 580 2;
#X msg 493 580 3;
#X obj 290 594 pack;
#X msg 290 619 \$2 \$1;
#X obj 290 644 route 1 2 3;
#X floatatom 73 738 5 0 0 0 - - -, f 5;
#X floatatom 188 737 5 0 0 0 - - -, f 5;
#X floatatom 308 737 5 0 0 0 - - -, f 5;
#X floatatom 290 534 5 0 0 0 - - -, f 5;
#X obj 350 505 mod 16;
#X floatatom 350 536 5 0 0 0 - - -, f 5;
#X floatatom 422 621 5 0 0 0 - - -, f 5;
#X connect 2 0 41 0;
#X connect 3 0 18 0;
#X connect 3 1 17 0;
#X connect 4 0 5 0;
#X connect 4 0 6 0;
#X connect 4 0 14 0;
#X connect 5 0 4 1;
#X connect 6 0 7 0;
#X connect 7 0 8 0;
#X connect 7 1 18 1;
#X connect 8 0 4 1;
#X connect 10 0 11 0;
#X connect 11 0 12 0;
#X connect 12 0 15 0;
#X connect 13 0 40 0;
#X connect 14 0 10 0;
#X connect 14 1 15 1;
#X connect 15 0 16 0;
#X connect 17 0 6 1;
#X connect 18 0 4 0;
#X connect 19 0 33 0;
#X connect 19 1 32 0;
#X connect 20 0 21 0;
#X connect 20 0 22 0;
#X connect 20 0 30 0;
#X connect 21 0 20 1;
#X connect 22 0 23 0;
#X connect 23 0 24 0;
#X connect 23 1 33 1;
#X connect 24 0 20 1;
#X connect 25 0 26 0;
#X connect 26 0 27 0;
#X connect 27 0 28 0;
#X connect 28 0 31 0;
#X connect 29 0 19 0;
#X connect 29 1 27 1;
#X connect 29 1 35 0;
#X connect 30 0 25 0;
#X connect 30 1 31 1;
#X connect 31 0 38 0;
#X connect 32 0 39 0;
#X connect 33 0 20 0;
#X connect 34 0 35 0;
#X connect 34 1 35 1;
#X connect 35 0 25 1;
#X connect 36 0 58 0;
#X connect 37 0 59 0;
#X connect 39 0 22 1;
#X connect 40 1 29 0;
#X connect 40 2 18 0;
#X connect 40 3 10 1;
#X connect 40 3 12 1;
#X connect 41 0 51 0;
#X connect 41 1 3 0;
#X connect 41 2 11 1;
#X connect 41 2 67 1;
#X connect 42 0 49 0;
#X connect 42 1 48 0;
#X connect 43 0 44 0;
#X connect 43 0 45 0;
#X connect 43 0 61 0;
#X connect 44 0 43 1;
#X connect 45 0 46 0;
#X connect 46 0 47 0;
#X connect 46 1 49 1;
#X connect 47 0 43 1;
#X connect 48 0 45 1;
#X connect 49 0 43 0;
#X connect 50 0 55 0;
#X connect 51 0 42 0;
#X connect 51 1 52 0;
#X connect 52 0 55 1;
#X connect 53 0 54 0;
#X connect 55 0 56 0;
#X connect 55 0 57 0;
#X connect 56 0 55 1;
#X connect 57 0 63 0;
#X connect 58 0 49 0;
#X connect 58 1 33 0;
#X connect 58 1 52 0;
#X connect 58 2 26 1;
#X connect 58 2 28 1;
#X connect 59 0 49 0;
#X connect 59 1 33 0;
#X connect 59 1 52 0;
#X connect 59 2 34 0;
#X connect 60 0 62 0;
#X connect 61 0 60 0;
#X connect 61 1 66 0;
#X connect 62 0 64 0;
#X connect 62 1 50 0;
#X connect 63 0 64 1;
#X connect 64 0 53 0;
#X connect 65 0 68 0;
#X connect 66 0 67 0;
#X connect 67 0 53 1;
#X connect 68 0 49 0;
#X connect 68 1 52 0;
#X connect 68 2 66 1;
#X connect 69 0 82 0;
#X connect 70 0 83 0;
#X connect 71 0 72 0;
#X connect 72 0 73 0;
#X connect 72 0 86 0;
#X connect 73 0 72 1;
#X connect 74 0 72 1;
#X connect 75 0 84 0;
#X connect 76 0 79 1;
#X connect 76 0 88 0;
#X connect 77 0 79 1;
#X connect 77 0 88 0;
#X connect 78 0 79 1;
#X connect 78 0 88 0;
#X connect 79 0 80 0;
#X connect 80 0 81 0;
#X connect 81 0 69 0;
#X connect 81 1 70 0;
#X connect 81 2 75 0;
#X connect 85 0 79 0;
#X connect 86 0 87 0;
#X connect 87 0 79 0;
#X restore 100 53 pd \$0-tabwrite;
#N canvas 319 44 876 651 \$0-sliders 0;
#X obj 251 11 r \$0-sndspd;
#X obj 251 239 symbol;
#X obj 251 283 s \$0-rcvspd;
#X msg 251 261 label SPEED \$1;
#X obj 12 11 r \$0-sndtgl;
#X msg 12 55 ON;
#X msg 115 55 OFF;
#X obj 12 121 symbol;
#X msg 12 143 label \$1;
#X obj 12 165 s \$0-rcvtgl;
#X msg 12 77 color 22 22 0;
#X msg 115 77 color 0 0 22;
#X msg 12 99 label_pos 6 15;
#X msg 115 99 label_pos 2 15;
#X obj 421 11 r \$0-sndstp;
#X obj 421 33 / 127;
#X obj 421 99 i;
#X obj 421 143 s \$0-rcvstpnmb;
#X obj 528 11 r \$0-sndstpnmb;
#X obj 528 33 / 32;
#X obj 528 55 * 127;
#X obj 528 77 i;
#X msg 421 121 set \$1;
#X msg 528 99 set \$1;
#X obj 528 121 s \$0-rcvstp;
#X obj 421 208 / 127;
#X obj 421 230 *;
#X obj 722 60 r \$0-stp;
#X obj 421 252 + 0.5;
#X obj 421 274 i;
#X msg 421 296 set \$1;
#X obj 421 318 s \$0-rcvbtsnmb;
#X obj 571 197 r \$0-sndbtsnmb;
#X obj 572 230 /;
#X obj 722 82 t b f f;
#X obj 572 252 * 127;
#X obj 572 274 i;
#X msg 572 296 set \$1;
#X obj 572 318 s \$0-rcvbts;
#X obj 421 186 r \$0-sndbts;
#X obj 421 384 / 127;
#X obj 421 406 *;
#X obj 507 367 r \$0-stp;
#X obj 421 428 + 0.5;
#X obj 421 450 i;
#X msg 421 472 set \$1;
#X obj 572 406 /;
#X obj 507 389 t b f f;
#X obj 572 428 * 127;
#X obj 572 450 i;
#X msg 572 472 set \$1;
#X obj 421 362 r \$0-sndrte;
#X obj 421 494 s \$0-rcvrtenmb;
#X obj 572 384 r \$0-sndrtenmb;
#X obj 572 494 s \$0-rcvrte;
#X obj 679 230 pack f \$0;
#X msg 679 252 \; \$2-rcvbtsnmb range 0 \$1;
#X obj 679 406 pack f \$0;
#X msg 679 428 \; \$2-rcvrtenmb range 0 \$1;
#X obj 421 560 / 127;
#X obj 421 582 *;
#X obj 421 604 + 0.5;
#X obj 421 626 i;
#X msg 421 648 set \$1;
#X obj 572 582 /;
#X obj 507 565 t b f f;
#X obj 572 604 * 127;
#X obj 572 626 i;
#X msg 572 648 set \$1;
#X obj 421 736 / 127;
#X obj 421 758 *;
#X obj 421 780 + 0.5;
#X obj 421 802 i;
#X msg 421 824 set \$1;
#X obj 572 758 /;
#X obj 507 741 t b f f;
#X obj 572 780 * 127;
#X obj 572 802 i;
#X msg 572 824 set \$1;
#X obj 679 582 pack f \$0;
#X obj 679 758 pack f \$0;
#X obj 421 538 r \$0-sndacc;
#X obj 421 670 s \$0-rcvaccnmb;
#X obj 572 670 s \$0-rcvacc;
#X obj 572 560 r \$0-sndaccnmb;
#X msg 679 604 \; \$2-rcvaccnmb range 0 \$1;
#X obj 507 543 r \$0-bts;
#X obj 507 719 r \$0-bts;
#X obj 421 714 r \$0-sndart;
#X obj 421 846 s \$0-rcvartnmb;
#X obj 572 846 s \$0-rcvart;
#X obj 572 736 r \$0-sndartnmb;
#X msg 679 780 \; \$2-rcvartnmb range 0 \$1;
#X obj 12 213 r \$0-sndvel;
#X msg 12 235 set \$1;
#X obj 12 257 s \$0-rcvvelnmb;
#X msg 119 235 set \$1;
#X obj 119 213 r \$0-sndvelnmb;
#X obj 119 257 s \$0-rcvvel;
#X obj 179 230 s \$0-vel;
#X msg 12 306 set \$1;
#X msg 119 306 set \$1;
#X obj 12 284 r \$0-sndavl;
#X obj 12 328 s \$0-rcvavlnmb;
#X obj 119 284 r \$0-sndavlnmb;
#X obj 179 301 s \$0-avl;
#X obj 119 328 s \$0-rcvavl;
#X msg 251 55 1/1;
#X msg 267 76 2/1;
#X obj 421 55 * 31;
#X obj 421 77 + 1;
#X obj 646 160 s \$0-stp;
#X obj 690 335 s \$0-bts;
#X obj 690 511 s \$0-rte;
#X obj 690 687 s \$0-acc;
#X obj 690 863 s \$0-art;
#X obj 614 181 s \$0-guistp;
#X obj 658 357 s \$0-guibts;
#X obj 658 533 s \$0-guirte;
#X obj 658 709 s \$0-guiacc;
#X obj 658 885 s \$0-guiart;
#X obj 614 138 t f f;
#X obj 658 313 t f f;
#X obj 658 489 t f f;
#X obj 658 665 t f f;
#X obj 658 841 t f f;
#X obj 658 291 f;
#X obj 614 116 f;
#X obj 658 467 f;
#X obj 658 643 f;
#X obj 658 819 f;
#X msg 283 98 3/1;
#X msg 299 120 4/1;
#X msg 315 142 6/1;
#X msg 331 162 8/1;
#X msg 347 182 9/1;
#X msg 363 202 12/1;
#X msg 379 222 16/1;
#X obj 251 33 sel 0 1 2 3 4 5 6 7 8;
#X obj 12 33 sel 1 0, f 30;
#X connect 0 0 138 0;
#X connect 1 0 3 0;
#X connect 3 0 2 0;
#X connect 4 0 139 0;
#X connect 5 0 7 0;
#X connect 6 0 7 0;
#X connect 7 0 8 0;
#X connect 8 0 9 0;
#X connect 10 0 9 0;
#X connect 11 0 9 0;
#X connect 12 0 9 0;
#X connect 13 0 9 0;
#X connect 14 0 15 0;
#X connect 15 0 109 0;
#X connect 16 0 22 0;
#X connect 16 0 127 0;
#X connect 18 0 19 0;
#X connect 18 0 127 0;
#X connect 19 0 20 0;
#X connect 20 0 21 0;
#X connect 21 0 23 0;
#X connect 22 0 17 0;
#X connect 23 0 24 0;
#X connect 25 0 26 0;
#X connect 26 0 28 0;
#X connect 27 0 34 0;
#X connect 28 0 29 0;
#X connect 29 0 30 0;
#X connect 29 0 126 0;
#X connect 30 0 31 0;
#X connect 32 0 33 0;
#X connect 32 0 126 0;
#X connect 33 0 35 0;
#X connect 34 0 26 0;
#X connect 34 1 26 1;
#X connect 34 2 55 0;
#X connect 34 2 33 1;
#X connect 35 0 36 0;
#X connect 36 0 37 0;
#X connect 37 0 38 0;
#X connect 39 0 25 0;
#X connect 40 0 41 0;
#X connect 41 0 43 0;
#X connect 42 0 47 0;
#X connect 43 0 44 0;
#X connect 44 0 45 0;
#X connect 44 0 128 0;
#X connect 45 0 52 0;
#X connect 46 0 48 0;
#X connect 47 0 41 0;
#X connect 47 1 41 1;
#X connect 47 2 46 1;
#X connect 47 2 57 0;
#X connect 48 0 49 0;
#X connect 49 0 50 0;
#X connect 50 0 54 0;
#X connect 51 0 40 0;
#X connect 53 0 46 0;
#X connect 53 0 128 0;
#X connect 55 0 56 0;
#X connect 57 0 58 0;
#X connect 59 0 60 0;
#X connect 60 0 61 0;
#X connect 61 0 62 0;
#X connect 62 0 63 0;
#X connect 62 0 129 0;
#X connect 63 0 82 0;
#X connect 64 0 66 0;
#X connect 65 0 60 0;
#X connect 65 1 60 1;
#X connect 65 2 64 1;
#X connect 65 2 79 0;
#X connect 66 0 67 0;
#X connect 67 0 68 0;
#X connect 68 0 83 0;
#X connect 69 0 70 0;
#X connect 70 0 71 0;
#X connect 71 0 72 0;
#X connect 72 0 73 0;
#X connect 72 0 130 0;
#X connect 73 0 89 0;
#X connect 74 0 76 0;
#X connect 75 0 70 0;
#X connect 75 1 70 1;
#X connect 75 2 74 1;
#X connect 75 2 80 0;
#X connect 76 0 77 0;
#X connect 77 0 78 0;
#X connect 78 0 90 0;
#X connect 79 0 85 0;
#X connect 80 0 92 0;
#X connect 81 0 59 0;
#X connect 84 0 64 0;
#X connect 84 0 129 0;
#X connect 86 0 65 0;
#X connect 87 0 75 0;
#X connect 88 0 69 0;
#X connect 91 0 74 0;
#X connect 91 0 130 0;
#X connect 93 0 94 0;
#X connect 93 0 99 0;
#X connect 94 0 95 0;
#X connect 96 0 98 0;
#X connect 97 0 96 0;
#X connect 97 0 99 0;
#X connect 100 0 103 0;
#X connect 101 0 106 0;
#X connect 102 0 100 0;
#X connect 102 0 105 0;
#X connect 104 0 101 0;
#X connect 104 0 105 0;
#X connect 107 0 1 0;
#X connect 108 0 1 0;
#X connect 109 0 110 0;
#X connect 110 0 16 0;
#X connect 121 0 116 0;
#X connect 121 1 111 0;
#X connect 122 0 117 0;
#X connect 122 1 112 0;
#X connect 123 0 118 0;
#X connect 123 1 113 0;
#X connect 124 0 119 0;
#X connect 124 1 114 0;
#X connect 125 0 120 0;
#X connect 125 1 115 0;
#X connect 126 0 122 0;
#X connect 127 0 121 0;
#X connect 128 0 123 0;
#X connect 129 0 124 0;
#X connect 130 0 125 0;
#X connect 131 0 1 0;
#X connect 132 0 1 0;
#X connect 133 0 1 0;
#X connect 134 0 1 0;
#X connect 135 0 1 0;
#X connect 136 0 1 0;
#X connect 137 0 1 0;
#X connect 138 0 107 0;
#X connect 138 1 108 0;
#X connect 138 2 131 0;
#X connect 138 3 132 0;
#X connect 138 4 133 0;
#X connect 138 5 134 0;
#X connect 138 6 135 0;
#X connect 138 7 136 0;
#X connect 138 8 137 0;
#X connect 139 0 5 0;
#X connect 139 0 10 0;
#X connect 139 0 12 0;
#X connect 139 1 6 0;
#X connect 139 1 11 0;
#X connect 139 1 13 0;
#X restore 100 33 pd \$0-sliders;
#N canvas 895 23 677 541 \$0-guicircle 0;
#X obj 545 479 s pd-\$0-circle;
#X obj 285 330 cos;
#X obj 329 330 sin;
#X obj 285 137 until;
#X obj 285 159 i;
#X obj 317 159 + 1;
#X obj 285 203 t b b;
#X msg 303 220 0;
#X obj 340 225 /;
#X obj 285 242 *;
#X obj 285 308 t f f;
#X obj 285 374 i;
#X obj 329 374 i;
#X obj 285 418 pack f f;
#X msg 285 462 obj \$1 \$2 tgl;
#X obj 317 181 - 1;
#X msg 545 248 clear;
#X obj 285 286 - 1.57079;
#X obj 285 264 * 6.28319;
#X msg 340 203 1 \$1;
#X obj 285 181 sel;
#X msg 155 462 connect \$1 0 \$2 0;
#X obj 155 242 t f f;
#X obj 192 264 +;
#X obj 155 281 pack;
#X obj 294 115 t b f f;
#X obj 155 137 until;
#X obj 155 159 i;
#X obj 187 159 + 1;
#X obj 155 203 t b b;
#X msg 173 220 0;
#X obj 187 181 - 1;
#X obj 155 181 sel;
#X obj 164 115 t b f f;
#X msg 387 462 obj \$1 \$2 r \$4-tgl\$3;
#X obj 387 440 pack f f f \$0;
#X obj 390 352 cos;
#X obj 434 352 sin;
#X obj 390 137 until;
#X obj 390 159 i;
#X obj 422 159 + 1;
#X obj 390 203 t b b;
#X msg 408 220 0;
#X obj 445 247 /;
#X obj 390 264 *;
#X obj 390 330 t f f;
#X obj 390 396 i;
#X obj 434 396 i;
#X obj 422 181 - 1;
#X obj 390 308 - 1.57079;
#X obj 390 286 * 6.28319;
#X msg 445 225 1 \$1;
#X obj 390 181 sel;
#X obj 399 115 t b f f;
#X obj 471 76 r \$0-guistp;
#X obj 285 395 + 180;
#X obj 329 396 + 180;
#X obj 285 352 * 75;
#X obj 329 352 * 75;
#X obj 390 374 * 75;
#X obj 434 374 * 75;
#X obj 390 418 + 180;
#X obj 434 418 + 170;
#X obj 471 98 t f f f f b;
#X obj 12 159 i;
#X obj 44 159 + 1;
#X obj 12 181 sel;
#X obj 12 203 t b b;
#X msg 30 220 0;
#X obj 44 181 - 1;
#X obj 12 137 until;
#X obj 12 309 tabread \$0-btsacc;
#X obj 12 331 sel 0 1 2;
#X msg 12 353 color 0 0;
#X msg 32 373 color 11 11;
#X msg 52 393 color 22 22;
#X obj 12 454 s;
#X obj 49 415 pack f \$0;
#X msg 49 437 symbol \$2-tgl\$1;
#X obj 390 242 t f f;
#X obj 12 93 bang;
#X obj 12 11 r \$0-guibts;
#X obj 12 31 r \$0-guirte;
#X obj 12 51 r \$0-guiacc;
#X obj 12 71 r \$0-guiart;
#X obj 21 115 t b f f;
#X obj 12 242 t f f;
#X connect 1 0 57 0;
#X connect 2 0 58 0;
#X connect 3 0 4 0;
#X connect 4 0 5 0;
#X connect 4 0 20 0;
#X connect 4 0 9 0;
#X connect 5 0 4 1;
#X connect 6 0 7 0;
#X connect 6 1 3 1;
#X connect 7 0 4 1;
#X connect 8 0 9 1;
#X connect 9 0 18 0;
#X connect 10 0 1 0;
#X connect 10 1 2 0;
#X connect 11 0 55 0;
#X connect 12 0 56 0;
#X connect 13 0 14 0;
#X connect 14 0 0 0;
#X connect 15 0 20 1;
#X connect 16 0 0 0;
#X connect 17 0 10 0;
#X connect 18 0 17 0;
#X connect 19 0 8 0;
#X connect 20 0 6 0;
#X connect 21 0 0 0;
#X connect 22 0 24 0;
#X connect 22 1 23 0;
#X connect 23 0 24 1;
#X connect 24 0 21 0;
#X connect 25 0 3 0;
#X connect 25 1 15 0;
#X connect 25 2 19 0;
#X connect 26 0 27 0;
#X connect 27 0 28 0;
#X connect 27 0 32 0;
#X connect 27 0 22 0;
#X connect 28 0 27 1;
#X connect 29 0 30 0;
#X connect 29 1 26 1;
#X connect 30 0 27 1;
#X connect 31 0 32 1;
#X connect 32 0 29 0;
#X connect 33 0 26 0;
#X connect 33 1 31 0;
#X connect 33 2 23 1;
#X connect 34 0 0 0;
#X connect 35 0 34 0;
#X connect 36 0 59 0;
#X connect 37 0 60 0;
#X connect 38 0 39 0;
#X connect 39 0 40 0;
#X connect 39 0 52 0;
#X connect 39 0 79 0;
#X connect 40 0 39 1;
#X connect 41 0 42 0;
#X connect 41 1 38 1;
#X connect 42 0 39 1;
#X connect 43 0 44 1;
#X connect 44 0 50 0;
#X connect 45 0 36 0;
#X connect 45 1 37 0;
#X connect 46 0 61 0;
#X connect 47 0 62 0;
#X connect 48 0 52 1;
#X connect 49 0 45 0;
#X connect 50 0 49 0;
#X connect 51 0 43 0;
#X connect 52 0 41 0;
#X connect 53 0 38 0;
#X connect 53 1 48 0;
#X connect 53 2 51 0;
#X connect 54 0 63 0;
#X connect 55 0 13 0;
#X connect 56 0 13 1;
#X connect 57 0 11 0;
#X connect 58 0 12 0;
#X connect 59 0 46 0;
#X connect 60 0 47 0;
#X connect 61 0 35 0;
#X connect 62 0 35 1;
#X connect 63 0 85 0;
#X connect 63 1 33 0;
#X connect 63 2 25 0;
#X connect 63 3 53 0;
#X connect 63 4 16 0;
#X connect 64 0 65 0;
#X connect 64 0 66 0;
#X connect 64 0 86 0;
#X connect 65 0 64 1;
#X connect 66 0 67 0;
#X connect 67 0 68 0;
#X connect 67 1 70 1;
#X connect 68 0 64 1;
#X connect 69 0 66 1;
#X connect 70 0 64 0;
#X connect 71 0 72 0;
#X connect 72 0 73 0;
#X connect 72 1 74 0;
#X connect 72 2 75 0;
#X connect 73 0 76 0;
#X connect 74 0 76 0;
#X connect 75 0 76 0;
#X connect 77 0 78 0;
#X connect 78 0 76 1;
#X connect 79 0 44 0;
#X connect 79 1 35 2;
#X connect 80 0 70 0;
#X connect 81 0 80 0;
#X connect 82 0 80 0;
#X connect 83 0 80 0;
#X connect 84 0 80 0;
#X connect 85 0 70 0;
#X connect 85 1 69 0;
#X connect 86 0 71 0;
#X connect 86 1 77 0;
#X restore 100 73 pd \$0-guicircle;
#X obj 305 458 %;
#X obj 364 441 r \$0-guistp;
#X obj 305 409 i;
#X obj 305 431 change;
#X obj 452 316 r \$0-sndspd;
#X obj 305 387 /;
#X obj 452 338 sel 0 1 2 3 4 5 6 7 8;
#X msg 452 360 1;
#X msg 468 382 2;
#X msg 484 360 3;
#X msg 500 382 4;
#X msg 516 360 6;
#X msg 580 360 16;
#X msg 532 382 8;
#X msg 548 360 9;
#X msg 564 382 12;
#X obj 305 187 inlet;
#X obj 305 332 spigot;
#X obj 341 300 r \$0-sndtgl;
#X text 305 167 CLOCK;
#X obj 592 209 inlet;
#X obj 592 231 route stp bts rte vel tgl spd acc art avl;
#X obj 592 253 s \$0-rcvstpnmb;
#X obj 623 273 s \$0-rcvbtsnmb;
#X obj 655 293 s \$0-rcvrtenmb;
#X obj 686 313 s \$0-rcvvelnmb;
#X obj 718 253 s \$0-rcvtgl;
#X obj 749 273 s \$0-rcvspd;
#X obj 781 293 s \$0-rcvaccnmb;
#X obj 812 313 s \$0-rcvartnmb;
#X obj 824 253 s \$0-rcvavlnmb;
#X text 592 189 PARAMETERS;
#X text 600 43 stp = STEPS;
#X text 600 58 bts = BEATS;
#X text 600 73 rte = ROTATE;
#X text 600 88 vel = VELOCITY;
#X text 600 103 tgl = TOGGLE ON/OFF;
#X text 600 118 spd = SPEED;
#X text 600 133 acc = ACCENTS;
#X text 600 148 art = ACCENT ROTATE;
#X text 600 163 avl = ACCENT VELOCITY;
#X text 600 23 PARAMETERS;
#X obj 448 295 loadbang;
#N canvas 718 76 450 676 \$0-beatsConf 0;
#X msg 27 159 bts \$1;
#X obj 27 184 s \$0-toParameters;
#X floatatom 31 62 5 0 0 2 tOSC-BEATS #0-toscBEATS -, f 5;
#X floatatom 335 158 5 0 0 3 faderScaler2 - #0-faderScaler2, f 5;
#X msg 142 144 \$1 eucBeats;
#X obj 142 171 s udpOUT2;
#X floatatom 309 36 5 0 0 2 faderScaler #0-faderScaler -, f 5;
#X obj 327 117 / 127;
#X obj 309 60 t b f;
#X connect 0 0 1 0;
#X connect 2 0 4 0;
#X connect 2 0 0 0;
#X connect 4 0 5 0;
#X connect 6 0 8 0;
#X connect 7 0 3 0;
#X restore 308 69 pd \$0-beatsConf;
#N canvas 569 24 638 676 \$0-stepbiz 0;
#X floatatom 174 156 5 0 0 3 #0-step-ext - #0-step-ext, f 5;
#X msg 49 300 stp \$1;
#X obj 49 333 s \$0-toParameters;
#X obj 165 265 s udpOUT2;
#X floatatom 174 105 5 0 0 2 #0-step-ext #0-step-ext -, f 5;
#X msg 165 240 \$1 eucSteps;
#X floatatom 57 125 5 0 0 2 tOSC-STEPS #0-toscSTEPS -, f 5;
#X obj 300 144 / 127;
#X floatatom 300 173 5 0 0 1 faderScaler - #0-faderScaler, f 5;
#X connect 1 0 2 0;
#X connect 5 0 3 0;
#X connect 6 0 1 0;
#X connect 6 0 0 0;
#X connect 6 0 5 0;
#X connect 7 0 8 0;
#X restore 308 50 pd \$0-stepbiz;
#N canvas 779 44 638 651 \$0-Rotate+Velocity 0;
#X obj 351 225 i;
#X floatatom 404 252 5 0 0 0 - - -, f 5;
#X msg 43 331 rte \$1;
#X msg 102 331 vel \$1;
#X obj 43 397 s \$0-toParameters;
#X floatatom 351 83 5 0 0 2 tOSC-VELOCITY #0-toscVELOCITY -, f 5;
#X floatatom 43 54 5 0 0 2 tOSC-ROTATE #0-toscROTATE -, f 5;
#X floatatom 193 81 5 0 0 2 faderScaler #0-faderScaler -, f 5;
#X msg 349 347 \$1 eucVelocity;
#X msg 403 297 \$1 6 fader96;
#X obj 351 396 s udpOUT2;
#X obj 193 105 t b f;
#X msg 248 348 \$1 eucRotate;
#X obj 43 148 clip 0;
#X floatatom 103 163 5 0 0 0 - - -, f 5;
#X floatatom 105 117 5 0 0 2 tOSC-STEPS #0-toscSTEPS -, f 5;
#X connect 0 0 1 0;
#X connect 0 0 3 0;
#X connect 0 0 8 0;
#X connect 2 0 4 0;
#X connect 3 0 4 0;
#X connect 5 0 0 0;
#X connect 6 0 13 0;
#X connect 7 0 11 0;
#X connect 8 0 10 0;
#X connect 12 0 10 0;
#X connect 13 0 14 0;
#X connect 13 0 12 0;
#X connect 13 0 2 0;
#X connect 15 0 13 2;
#X restore 308 88 pd \$0-Rotate+Velocity;
#N canvas 839 325 403 395 \$0-tgl+speed 0;
#X msg 29 193 tgl \$1;
#X msg 186 113 spd \$1;
#X obj 29 350 s \$0-toParameters;
#X floatatom 29 52 5 0 0 2 tOSC-TGL #0-toscTGL -, f 5;
#X floatatom 186 52 2 0 0 2 tOSC-SPEED #0-toscSPEED -, f 2;
#X obj 182 342 s udpOUT2;
#X msg 182 293 \$1 eucOnOff;
#X obj 182 198 sel 1 0;
#X msg 182 227 ON;
#X msg 230 227 OFF;
#X obj 182 256 t s;
#X connect 0 0 2 0;
#X connect 1 0 2 0;
#X connect 3 0 0 0;
#X connect 3 0 7 0;
#X connect 4 0 1 0;
#X connect 6 0 5 0;
#X connect 7 0 8 0;
#X connect 7 1 9 0;
#X connect 8 0 10 0;
#X connect 9 0 10 0;
#X connect 10 0 6 0;
#X restore 308 107 pd \$0-tgl+speed;
#N canvas 642 133 638 562 \$0-Accents 0;
#X msg 24 144 acc \$1;
#X msg 98 144 art \$1;
#X obj 380 80 i;
#X floatatom 411 101 5 0 0 0 - - -, f 5;
#X msg 150 144 avl \$1;
#X obj 24 188 s \$0-toParameters;
#X floatatom 168 26 5 0 0 2 tOSC-ACCENTROTATE #0-toscACCENTROTATE -
, f 5;
#X floatatom 24 26 5 0 0 2 tOSC-ACCENT #0-toscACCENT -, f 5;
#X obj 207 193 s udpOUT2;
#X floatatom 380 48 5 0 0 2 tOSC-ACCENTVELOCITY #0-toscACCENTVELOCITY
-, f 5;
#X msg 348 144 \$1 eucAccV;
#X msg 207 144 \$1 eucAcc;
#X msg 277 144 \$1 eucAccR;
#X floatatom 289 30 5 0 0 2 tOSC-STEPS #0-toscSTEPS -, f 5;
#X floatatom 92 32 5 0 0 2 tOSC-BEATS #0-toscBEATS -, f 5;
#X floatatom 39 115 5 0 0 0 - - -, f 5;
#X obj 168 63 clip 0 16;
#X obj 24 60 clip 0 16;
#X connect 0 0 5 0;
#X connect 1 0 5 0;
#X connect 2 0 3 0;
#X connect 2 0 10 0;
#X connect 2 0 4 0;
#X connect 4 0 5 0;
#X connect 6 0 16 0;
#X connect 7 0 17 0;
#X connect 9 0 2 0;
#X connect 10 0 8 0;
#X connect 11 0 8 0;
#X connect 12 0 8 0;
#X connect 13 0 16 2;
#X connect 14 0 17 2;
#X connect 16 0 12 0;
#X connect 16 0 1 0;
#X connect 17 0 11 0;
#X connect 17 0 0 0;
#X connect 17 0 15 0;
#X restore 308 126 pd \$0-Accents;
#N canvas 363 167 599 407 \$0-modstuffOSC 0;
#X obj 10 12 r parsedOSC;
#X floatatom 123 101 5 0 0 3 tOSC-TGL - #0-toscTGL, f 5;
#X floatatom 31 281 5 0 0 3 tOSC-VELOCITY - #0-toscVELOCITY, f 5;
#X floatatom 110 288 5 0 0 3 tOSC-ACCENTVELOCITY - #0-toscACCENTVELOCITY
, f 5;
#X floatatom 336 203 5 0 0 0 - - -, f 5;
#N canvas 64 44 680 651 \$0-in_sel 0;
#X obj 68 11 inlet;
#X obj 63 371 outlet;
#X obj 131 82 list split 1;
#X obj 65 57 list split 1;
#X obj 186 113 list fromsymbol;
#X obj 234 245 unpack;
#X obj 239 274 - 48;
#X obj 288 277 - 48;
#X obj 239 347 +;
#X floatatom 239 376 5 0 0 0 - - -, f 5;
#X obj 212 153 list length;
#X obj 189 185 list prepend;
#X obj 186 132 t a a;
#X obj 189 214 route 1 2;
#X obj 239 303 * 10;
#X obj 178 256 - 48;
#X obj 68 32 route z;
#X connect 0 0 16 0;
#X connect 2 0 4 0;
#X connect 3 1 2 0;
#X connect 4 0 12 0;
#X connect 5 0 6 0;
#X connect 5 1 7 0;
#X connect 6 0 14 0;
#X connect 7 0 8 1;
#X connect 8 0 9 0;
#X connect 9 0 1 0;
#X connect 10 0 11 1;
#X connect 11 0 13 0;
#X connect 12 0 11 0;
#X connect 12 1 10 0;
#X connect 13 0 15 0;
#X connect 13 1 5 0;
#X connect 14 0 8 0;
#X connect 15 0 9 0;
#X connect 16 1 3 0;
#X restore 23 93 pd \$0-in_sel;
#X floatatom 23 118 5 0 0 3 input_modeL - #0-input-modeL, f 5;
#N canvas 616 103 623 543 \$0-grid_in 0;
#X obj 68 11 inlet;
#X obj 63 331 outlet;
#X obj 151 82 list split 1;
#X obj 65 57 list split 1;
#X obj 186 113 list fromsymbol;
#X obj 234 245 unpack;
#X obj 239 274 - 48;
#X obj 288 277 - 48;
#X obj 239 347 +;
#X floatatom 239 376 5 0 0 0 - - -, f 5;
#X obj 212 153 list length;
#X obj 189 185 list prepend;
#X obj 186 132 t a a;
#X obj 189 214 route 1 2;
#X obj 239 303 * 10;
#X obj 178 256 - 48;
#X obj 68 32 route z;
#X obj 65 104 list fromsymbol;
#X obj 65 133 - 48;
#X floatatom 16 151 5 0 0 0 - - -, f 5;
#X obj 65 272 +;
#X floatatom 12 289 5 0 0 0 - - -, f 5;
#X floatatom 15 210 5 0 0 0 - - -, f 5;
#X obj 65 193 * -8;
#X obj 65 168 - 4;
#X connect 0 0 16 0;
#X connect 2 0 4 0;
#X connect 3 0 17 0;
#X connect 3 1 2 0;
#X connect 4 0 12 0;
#X connect 5 0 6 0;
#X connect 5 1 7 0;
#X connect 6 0 14 0;
#X connect 7 0 8 1;
#X connect 8 0 9 0;
#X connect 9 0 20 1;
#X connect 10 0 11 1;
#X connect 11 0 13 0;
#X connect 12 0 11 0;
#X connect 12 1 10 0;
#X connect 13 0 15 0;
#X connect 13 1 5 0;
#X connect 14 0 8 0;
#X connect 15 0 9 0;
#X connect 16 1 3 0;
#X connect 17 0 18 0;
#X connect 18 0 19 0;
#X connect 18 0 24 0;
#X connect 20 0 21 0;
#X connect 20 0 1 0;
#X connect 23 0 22 0;
#X connect 23 0 20 0;
#X connect 24 0 23 0;
#X restore 297 186 pd \$0-grid_in;
#X floatatom 418 207 5 0 0 2 input_modeL #0-input-modeL -, f 5;
#X obj 297 241 pack;
#X msg 297 266 \$2 \$1;
#X obj 297 291 route 1 2 3 4;
#X floatatom 224 326 5 0 0 3 tOSC-BEATS - #0-toscBEATS, f 5;
#X floatatom 305 327 5 0 0 3 tOSC-ROTATE - #0-toscROTATE, f 5;
#X floatatom 460 327 5 0 0 3 tOSC-ACCENTROTATE - #0-toscACCENTROTATE
, f 5;
#X floatatom 383 320 5 0 0 3 tOSC-ACCENT - #0-toscACCENT, f 5;
#X obj 228 183 sel 1;
#X msg 228 201 0, f 1;
#X obj 17 55 route bts -- vel tgl1 --- --- avl fader99 toggle5 multipush21
push138 clk_tgl, f 75;
#X obj 426 124 tgl 15 0 \$0-clk_tgl empty clk_tgl 17 7 0 10 #fcfcfc
#000000 #000000 0 1;
#X obj 34 229 r tofilldrums;
#X obj 34 252 route 65 66;
#X obj 426 103 route z;
#X connect 0 0 18 0;
#X connect 5 0 6 0;
#X connect 7 0 4 0;
#X connect 7 0 9 0;
#X connect 8 0 9 1;
#X connect 9 0 10 0;
#X connect 10 0 11 0;
#X connect 11 0 12 0;
#X connect 11 1 13 0;
#X connect 11 2 15 0;
#X connect 11 3 14 0;
#X connect 16 0 17 0;
#X connect 17 0 9 0;
#X connect 18 0 5 0;
#X connect 18 3 1 0;
#X connect 18 9 7 0;
#X connect 18 10 16 0;
#X connect 18 11 22 0;
#X connect 20 0 21 0;
#X connect 21 0 2 0;
#X connect 21 1 3 0;
#X connect 22 1 19 0;
#X restore 308 31 pd \$0-modstuffOSC;
#N canvas 2 363 906 926 \$0-init 0;
#X obj 464 50 s lbng;
#X obj 518 50 r lbng;
#X obj 570 54 bng 15 250 50 0 empty empty empty 17 7 0 10 #fcfcfc #000000
#000000;
#X floatatom 421 354 3 0 0 3 one34 - all-134-loadbang, f 3;
#X msg 70 217 1;
#X floatatom 70 237 3 0 0 3 ch1 - all-1-loadbang, f 3;
#X msg 102 217 2;
#X floatatom 102 237 3 0 0 3 ch2 - all-2-loadbang, f 3;
#X floatatom 161 237 3 0 0 3 ch4 - all-4-loadbang, f 3;
#X floatatom 194 237 3 0 0 3 ch5 - all-5-loadbang, f 3;
#X floatatom 223 237 3 0 0 3 ch6 - all-6-loadbang, f 3;
#X floatatom 251 237 3 0 0 3 ch7 - all-7-loadbang, f 3;
#X floatatom 132 237 3 0 0 3 ch3 - all-3-loadbang, f 3;
#X msg 131 217 3;
#X msg 164 217 4;
#X msg 193 217 5;
#X msg 222 217 6;
#X msg 251 217 7;
#X floatatom 450 241 3 0 0 3 s64 - all-64-loadbang, f 3;
#X msg 450 219 64;
#X obj 397 74 bang;
#X obj 398 17 loadbang;
#X msg 280 217 8;
#X floatatom 280 237 3 0 0 3 e8t - all-8-loadbang, f 3;
#X msg 354 219 18;
#X floatatom 354 241 3 0 0 3 ch18 - all-18-loadbang, f 3;
#X floatatom 417 241 3 0 0 3 sq36 - all-36-loadbang, f 3;
#X floatatom 667 266 3 0 0 3 one35 - all-135-loadbang, f 3;
#X msg 667 244 135;
#X msg 386 219 24;
#X floatatom 386 241 3 0 0 3 ch24 - all-24-loadbang, f 3;
#X floatatom 484 241 3 0 0 3 ch72 - all-72-loadbang, f 3;
#X msg 484 219 72;
#X msg 16 214 0;
#X floatatom 16 236 3 0 0 3 ch0 - all-0-loadbang, f 3;
#X floatatom 894 370 3 0 0 3 all-128-loadbang - all-128-loadbang,
f 3;
#X floatatom 765 266 3 0 0 3 - - all-144-loadbang, f 3;
#X floatatom 517 240 3 0 0 3 ch75 - all-75-loadbang, f 3;
#X floatatom 559 240 3 0 0 3 ch76 - all-76-loadbang, f 3;
#X msg 517 218 75;
#X msg 559 218 76;
#X msg 724 242 128;
#X msg 765 244 144;
#X floatatom 863 270 3 0 0 3 one230 - all-230-loadbang, f 3;
#X msg 950 227 8192;
#X floatatom 950 275 6 0 0 3 pbSemitone - pbSemitone, f 6;
#X obj 950 251 / 12;
#X floatatom 1081 263 3 0 0 3 ch15 - all-15-loadbang, f 3;
#X obj 748 348 - 1;
#X floatatom 748 377 3 0 0 3 all-127-loadbang - all-127-loadbang,
f 3;
#X obj 499 331 + 16;
#X floatatom 499 360 3 0 0 3 one150 - all-150-loadbang, f 3;
#X msg 418 219 36;
#X msg 1081 234 15;
#X floatatom 1022 266 3 0 0 3 ch10 - all-10-loadbang, f 3;
#X msg 1022 237 10;
#X floatatom 652 368 3 0 0 3 one153 - all-153-loadbang, f 3;
#X obj 652 339 + 19;
#X floatatom 579 363 3 0 0 3 one137 - all-137-loadbang, f 3;
#X obj 579 334 + 3;
#X obj 287 43 bng 27 250 50 0 empty lbnglbngGUI initBanger 28 16 0
10 #fcfcfc #000000 #2ead20;
#X floatatom 314 266 3 0 0 3 ch14but20 - all-14-loadbang, f 3;
#X floatatom 151 303 1 0 0 1 LB1 only-one -, f 1;
#X obj 114 37 bng 30 250 50 0 lbnglbng empty LB 5 12 0 16 #fcfcfc #000000
#2c2c2c;
#X msg 18 146 0.5;
#X floatatom 18 175 3 0 0 3 lb0.5 - all-0.5-loadbang, f 3;
#X floatatom 22 279 2 0 0 2 - all-0-loadbang -, f 2;
#X msg 605 244 128;
#X floatatom 311 308 3 0 0 3 - all-14-loadbang -, f 3;
#X msg 314 222 14;
#X msg 863 235 224;
#X obj 15 86 tgl 25 0 tgl-print-1 empty print1 27 10 0 10 #fcfcfc #000000
#00d211 0 1;
#X floatatom 16 32 1 0 0 1 LB1 only-one -, f 1;
#X obj 16 60 del 1000;
#X floatatom 189 303 2 0 0 2 - all-0-loadbang -, f 2;
#X floatatom 44 173 3 0 0 3 - all-0.5-loadbang -, f 3;
#X floatatom 40 279 3 0 0 3 - all-0.5-loadbang -, f 3;
#X floatatom 70 279 3 0 0 3 - all-1-loadbang -, f 3;
#X connect 1 0 2 0;
#X connect 4 0 5 0;
#X connect 6 0 7 0;
#X connect 13 0 12 0;
#X connect 14 0 8 0;
#X connect 15 0 9 0;
#X connect 16 0 10 0;
#X connect 17 0 11 0;
#X connect 19 0 18 0;
#X connect 20 0 4 0;
#X connect 20 0 6 0;
#X connect 20 0 13 0;
#X connect 20 0 14 0;
#X connect 20 0 15 0;
#X connect 20 0 16 0;
#X connect 20 0 17 0;
#X connect 20 0 19 0;
#X connect 20 0 22 0;
#X connect 20 0 67 0;
#X connect 20 0 24 0;
#X connect 20 0 52 0;
#X connect 20 0 28 0;
#X connect 20 0 29 0;
#X connect 20 0 32 0;
#X connect 20 0 33 0;
#X connect 20 0 41 0;
#X connect 20 0 42 0;
#X connect 20 0 39 0;
#X connect 20 0 40 0;
#X connect 20 0 70 0;
#X connect 20 0 44 0;
#X connect 20 0 53 0;
#X connect 20 0 0 0;
#X connect 20 0 55 0;
#X connect 20 0 69 0;
#X connect 20 0 64 0;
#X connect 21 0 20 0;
#X connect 21 0 63 0;
#X connect 22 0 23 0;
#X connect 24 0 25 0;
#X connect 28 0 27 0;
#X connect 29 0 30 0;
#X connect 32 0 31 0;
#X connect 33 0 34 0;
#X connect 39 0 37 0;
#X connect 40 0 38 0;
#X connect 41 0 35 0;
#X connect 41 0 48 0;
#X connect 42 0 36 0;
#X connect 44 0 46 0;
#X connect 46 0 45 0;
#X connect 48 0 49 0;
#X connect 50 0 51 0;
#X connect 52 0 26 0;
#X connect 53 0 47 0;
#X connect 55 0 54 0;
#X connect 57 0 56 0;
#X connect 59 0 58 0;
#X connect 60 0 20 0;
#X connect 64 0 65 0;
#X connect 67 0 3 0;
#X connect 67 0 50 0;
#X connect 67 0 59 0;
#X connect 67 0 57 0;
#X connect 69 0 61 0;
#X connect 70 0 43 0;
#X connect 72 0 73 0;
#X connect 73 0 71 0;
#X restore 308 12 pd \$0-init;
#X obj 674 198 r \$0-toParameters;
#X floatatom 364 466 5 0 0 0 - - -, f 5;
#X floatatom 325 483 5 0 0 0 - - -, f 5;
#X obj 305 212 - 1;
#X floatatom 781 122 5 0 0 2 step_count step_count -, f 5;
#X floatatom 794 150 5 0 0 3 tOSC-STEPS - #0-toscSTEPS, f 5;
#N canvas 734 130 450 566 guistuffagai 0;
#X obj 43 156 tabread \$0-btsacc;
#X obj 43 134 t f f;
#X obj 171 151 pack f \$0;
#X msg 171 240 symbol \$2-tgl\$1;
#X obj 43 257 s;
#X obj 43 178 sel 0 1 2;
#X msg 43 200 color 0 0;
#X msg 63 220 color 11 11;
#X msg 83 240 color 22 22;
#X obj 43 112 i;
#X obj 43 90 t f b b f;
#X msg 83 134 color 10 10;
#X obj 31 20 inlet;
#X obj 106 344 tabread \$0-btsacc;
#X obj 106 366 sel 1 2, f 23;
#X obj 106 415 i;
#X obj 120 393 r \$0-vel;
#X obj 187 420 i;
#X obj 203 398 r \$0-avl;
#X text 100 460 VELOCITY;
#X text 163 457 ACCENT VELOCITY;
#N canvas 228 592 450 400 \$0-drumsout 0;
#X obj 71 -23 t b f b;
#X obj 247 13 t b f b;
#X msg 71 19 36;
#X msg 117 19 152;
#X obj 71 48 pack f f f;
#X msg 293 35 152;
#X msg 247 35 38;
#X obj 247 64 pack f f f;
#X obj 209 130 unpack f f f;
#X floatatom 323 150 5 0 0 0 - - -, f 5;
#X floatatom 361 150 5 0 0 0 - - -, f 5;
#X floatatom 400 150 5 0 0 0 - - -, f 5;
#X msg 209 104 \$2 \$1 \$3;
#X obj 208 194 midiout 2;
#X obj 69 -49 inlet;
#X obj 247 -20 inlet;
#X connect 0 0 2 0;
#X connect 0 1 4 1;
#X connect 0 2 3 0;
#X connect 1 0 6 0;
#X connect 1 1 7 1;
#X connect 1 2 5 0;
#X connect 2 0 4 0;
#X connect 3 0 4 2;
#X connect 4 0 12 0;
#X connect 5 0 7 2;
#X connect 6 0 7 0;
#X connect 7 0 12 0;
#X connect 8 0 9 0;
#X connect 8 0 13 0;
#X connect 8 1 10 0;
#X connect 8 1 13 0;
#X connect 8 2 11 0;
#X connect 8 2 13 0;
#X connect 12 0 8 0;
#X connect 14 0 0 0;
#X connect 15 0 1 0;
#X restore 106 439 pd \$0-drumsout;
#X floatatom 16 369 5 0 0 0 - - -, f 5;
#X connect 0 0 5 0;
#X connect 1 0 0 0;
#X connect 1 1 2 0;
#X connect 2 0 3 0;
#X connect 3 0 4 1;
#X connect 5 0 6 0;
#X connect 5 1 7 0;
#X connect 5 2 8 0;
#X connect 6 0 4 0;
#X connect 7 0 4 0;
#X connect 8 0 4 0;
#X connect 9 0 1 0;
#X connect 10 0 9 1;
#X connect 10 1 9 0;
#X connect 10 2 11 0;
#X connect 10 3 2 0;
#X connect 10 3 13 0;
#X connect 11 0 4 0;
#X connect 12 0 10 0;
#X connect 13 0 14 0;
#X connect 13 0 22 0;
#X connect 14 0 15 0;
#X connect 14 1 17 0;
#X connect 15 0 21 0;
#X connect 16 0 15 1;
#X connect 17 0 21 1;
#X connect 18 0 17 1;
#X restore 305 515 pd guistuffagai;
#X obj 463 88 r clk_tick;
#X obj 496 176 + 1;
#X obj 463 113 mod 12;
#X obj 463 138 sel 0;
#X obj 464 178 f;
#X obj 515 118 tgl 15 0 empty \$0-clk_tgl clk_tgl 20 5 0 10 #fcfcfc
#000000 #000000 0 1;
#X obj 515 141 sel 1;
#X floatatom 315 237 5 0 0 0 - - -, f 5;
#X obj 387 221 mod 16;
#X floatatom 387 246 5 0 0 0 - - -, f 5;
#X floatatom 507 226 5 0 0 2 step_count step_count -, f 5;
#N canvas 149 408 450 283 \$0-autosave 0;
#X msg 27 170 menusave;
#X obj 27 105 tgl 15 0 empty empty empty 17 7 0 10 #fcfcfc #000000
#000000 1 1;
#X obj 27 130 metro 1000;
#X msg 114 84 5;
#X obj 114 107 * 60000;
#X floatatom 114 129 8 0 0 0 - - -, f 8;
#X obj 27 7 loadbang;
#X obj 27 76 t b b;
#X obj 27 36 del 3000;
#X obj 27 199 s pd-eucdrums1.pd;
#X connect 0 0 9 0;
#X connect 1 0 2 0;
#X connect 2 0 0 0;
#X connect 3 0 4 0;
#X connect 4 0 5 0;
#X connect 4 0 2 1;
#X connect 6 0 8 0;
#X connect 7 0 1 0;
#X connect 7 1 3 0;
#X connect 8 0 7 0;
#X restore 431 12 pd \$0-autosave;
#X connect 20 0 72 0;
#X connect 20 0 76 0;
#X connect 21 0 20 1;
#X connect 21 0 71 0;
#X connect 22 0 23 0;
#X connect 23 0 20 0;
#X connect 24 0 26 0;
#X connect 25 0 22 0;
#X connect 26 0 27 0;
#X connect 26 1 28 0;
#X connect 26 2 29 0;
#X connect 26 3 30 0;
#X connect 26 4 31 0;
#X connect 26 5 33 0;
#X connect 26 6 34 0;
#X connect 26 7 35 0;
#X connect 26 8 32 0;
#X connect 27 0 25 1;
#X connect 28 0 25 1;
#X connect 29 0 25 1;
#X connect 30 0 25 1;
#X connect 31 0 25 1;
#X connect 32 0 25 1;
#X connect 33 0 25 1;
#X connect 34 0 25 1;
#X connect 35 0 25 1;
#X connect 36 0 73 0;
#X connect 37 0 25 0;
#X connect 38 0 37 1;
#X connect 40 0 41 0;
#X connect 41 0 42 0;
#X connect 41 1 43 0;
#X connect 41 2 44 0;
#X connect 41 3 45 0;
#X connect 41 4 46 0;
#X connect 41 5 47 0;
#X connect 41 6 48 0;
#X connect 41 7 49 0;
#X connect 41 8 50 0;
#X connect 62 0 27 0;
#X connect 70 0 41 0;
#X connect 73 0 37 0;
#X connect 73 0 84 0;
#X connect 74 0 75 0;
#X connect 77 0 79 0;
#X connect 78 0 81 1;
#X connect 79 0 80 0;
#X connect 80 0 81 0;
#X connect 81 0 78 0;
#X connect 81 0 85 0;
#X connect 82 0 83 0;
#X connect 83 1 81 1;
#X connect 85 0 86 0;
#X connect 87 0 85 1;
#X coords 0 -1 1 1 185 435 1 100 100;
