#N canvas 1738 308 638 651 10;
#X obj 108 116 hsl 128 14 0 127 0 1 \$0-sndstp \$0-rcvstp STEPS -2
-6 0 12 #fcfcfc #000000 #000000 6300 1;
#X obj 238 116 nbx 2 14 1 32 0 0 \$0-sndstpnmb \$0-rcvstpnmb empty
0 -8 0 12 #fcfcfc #000000 #000000 16 256 0;
#X obj 108 146 hsl 128 14 0 127 0 0 \$0-sndbts \$0-rcvbts BEATS -2
-6 0 12 #fcfcfc #000000 #000000 0 1;
#X obj 238 146 nbx 2 14 0 16 0 0 \$0-sndbtsnmb \$0-rcvbtsnmb empty
0 -8 0 12 #fcfcfc #000000 #000000 0 256 0;
#X obj 108 176 hsl 128 14 0 127 0 0 \$0-sndrte \$0-rcvrte ROTATE -2
-6 0 12 #fcfcfc #000000 #000000 0 1;
#X obj 238 176 nbx 2 14 0 16 0 0 \$0-sndrtenmb \$0-rcvrtenmb empty
0 -8 0 12 #fcfcfc #000000 #000000 0 256 0;
#X obj 108 206 hsl 128 14 0 127 0 1 \$0-sndvel \$0-rcvvel VELOCITY
-2 -6 0 12 #fcfcfc #000000 #000000 3100 1;
#X obj 238 206 nbx 3 14 0 127 0 0 \$0-sndvelnmb \$0-rcvvelnmb empty
0 -8 0 12 #fcfcfc #000000 #000000 31 256 0;
#X obj 108 456 hsl 128 14 0 127 0 0 \$0-sndacc \$0-rcvacc ACCENTS -2
-6 0 12 #fcfcfc #000000 #000000 0 1;
#X obj 238 456 nbx 2 14 0 0 0 0 \$0-sndaccnmb \$0-rcvaccnmb empty 0
-8 0 12 #fcfcfc #000000 #000000 0 256 0;
#X obj 238 486 nbx 2 14 0 0 0 0 \$0-sndartnmb \$0-rcvartnmb empty 0
-8 0 12 #fcfcfc #000000 #000000 0 256 0;
#X obj 108 516 hsl 128 14 0 127 0 1 \$0-sndavl \$0-rcvavl ACCENT VELOCITY
-2 -6 0 12 #fcfcfc #000000 #000000 5100 1;
#X obj 238 516 nbx 3 14 0 127 0 0 \$0-sndavlnmb \$0-rcvavlnmb empty
0 -8 0 12 #fcfcfc #000000 #000000 51 256 0;
#X obj 143 426 hradio 14 1 1 9 \$0-sndspd \$0-rcvspd SPEED 1/1 0 -6
0 12 #fcfcfc #000000 #000000 0;
#N canvas 145 444 789 337 \$0-circle 0;
#X obj 180 95 r 1013-tgl0;
#X obj 208 101 r 1013-tgl1;
#X obj 233 117 r 1013-tgl2;
#X obj 249 142 r 1013-tgl3;
#X obj 255 170 r 1013-tgl4;
#X obj 249 198 r 1013-tgl5;
#X obj 233 223 r 1013-tgl6;
#X obj 208 239 r 1013-tgl7;
#X obj 180 245 r 1013-tgl8;
#X obj 152 239 r 1013-tgl9;
#X obj 127 223 r 1013-tgl10;
#X obj 111 198 r 1013-tgl11;
#X obj 105 170 r 1013-tgl12;
#X obj 111 142 r 1013-tgl13;
#X obj 127 117 r 1013-tgl14;
#X obj 152 101 r 1013-tgl15;
#X obj 180 105 tgl 15 0 empty empty empty 17 7 0 10 #fcfcfc #000000
#fcfcfc 0 1;
#X obj 208 111 tgl 15 0 empty empty empty 17 7 0 10 #fcfcfc #000000
#fcfcfc 0 1;
#X obj 233 127 tgl 15 0 empty empty empty 17 7 0 10 #fcfcfc #000000
#fcfcfc 0 1;
#X obj 249 152 tgl 15 0 empty empty empty 17 7 0 10 #fcfcfc #000000
#fcfcfc 0 1;
#X obj 255 180 tgl 15 0 empty empty empty 17 7 0 10 #fcfcfc #000000
#fcfcfc 0 1;
#X obj 249 208 tgl 15 0 empty empty empty 17 7 0 10 #fcfcfc #000000
#fcfcfc 0 1;
#X obj 233 233 tgl 15 0 empty empty empty 17 7 0 10 #fcfcfc #000000
#fcfcfc 0 1;
#X obj 208 249 tgl 15 0 empty empty empty 17 7 0 10 #fcfcfc #000000
#fcfcfc 0 1;
#X obj 180 255 tgl 15 0 empty empty empty 17 7 0 10 #fcfcfc #000000
#fcfcfc 0 1;
#X obj 152 249 tgl 15 0 empty empty empty 17 7 0 10 #fcfcfc #000000
#fcfcfc 0 1;
#X obj 127 233 tgl 15 0 empty empty empty 17 7 0 10 #fcfcfc #000000
#fcfcfc 0 1;
#X obj 111 208 tgl 15 0 empty empty empty 17 7 0 10 #fcfcfc #000000
#fcfcfc 0 1;
#X obj 105 180 tgl 15 0 empty empty empty 17 7 0 10 #fcfcfc #000000
#fcfcfc 0 1;
#X obj 111 152 tgl 15 0 empty empty empty 17 7 0 10 #fcfcfc #000000
#fcfcfc 0 1;
#X obj 127 127 tgl 15 0 empty empty empty 17 7 0 10 #fcfcfc #000000
#fcfcfc 0 1;
#X obj 152 111 tgl 15 0 empty empty empty 17 7 0 10 #fcfcfc #000000
#fcfcfc 0 1;
#X connect 0 0 16 0;
#X connect 1 0 17 0;
#X connect 2 0 18 0;
#X connect 3 0 19 0;
#X connect 4 0 20 0;
#X connect 5 0 21 0;
#X connect 6 0 22 0;
#X connect 7 0 23 0;
#X connect 8 0 24 0;
#X connect 9 0 25 0;
#X connect 10 0 26 0;
#X connect 11 0 27 0;
#X connect 12 0 28 0;
#X connect 13 0 29 0;
#X connect 14 0 30 0;
#X connect 15 0 31 0;
#X coords 0 -1 1 1 175 175 2 100 100;
#X restore 105 230 pd \$0-circle;
#X obj 105 412 tgl 28 1 \$0-sndtgl \$0-rcvtgl ON 6 15 0 14 #000000
#000000 #fcfcfc 1 1;
#X obj 108 485 hsl 128 14 0 127 0 0 \$0-sndart \$0-rcvart ACCENT ROTATE
-2 -6 0 12 #fcfcfc #000000 #000000 0 1;
#N canvas 265 334 638 980 \$0-tabwrite 0;
#X obj 12 12 table \$0-eucbts 32;
#X obj 12 34 table \$0-eucacc 32;
#X obj 336 44 r \$0-stp;
#X obj 359 88 t b f;
#X obj 359 132 i;
#X obj 391 132 + 1;
#X obj 359 154 sel;
#X obj 359 176 t b b;
#X msg 377 193 0;
#X obj 12 56 table \$0-btsacc 32;
#X obj 438 171 *;
#X obj 438 193 %;
#X obj 438 215 <;
#X obj 434 19 r \$0-bts;
#X obj 438 149 t f f;
#X obj 438 237 pack, f 5;
#X obj 438 259 tabwrite \$0-eucbts;
#X obj 391 154 - 1;
#X obj 359 110 until;
#X obj 175 132 t b f;
#X obj 175 176 i;
#X obj 207 176 + 1;
#X obj 175 198 sel;
#X obj 175 220 t b b;
#X msg 193 237 0;
#X obj 254 215 +;
#X obj 254 237 *;
#X obj 254 259 %;
#X obj 254 281 <;
#X obj 175 110 t f f;
#X obj 254 193 t f f;
#X obj 254 303 pack, f 5;
#X obj 207 198 - 1;
#X obj 175 154 until;
#X obj 310 105 t b f;
#X obj 310 127 -;
#X obj 226 115 r \$0-acc;
#X obj 152 66 r \$0-art;
#X obj 254 325 tabwrite \$0-eucacc;
#X obj 207 220 max 0;
#X obj 434 41 t b f b f;
#X obj 336 66 t f f f;
#X obj 108 105 t b f;
#X obj 108 149 i;
#X obj 140 149 + 1;
#X obj 108 171 sel;
#X obj 108 193 t b b;
#X msg 126 210 0;
#X obj 140 171 - 1;
#X obj 108 127 until;
#X obj 101 296 sel 1;
#X obj 108 83 t f b;
#X msg 140 301 0;
#X obj 69 428 pack;
#X obj 69 450 tabwrite \$0-btsacc;
#X obj 101 318 i;
#X obj 131 318 + 1;
#X obj 101 340 tabread \$0-eucacc;
#X obj 226 137 t b b f;
#X obj 152 88 t b b f;
#X obj 23 257 tabread \$0-eucbts;
#X obj 24 226 t f f;
#X obj 23 279 t f f;
#X obj 101 362 + 1;
#X obj 23 379 *;
#X obj 254 345 r \$0-rte;
#X obj 94 384 +;
#X obj 94 406 %;
#X obj 254 367 t b b f;
#X obj 73 713 tabread \$0-eucbts;
#X obj 188 712 tabread \$0-eucacc;
#X obj 290 415 bng 56 250 50 0 empty empty empty 17 7 0 10 #fcfcfc
#000000 #000000;
#X obj 290 479 i;
#X obj 325 479 + 1;
#X msg 430 432 0;
#X obj 308 712 tabread \$0-btsacc;
#X msg 413 580 1;
#X msg 454 580 2;
#X msg 493 580 3;
#X obj 290 594 pack;
#X msg 290 619 \$2 \$1;
#X obj 290 644 route 1 2 3;
#X floatatom 73 738 5 0 0 0 - - -, f 5;
#X floatatom 188 737 5 0 0 0 - - -, f 5;
#X floatatom 308 737 5 0 0 0 - - -, f 5;
#X floatatom 290 534 5 0 0 0 - - -, f 5;
#X obj 350 505 mod 16;
#X floatatom 350 536 5 0 0 0 - - -, f 5;
#X floatatom 422 621 5 0 0 0 - - -, f 5;
#X connect 2 0 41 0;
#X connect 3 0 18 0;
#X connect 3 1 17 0;
#X connect 4 0 5 0;
#X connect 4 0 6 0;
#X connect 4 0 14 0;
#X connect 5 0 4 1;
#X connect 6 0 7 0;
#X connect 7 0 8 0;
#X connect 7 1 18 1;
#X connect 8 0 4 1;
#X connect 10 0 11 0;
#X connect 11 0 12 0;
#X connect 12 0 15 0;
#X connect 13 0 40 0;
#X connect 14 0 10 0;
#X connect 14 1 15 1;
#X connect 15 0 16 0;
#X connect 17 0 6 1;
#X connect 18 0 4 0;
#X connect 19 0 33 0;
#X connect 19 1 32 0;
#X connect 20 0 21 0;
#X connect 20 0 22 0;
#X connect 20 0 30 0;
#X connect 21 0 20 1;
#X connect 22 0 23 0;
#X connect 23 0 24 0;
#X connect 23 1 33 1;
#X connect 24 0 20 1;
#X connect 25 0 26 0;
#X connect 26 0 27 0;
#X connect 27 0 28 0;
#X connect 28 0 31 0;
#X connect 29 0 19 0;
#X connect 29 1 27 1;
#X connect 29 1 35 0;
#X connect 30 0 25 0;
#X connect 30 1 31 1;
#X connect 31 0 38 0;
#X connect 32 0 39 0;
#X connect 33 0 20 0;
#X connect 34 0 35 0;
#X connect 34 1 35 1;
#X connect 35 0 25 1;
#X connect 36 0 58 0;
#X connect 37 0 59 0;
#X connect 39 0 22 1;
#X connect 40 1 29 0;
#X connect 40 2 18 0;
#X connect 40 3 10 1;
#X connect 40 3 12 1;
#X connect 41 0 51 0;
#X connect 41 1 3 0;
#X connect 41 2 11 1;
#X connect 41 2 67 1;
#X connect 42 0 49 0;
#X connect 42 1 48 0;
#X connect 43 0 44 0;
#X connect 43 0 45 0;
#X connect 43 0 61 0;
#X connect 44 0 43 1;
#X connect 45 0 46 0;
#X connect 46 0 47 0;
#X connect 46 1 49 1;
#X connect 47 0 43 1;
#X connect 48 0 45 1;
#X connect 49 0 43 0;
#X connect 50 0 55 0;
#X connect 51 0 42 0;
#X connect 51 1 52 0;
#X connect 52 0 55 1;
#X connect 53 0 54 0;
#X connect 55 0 56 0;
#X connect 55 0 57 0;
#X connect 56 0 55 1;
#X connect 57 0 63 0;
#X connect 58 0 49 0;
#X connect 58 1 33 0;
#X connect 58 1 52 0;
#X connect 58 2 26 1;
#X connect 58 2 28 1;
#X connect 59 0 49 0;
#X connect 59 1 33 0;
#X connect 59 1 52 0;
#X connect 59 2 34 0;
#X connect 60 0 62 0;
#X connect 61 0 60 0;
#X connect 61 1 66 0;
#X connect 62 0 64 0;
#X connect 62 1 50 0;
#X connect 63 0 64 1;
#X connect 64 0 53 0;
#X connect 65 0 68 0;
#X connect 66 0 67 0;
#X connect 67 0 53 1;
#X connect 68 0 49 0;
#X connect 68 1 52 0;
#X connect 68 2 66 1;
#X connect 69 0 82 0;
#X connect 70 0 83 0;
#X connect 71 0 72 0;
#X connect 72 0 73 0;
#X connect 72 0 86 0;
#X connect 73 0 72 1;
#X connect 74 0 72 1;
#X connect 75 0 84 0;
#X connect 76 0 79 1;
#X connect 76 0 88 0;
#X connect 77 0 79 1;
#X connect 77 0 88 0;
#X connect 78 0 79 1;
#X connect 78 0 88 0;
#X connect 79 0 80 0;
#X connect 80 0 81 0;
#X connect 81 0 69 0;
#X connect 81 1 70 0;
#X connect 81 2 75 0;
#X connect 85 0 79 0;
#X connect 86 0 87 0;
#X connect 87 0 79 0;
#X restore 100 53 pd \$0-tabwrite;
#N canvas 439 99 876 676 \$0-sliders 0;
#X obj 251 11 r \$0-sndspd;
#X obj 251 239 symbol;
#X obj 251 283 s \$0-rcvspd;
#X msg 251 261 label SPEED \$1;
#X obj 12 11 r \$0-sndtgl;
#X msg 12 55 ON;
#X msg 115 55 OFF;
#X obj 12 121 symbol;
#X msg 12 143 label \$1;
#X obj 12 165 s \$0-rcvtgl;
#X msg 12 77 color 22 22 0;
#X msg 115 77 color 0 0 22;
#X msg 12 99 label_pos 6 15;
#X msg 115 99 label_pos 2 15;
#X obj 421 11 r \$0-sndstp;
#X obj 421 33 / 127;
#X obj 421 99 i;
#X obj 421 143 s \$0-rcvstpnmb;
#X obj 528 11 r \$0-sndstpnmb;
#X obj 528 33 / 32;
#X obj 528 55 * 127;
#X obj 528 77 i;
#X msg 421 121 set \$1;
#X msg 528 99 set \$1;
#X obj 528 121 s \$0-rcvstp;
#X obj 421 208 / 127;
#X obj 421 230 *;
#X obj 722 60 r \$0-stp;
#X obj 421 252 + 0.5;
#X obj 421 274 i;
#X msg 421 296 set \$1;
#X obj 421 318 s \$0-rcvbtsnmb;
#X obj 571 197 r \$0-sndbtsnmb;
#X obj 572 230 /;
#X obj 722 82 t b f f;
#X obj 572 252 * 127;
#X obj 572 274 i;
#X msg 572 296 set \$1;
#X obj 572 318 s \$0-rcvbts;
#X obj 421 186 r \$0-sndbts;
#X obj 421 384 / 127;
#X obj 421 406 *;
#X obj 507 367 r \$0-stp;
#X obj 421 428 + 0.5;
#X obj 421 450 i;
#X msg 421 472 set \$1;
#X obj 572 406 /;
#X obj 507 389 t b f f;
#X obj 572 428 * 127;
#X obj 572 450 i;
#X msg 572 472 set \$1;
#X obj 421 362 r \$0-sndrte;
#X obj 421 494 s \$0-rcvrtenmb;
#X obj 572 384 r \$0-sndrtenmb;
#X obj 572 494 s \$0-rcvrte;
#X obj 679 230 pack f \$0;
#X msg 679 252 \; \$2-rcvbtsnmb range 0 \$1;
#X obj 679 406 pack f \$0;
#X msg 679 428 \; \$2-rcvrtenmb range 0 \$1;
#X obj 421 560 / 127;
#X obj 421 582 *;
#X obj 421 604 + 0.5;
#X obj 421 626 i;
#X msg 421 648 set \$1;
#X obj 572 582 /;
#X obj 507 565 t b f f;
#X obj 572 604 * 127;
#X obj 572 626 i;
#X msg 572 648 set \$1;
#X obj 421 736 / 127;
#X obj 421 758 *;
#X obj 421 780 + 0.5;
#X obj 421 802 i;
#X msg 421 824 set \$1;
#X obj 572 758 /;
#X obj 507 741 t b f f;
#X obj 572 780 * 127;
#X obj 572 802 i;
#X msg 572 824 set \$1;
#X obj 679 582 pack f \$0;
#X obj 679 758 pack f \$0;
#X obj 421 538 r \$0-sndacc;
#X obj 421 670 s \$0-rcvaccnmb;
#X obj 572 670 s \$0-rcvacc;
#X obj 572 560 r \$0-sndaccnmb;
#X msg 679 604 \; \$2-rcvaccnmb range 0 \$1;
#X obj 507 543 r \$0-bts;
#X obj 507 719 r \$0-bts;
#X obj 421 714 r \$0-sndart;
#X obj 421 846 s \$0-rcvartnmb;
#X obj 572 846 s \$0-rcvart;
#X obj 572 736 r \$0-sndartnmb;
#X msg 679 780 \; \$2-rcvartnmb range 0 \$1;
#X obj 12 213 r \$0-sndvel;
#X msg 12 235 set \$1;
#X obj 12 257 s \$0-rcvvelnmb;
#X msg 119 235 set \$1;
#X obj 119 213 r \$0-sndvelnmb;
#X obj 119 257 s \$0-rcvvel;
#X obj 179 230 s \$0-vel;
#X msg 12 306 set \$1;
#X msg 119 306 set \$1;
#X obj 12 284 r \$0-sndavl;
#X obj 12 328 s \$0-rcvavlnmb;
#X obj 119 284 r \$0-sndavlnmb;
#X obj 179 301 s \$0-avl;
#X obj 119 328 s \$0-rcvavl;
#X msg 251 55 1/1;
#X msg 267 76 2/1;
#X obj 421 55 * 31;
#X obj 421 77 + 1;
#X obj 646 160 s \$0-stp;
#X obj 690 335 s \$0-bts;
#X obj 690 511 s \$0-rte;
#X obj 690 687 s \$0-acc;
#X obj 690 863 s \$0-art;
#X obj 614 181 s \$0-guistp;
#X obj 658 357 s \$0-guibts;
#X obj 658 533 s \$0-guirte;
#X obj 658 709 s \$0-guiacc;
#X obj 658 885 s \$0-guiart;
#X obj 614 138 t f f;
#X obj 658 313 t f f;
#X obj 658 489 t f f;
#X obj 658 665 t f f;
#X obj 658 841 t f f;
#X obj 658 291 f;
#X obj 614 116 f;
#X obj 658 467 f;
#X obj 658 643 f;
#X obj 658 819 f;
#X msg 283 98 3/1;
#X msg 299 120 4/1;
#X msg 315 142 6/1;
#X msg 331 162 8/1;
#X msg 347 182 9/1;
#X msg 363 202 12/1;
#X msg 379 222 16/1;
#X obj 251 33 sel 0 1 2 3 4 5 6 7 8;
#X obj 12 33 sel 1 0, f 30;
#X connect 0 0 138 0;
#X connect 1 0 3 0;
#X connect 3 0 2 0;
#X connect 4 0 139 0;
#X connect 5 0 7 0;
#X connect 6 0 7 0;
#X connect 7 0 8 0;
#X connect 8 0 9 0;
#X connect 10 0 9 0;
#X connect 11 0 9 0;
#X connect 12 0 9 0;
#X connect 13 0 9 0;
#X connect 14 0 15 0;
#X connect 15 0 109 0;
#X connect 16 0 22 0;
#X connect 16 0 127 0;
#X connect 18 0 19 0;
#X connect 18 0 127 0;
#X connect 19 0 20 0;
#X connect 20 0 21 0;
#X connect 21 0 23 0;
#X connect 22 0 17 0;
#X connect 23 0 24 0;
#X connect 25 0 26 0;
#X connect 26 0 28 0;
#X connect 27 0 34 0;
#X connect 28 0 29 0;
#X connect 29 0 30 0;
#X connect 29 0 126 0;
#X connect 30 0 31 0;
#X connect 32 0 33 0;
#X connect 32 0 126 0;
#X connect 33 0 35 0;
#X connect 34 0 26 0;
#X connect 34 1 26 1;
#X connect 34 2 55 0;
#X connect 34 2 33 1;
#X connect 35 0 36 0;
#X connect 36 0 37 0;
#X connect 37 0 38 0;
#X connect 39 0 25 0;
#X connect 40 0 41 0;
#X connect 41 0 43 0;
#X connect 42 0 47 0;
#X connect 43 0 44 0;
#X connect 44 0 45 0;
#X connect 44 0 128 0;
#X connect 45 0 52 0;
#X connect 46 0 48 0;
#X connect 47 0 41 0;
#X connect 47 1 41 1;
#X connect 47 2 46 1;
#X connect 47 2 57 0;
#X connect 48 0 49 0;
#X connect 49 0 50 0;
#X connect 50 0 54 0;
#X connect 51 0 40 0;
#X connect 53 0 46 0;
#X connect 53 0 128 0;
#X connect 55 0 56 0;
#X connect 57 0 58 0;
#X connect 59 0 60 0;
#X connect 60 0 61 0;
#X connect 61 0 62 0;
#X connect 62 0 63 0;
#X connect 62 0 129 0;
#X connect 63 0 82 0;
#X connect 64 0 66 0;
#X connect 65 0 60 0;
#X connect 65 1 60 1;
#X connect 65 2 64 1;
#X connect 65 2 79 0;
#X connect 66 0 67 0;
#X connect 67 0 68 0;
#X connect 68 0 83 0;
#X connect 69 0 70 0;
#X connect 70 0 71 0;
#X connect 71 0 72 0;
#X connect 72 0 73 0;
#X connect 72 0 130 0;
#X connect 73 0 89 0;
#X connect 74 0 76 0;
#X connect 75 0 70 0;
#X connect 75 1 70 1;
#X connect 75 2 74 1;
#X connect 75 2 80 0;
#X connect 76 0 77 0;
#X connect 77 0 78 0;
#X connect 78 0 90 0;
#X connect 79 0 85 0;
#X connect 80 0 92 0;
#X connect 81 0 59 0;
#X connect 84 0 64 0;
#X connect 84 0 129 0;
#X connect 86 0 65 0;
#X connect 87 0 75 0;
#X connect 88 0 69 0;
#X connect 91 0 74 0;
#X connect 91 0 130 0;
#X connect 93 0 94 0;
#X connect 93 0 99 0;
#X connect 94 0 95 0;
#X connect 96 0 98 0;
#X connect 97 0 96 0;
#X connect 97 0 99 0;
#X connect 100 0 103 0;
#X connect 101 0 106 0;
#X connect 102 0 100 0;
#X connect 102 0 105 0;
#X connect 104 0 101 0;
#X connect 104 0 105 0;
#X connect 107 0 1 0;
#X connect 108 0 1 0;
#X connect 109 0 110 0;
#X connect 110 0 16 0;
#X connect 121 0 116 0;
#X connect 121 1 111 0;
#X connect 122 0 117 0;
#X connect 122 1 112 0;
#X connect 123 0 118 0;
#X connect 123 1 113 0;
#X connect 124 0 119 0;
#X connect 124 1 114 0;
#X connect 125 0 120 0;
#X connect 125 1 115 0;
#X connect 126 0 122 0;
#X connect 127 0 121 0;
#X connect 128 0 123 0;
#X connect 129 0 124 0;
#X connect 130 0 125 0;
#X connect 131 0 1 0;
#X connect 132 0 1 0;
#X connect 133 0 1 0;
#X connect 134 0 1 0;
#X connect 135 0 1 0;
#X connect 136 0 1 0;
#X connect 137 0 1 0;
#X connect 138 0 107 0;
#X connect 138 1 108 0;
#X connect 138 2 131 0;
#X connect 138 3 132 0;
#X connect 138 4 133 0;
#X connect 138 5 134 0;
#X connect 138 6 135 0;
#X connect 138 7 136 0;
#X connect 138 8 137 0;
#X connect 139 0 5 0;
#X connect 139 0 10 0;
#X connect 139 0 12 0;
#X connect 139 1 6 0;
#X connect 139 1 11 0;
#X connect 139 1 13 0;
#X restore 100 33 pd \$0-sliders;
#N canvas 895 23 677 541 \$0-guicircle 0;
#X obj 545 479 s pd-\$0-circle;
#X obj 285 330 cos;
#X obj 329 330 sin;
#X obj 285 137 until;
#X obj 285 159 i;
#X obj 317 159 + 1;
#X obj 285 203 t b b;
#X msg 303 220 0;
#X obj 340 225 /;
#X obj 285 242 *;
#X obj 285 308 t f f;
#X obj 285 374 i;
#X obj 329 374 i;
#X obj 285 418 pack f f;
#X msg 285 462 obj \$1 \$2 tgl;
#X obj 317 181 - 1;
#X msg 545 248 clear;
#X obj 285 286 - 1.57079;
#X obj 285 264 * 6.28319;
#X msg 340 203 1 \$1;
#X obj 285 181 sel;
#X msg 155 462 connect \$1 0 \$2 0;
#X obj 155 242 t f f;
#X obj 192 264 +;
#X obj 155 281 pack;
#X obj 294 115 t b f f;
#X obj 155 137 until;
#X obj 155 159 i;
#X obj 187 159 + 1;
#X obj 155 203 t b b;
#X msg 173 220 0;
#X obj 187 181 - 1;
#X obj 155 181 sel;
#X obj 164 115 t b f f;
#X msg 387 462 obj \$1 \$2 r \$4-tgl\$3;
#X obj 387 440 pack f f f \$0;
#X obj 390 352 cos;
#X obj 434 352 sin;
#X obj 390 137 until;
#X obj 390 159 i;
#X obj 422 159 + 1;
#X obj 390 203 t b b;
#X msg 408 220 0;
#X obj 445 247 /;
#X obj 390 264 *;
#X obj 390 330 t f f;
#X obj 390 396 i;
#X obj 434 396 i;
#X obj 422 181 - 1;
#X obj 390 308 - 1.57079;
#X obj 390 286 * 6.28319;
#X msg 445 225 1 \$1;
#X obj 390 181 sel;
#X obj 399 115 t b f f;
#X obj 471 76 r \$0-guistp;
#X obj 285 395 + 180;
#X obj 329 396 + 180;
#X obj 285 352 * 75;
#X obj 329 352 * 75;
#X obj 390 374 * 75;
#X obj 434 374 * 75;
#X obj 390 418 + 180;
#X obj 434 418 + 170;
#X obj 471 98 t f f f f b;
#X obj 12 159 i;
#X obj 44 159 + 1;
#X obj 12 181 sel;
#X obj 12 203 t b b;
#X msg 30 220 0;
#X obj 44 181 - 1;
#X obj 12 137 until;
#X obj 12 309 tabread \$0-btsacc;
#X obj 12 331 sel 0 1 2;
#X msg 12 353 color 0 0;
#X msg 32 373 color 11 11;
#X msg 52 393 color 22 22;
#X obj 12 454 s;
#X obj 49 415 pack f \$0;
#X msg 49 437 symbol \$2-tgl\$1;
#X obj 390 242 t f f;
#X obj 12 93 bang;
#X obj 12 11 r \$0-guibts;
#X obj 12 31 r \$0-guirte;
#X obj 12 51 r \$0-guiacc;
#X obj 12 71 r \$0-guiart;
#X obj 21 115 t b f f;
#X obj 12 242 t f f;
#X connect 1 0 57 0;
#X connect 2 0 58 0;
#X connect 3 0 4 0;
#X connect 4 0 5 0;
#X connect 4 0 20 0;
#X connect 4 0 9 0;
#X connect 5 0 4 1;
#X connect 6 0 7 0;
#X connect 6 1 3 1;
#X connect 7 0 4 1;
#X connect 8 0 9 1;
#X connect 9 0 18 0;
#X connect 10 0 1 0;
#X connect 10 1 2 0;
#X connect 11 0 55 0;
#X connect 12 0 56 0;
#X connect 13 0 14 0;
#X connect 14 0 0 0;
#X connect 15 0 20 1;
#X connect 16 0 0 0;
#X connect 17 0 10 0;
#X connect 18 0 17 0;
#X connect 19 0 8 0;
#X connect 20 0 6 0;
#X connect 21 0 0 0;
#X connect 22 0 24 0;
#X connect 22 1 23 0;
#X connect 23 0 24 1;
#X connect 24 0 21 0;
#X connect 25 0 3 0;
#X connect 25 1 15 0;
#X connect 25 2 19 0;
#X connect 26 0 27 0;
#X connect 27 0 28 0;
#X connect 27 0 32 0;
#X connect 27 0 22 0;
#X connect 28 0 27 1;
#X connect 29 0 30 0;
#X connect 29 1 26 1;
#X connect 30 0 27 1;
#X connect 31 0 32 1;
#X connect 32 0 29 0;
#X connect 33 0 26 0;
#X connect 33 1 31 0;
#X connect 33 2 23 1;
#X connect 34 0 0 0;
#X connect 35 0 34 0;
#X connect 36 0 59 0;
#X connect 37 0 60 0;
#X connect 38 0 39 0;
#X connect 39 0 40 0;
#X connect 39 0 52 0;
#X connect 39 0 79 0;
#X connect 40 0 39 1;
#X connect 41 0 42 0;
#X connect 41 1 38 1;
#X connect 42 0 39 1;
#X connect 43 0 44 1;
#X connect 44 0 50 0;
#X connect 45 0 36 0;
#X connect 45 1 37 0;
#X connect 46 0 61 0;
#X connect 47 0 62 0;
#X connect 48 0 52 1;
#X connect 49 0 45 0;
#X connect 50 0 49 0;
#X connect 51 0 43 0;
#X connect 52 0 41 0;
#X connect 53 0 38 0;
#X connect 53 1 48 0;
#X connect 53 2 51 0;
#X connect 54 0 63 0;
#X connect 55 0 13 0;
#X connect 56 0 13 1;
#X connect 57 0 11 0;
#X connect 58 0 12 0;
#X connect 59 0 46 0;
#X connect 60 0 47 0;
#X connect 61 0 35 0;
#X connect 62 0 35 1;
#X connect 63 0 85 0;
#X connect 63 1 33 0;
#X connect 63 2 25 0;
#X connect 63 3 53 0;
#X connect 63 4 16 0;
#X connect 64 0 65 0;
#X connect 64 0 66 0;
#X connect 64 0 86 0;
#X connect 65 0 64 1;
#X connect 66 0 67 0;
#X connect 67 0 68 0;
#X connect 67 1 70 1;
#X connect 68 0 64 1;
#X connect 69 0 66 1;
#X connect 70 0 64 0;
#X connect 71 0 72 0;
#X connect 72 0 73 0;
#X connect 72 1 74 0;
#X connect 72 2 75 0;
#X connect 73 0 76 0;
#X connect 74 0 76 0;
#X connect 75 0 76 0;
#X connect 77 0 78 0;
#X connect 78 0 76 1;
#X connect 79 0 44 0;
#X connect 79 1 35 2;
#X connect 80 0 70 0;
#X connect 81 0 80 0;
#X connect 82 0 80 0;
#X connect 83 0 80 0;
#X connect 84 0 80 0;
#X connect 85 0 70 0;
#X connect 85 1 69 0;
#X connect 86 0 71 0;
#X connect 86 1 77 0;
#X restore 100 73 pd \$0-guicircle;
#X obj 305 538 %;
#X obj 365 521 r \$0-guistp;
#X obj 305 489 i;
#X obj 305 511 change;
#X obj 440 384 r \$0-sndspd;
#X obj 305 467 /;
#X obj 440 406 sel 0 1 2 3 4 5 6 7 8;
#X msg 440 428 1;
#X msg 456 450 2;
#X msg 472 428 3;
#X msg 488 450 4;
#X msg 504 428 6;
#X msg 568 428 16;
#X msg 520 450 8;
#X msg 536 428 9;
#X msg 552 450 12;
#X obj 305 240 inlet;
#X obj 305 412 spigot;
#X obj 354 395 r \$0-sndtgl;
#X text 305 220 CLOCK;
#X obj 611 93 inlet;
#X obj 611 115 route stp bts rte vel tgl spd acc art avl;
#X obj 611 137 s \$0-rcvstpnmb;
#X obj 642 157 s \$0-rcvbtsnmb;
#X obj 674 177 s \$0-rcvrtenmb;
#X obj 705 197 s \$0-rcvvelnmb;
#X obj 737 137 s \$0-rcvtgl;
#X obj 768 157 s \$0-rcvspd;
#X obj 800 177 s \$0-rcvaccnmb;
#X obj 831 197 s \$0-rcvartnmb;
#X obj 863 137 s \$0-rcvavlnmb;
#X text 611 73 PARAMETERS;
#X text 842 266 stp = STEPS;
#X text 842 281 bts = BEATS;
#X text 842 296 rte = ROTATE;
#X text 842 311 vel = VELOCITY;
#X text 842 326 tgl = TOGGLE ON/OFF;
#X text 842 341 spd = SPEED;
#X text 842 356 acc = ACCENTS;
#X text 842 371 art = ACCENT ROTATE;
#X text 842 386 avl = ACCENT VELOCITY;
#X text 842 246 PARAMETERS;
#X obj 440 362 loadbang;
#N canvas 60 96 948 599 \$0-modstuffOSC2 0;
#X floatatom 635 272 2 0 0 3 tOSC-SPEED2 - #0-toscSPEED2, f 2;
#X floatatom 41 340 5 0 0 3 tOSC-TGL2 - #0-toscTGL2, f 5;
#X floatatom 99 258 5 0 0 3 tOSC-VELOCITY2 - #0-toscVELOCITY2, f 5
;
#X floatatom 192 252 5 0 0 3 tOSC-ACCENTVELOCITY2 - #0-toscACCENTVELOCITY2
, f 5;
#X floatatom 295 346 5 0 0 3 tOSC-ACCENT2 - #0-toscACCENT2, f 5;
#X obj 19 29 r parsedOSC;
#X floatatom 427 176 5 0 0 0 - - -, f 5;
#N canvas 851 331 680 587 \$0-in_sel 0;
#X obj 68 11 inlet;
#X obj 248 366 outlet;
#X obj 131 82 list split 1;
#X obj 65 57 list split 1;
#X obj 46 113 list fromsymbol;
#X obj 94 245 unpack;
#X obj 99 274 - 48;
#X obj 148 277 - 48;
#X obj 99 347 +;
#X floatatom 99 376 5 0 0 0 - - -, f 5;
#X obj 72 153 list length;
#X obj 49 185 list prepend;
#X obj 46 132 t a a;
#X obj 49 214 route 1 2;
#X obj 99 303 * 10;
#X obj 38 256 - 48;
#X obj 68 32 route z;
#X obj 273 22 inlet;
#X obj 387 20 inlet;
#X obj 283 66 tgl 15 0 empty empty empty 17 7 0 10 #fcfcfc #000000
#000000 0 1;
#X obj 400 60 tgl 15 0 empty empty empty 17 7 0 10 #fcfcfc #000000
#000000 0 1;
#X obj 400 83 sel 1;
#X msg 400 108 0, f 1;
#X obj 283 89 sel 1;
#X msg 283 114 0, f 1;
#X obj 467 197 s udpOUT2;
#X msg 489 122 \$1 eucdrum sel_drum_acc;
#X msg 516 145 \$1 eucdrum sel_drum_bts;
#X msg 253 114 5, f 1;
#X msg 430 108 6, f 1;
#X obj 416 258 bng 24 250 50 0 empty \$0-untoggle_sels empty 17 7 0
10 #fcfcfc #000000 #000000;
#X obj 210 259 f;
#X connect 0 0 16 0;
#X connect 2 0 4 0;
#X connect 3 1 2 0;
#X connect 4 0 12 0;
#X connect 5 0 6 0;
#X connect 5 1 7 0;
#X connect 6 0 14 0;
#X connect 7 0 8 1;
#X connect 8 0 9 0;
#X connect 9 0 1 0;
#X connect 9 0 31 1;
#X connect 10 0 11 1;
#X connect 11 0 13 0;
#X connect 12 0 11 0;
#X connect 12 1 10 0;
#X connect 13 0 15 0;
#X connect 13 1 5 0;
#X connect 14 0 8 0;
#X connect 15 0 9 0;
#X connect 16 1 3 0;
#X connect 17 0 19 0;
#X connect 18 0 20 0;
#X connect 19 0 23 0;
#X connect 20 0 21 0;
#X connect 21 0 22 0;
#X connect 21 0 29 0;
#X connect 22 0 27 0;
#X connect 22 0 19 0;
#X connect 23 0 24 0;
#X connect 23 0 28 0;
#X connect 24 0 26 0;
#X connect 24 0 20 0;
#X connect 26 0 25 0;
#X connect 27 0 25 0;
#X connect 28 0 1 0;
#X connect 29 0 1 0;
#X connect 30 0 31 0;
#X connect 30 0 24 0;
#X connect 30 0 22 0;
#X connect 31 0 1 0;
#X restore 22 100 pd \$0-in_sel;
#X floatatom 22 125 5 0 0 3 input_modeR - #0-input-modeR, f 5;
#N canvas 601 196 623 568 \$0-grid_in 0;
#X obj 68 11 inlet;
#X obj 63 331 outlet;
#X obj 151 82 list split 1;
#X obj 65 57 list split 1;
#X obj 186 113 list fromsymbol;
#X obj 234 245 unpack;
#X obj 239 274 - 48;
#X obj 288 277 - 48;
#X obj 239 347 +;
#X floatatom 239 376 5 0 0 0 - - -, f 5;
#X obj 212 153 list length;
#X obj 189 185 list prepend;
#X obj 186 132 t a a;
#X obj 189 214 route 1 2;
#X obj 239 303 * 10;
#X obj 178 256 - 48;
#X obj 68 32 route z;
#X obj 65 104 list fromsymbol;
#X obj 65 133 - 48;
#X floatatom 16 151 5 0 0 0 - - -, f 5;
#X obj 65 272 +;
#X floatatom 12 289 5 0 0 0 - - -, f 5;
#X floatatom 15 210 5 0 0 0 - - -, f 5;
#X obj 65 193 * -8;
#X obj 65 168 - 4;
#X connect 0 0 16 0;
#X connect 2 0 4 0;
#X connect 3 0 17 0;
#X connect 3 1 2 0;
#X connect 4 0 12 0;
#X connect 5 0 6 0;
#X connect 5 1 7 0;
#X connect 6 0 14 0;
#X connect 7 0 8 1;
#X connect 8 0 9 0;
#X connect 9 0 20 1;
#X connect 10 0 11 1;
#X connect 11 0 13 0;
#X connect 12 0 11 0;
#X connect 12 1 10 0;
#X connect 13 0 15 0;
#X connect 13 1 5 0;
#X connect 14 0 8 0;
#X connect 15 0 9 0;
#X connect 16 1 3 0;
#X connect 17 0 18 0;
#X connect 18 0 19 0;
#X connect 18 0 24 0;
#X connect 20 0 21 0;
#X connect 20 0 1 0;
#X connect 23 0 22 0;
#X connect 23 0 20 0;
#X connect 24 0 23 0;
#X restore 388 159 pd \$0-grid_in;
#X floatatom 566 188 5 0 0 2 input_modeR #0-input-modeR -, f 5;
#X obj 420 222 pack;
#X msg 420 247 \$2 \$1;
#X floatatom 117 346 5 0 0 3 tOSC-BEATS2 - #0-toscBEATS2, f 5;
#X floatatom 198 346 5 0 0 3 tOSC-ROTATE2 - #0-toscROTATE2, f 5;
#X floatatom 387 344 5 0 0 3 tOSC-ACCENTROTATE2 - #0-toscACCENTROTATE2
, f 5;
#X obj 519 167 sel 1;
#X msg 519 185 0, f 1;
#X obj 498 131 route z;
#X obj 420 272 route 1 2 3 4 5 6;
#X obj 592 389 v adrum;
#X obj 526 389 v bdrum;
#X floatatom 536 349 5 0 0 0 - - -, f 5;
#X floatatom 602 349 5 0 0 0 - - -, f 5;
#X obj 388 184 t b f;
#X obj 355 220 bng 15 250 50 0 \$0-untoggle_sels empty untgl_drum -21
18 0 10 #fcfcfc #000000 #02640a;
#X obj 658 389 s udpOUT2;
#X msg 658 365 \$1 eucmidi1;
#X msg 735 365 \$1 eucmidi2;
#X obj 592 325 + 34;
#X obj 526 324 + 34;
#X obj 692 118 tgl 15 0 \$0-clk_tgl empty clk_tgl 17 7 0 10 #fcfcfc
#000000 #0d6f0c 0 1;
#X obj 147 502 s \$0-toParameters2;
#X msg 369 428 art \$1;
#X msg 306 427 acc \$1;
#X msg 241 420 rte \$1;
#X msg 182 426 bts \$1;
#X msg 15 411 vel \$1;
#X msg 120 421 avl \$1;
#X msg 72 418 tgl \$1;
#X obj 27 71 route bts2 sel_drum_bts sel_drum_acc vel2 tgl2 --- avl2
fader99 toggle5 multipush23 push138 -- -- clk_tgl, f 120;
#X obj 464 481 r tofilldrums;
#X obj 464 504 route 67 68 76 77;
#X obj 692 98 route z;
#X connect 5 0 40 0;
#X connect 7 0 8 0;
#X connect 9 0 6 0;
#X connect 9 0 24 0;
#X connect 10 0 11 1;
#X connect 11 0 12 0;
#X connect 12 0 19 0;
#X connect 16 0 17 0;
#X connect 17 0 11 0;
#X connect 18 1 16 0;
#X connect 19 0 13 0;
#X connect 19 1 14 0;
#X connect 19 2 4 0;
#X connect 19 3 15 0;
#X connect 19 4 30 0;
#X connect 19 5 29 0;
#X connect 22 0 27 0;
#X connect 23 0 28 0;
#X connect 24 0 25 0;
#X connect 24 1 11 0;
#X connect 27 0 26 0;
#X connect 28 0 26 0;
#X connect 29 0 20 0;
#X connect 29 0 23 0;
#X connect 30 0 21 0;
#X connect 30 0 22 0;
#X connect 33 0 32 0;
#X connect 34 0 32 0;
#X connect 35 0 32 0;
#X connect 36 0 32 0;
#X connect 37 0 32 0;
#X connect 38 0 32 0;
#X connect 39 0 32 0;
#X connect 40 0 7 0;
#X connect 40 1 7 1;
#X connect 40 2 7 2;
#X connect 40 4 1 0;
#X connect 40 9 9 0;
#X connect 40 10 18 0;
#X connect 40 13 43 0;
#X connect 41 0 42 0;
#X connect 42 0 2 0;
#X connect 42 1 3 0;
#X connect 42 2 21 0;
#X connect 42 2 22 0;
#X connect 42 3 20 0;
#X connect 42 3 23 0;
#X connect 43 1 31 0;
#X restore 307 21 pd \$0-modstuffOSC2;
#N canvas 642 210 638 510 \$0-stepbiz2 0;
#X msg 62 160 stp \$1;
#X floatatom 63 106 5 0 0 2 tOSC-STEPS2 #0-toscSTEPS2 -, f 5;
#X obj 62 193 s \$0-toParameters2;
#X connect 0 0 2 0;
#X connect 1 0 0 0;
#X restore 307 39 pd \$0-stepbiz2;
#N canvas 225 294 450 356 \$0-beatsConf2 0;
#X msg 29 216 bts \$1;
#X floatatom 29 41 5 0 0 2 tOSC-BEATS2 #0-toscBEATS2 -, f 5;
#X obj 154 246 s udpOUT2;
#X msg 156 220 \$1 eucBeats2;
#X obj 29 241 s \$0-toParameters2;
#X obj 29 113 clip 0;
#X floatatom 117 49 5 0 0 2 tOSC-STEPS2 #0-toscSTEPS2 -, f 5;
#X connect 0 0 4 0;
#X connect 1 0 5 0;
#X connect 3 0 2 0;
#X connect 5 0 0 0;
#X connect 5 0 3 0;
#X connect 6 0 5 2;
#X restore 307 56 pd \$0-beatsConf2;
#N canvas 660 172 459 355 \$0-Rotate+Velocity2 0;
#X obj 291 195 i;
#X msg 43 241 rte \$1;
#X msg 102 241 vel \$1;
#X floatatom 291 83 5 0 0 2 tOSC-VELOCITY2 #0-toscVELOCITY2 -, f 5
;
#X floatatom 43 54 5 0 0 2 tOSC-ROTATE2 #0-toscROTATE2 -, f 5;
#X obj 291 306 s udpOUT2;
#X obj 41 307 s \$0-toParameters2;
#X msg 187 241 \$1 eucRotate2;
#X msg 291 241 \$1 eucVelocity2;
#X floatatom 171 45 5 0 0 2 tOSC-STEPS2 #0-toscSTEPS2 -, f 5;
#X obj 43 78 clip 0 16;
#X connect 0 0 8 0;
#X connect 0 0 2 0;
#X connect 1 0 6 0;
#X connect 2 0 6 0;
#X connect 3 0 0 0;
#X connect 4 0 10 0;
#X connect 7 0 5 0;
#X connect 8 0 5 0;
#X connect 9 0 10 2;
#X connect 10 0 1 0;
#X connect 10 0 7 0;
#X restore 307 73 pd \$0-Rotate+Velocity2;
#N canvas 602 44 638 955 \$0-tgl+speed2 0;
#X msg 29 113 tgl \$1;
#X msg 186 113 spd \$1;
#X floatatom 29 52 5 0 0 2 tOSC-TGL2 #0-toscTGL2 -, f 5;
#X floatatom 186 52 2 0 0 2 tOSC-SPEED2 #0-toscSPEED2 -, f 2;
#X obj 182 342 s udpOUT2;
#X obj 182 198 sel 1 0;
#X msg 182 227 ON;
#X msg 230 227 OFF;
#X obj 182 256 t s;
#X obj 29 357 s \$0-toParameters2;
#X msg 182 293 \$1 eucOnOff2;
#X connect 0 0 9 0;
#X connect 1 0 9 0;
#X connect 2 0 0 0;
#X connect 2 0 5 0;
#X connect 3 0 1 0;
#X connect 5 0 6 0;
#X connect 5 1 7 0;
#X connect 6 0 8 0;
#X connect 7 0 8 0;
#X connect 8 0 10 0;
#X connect 10 0 4 0;
#X restore 307 92 pd \$0-tgl+speed2;
#N canvas 404 173 638 537 \$0-Accents2 0;
#X msg 24 239 acc \$1;
#X msg 168 239 art \$1;
#X obj 380 180 i;
#X floatatom 411 201 5 0 0 0 - - -, f 5;
#X msg 287 241 avl \$1;
#X floatatom 168 56 5 0 0 2 tOSC-ACCENTROTATE2 #0-toscACCENTROTATE2
-, f 5;
#X floatatom 24 56 5 0 0 2 tOSC-ACCENT2 #0-toscACCENT2 -, f 5;
#X obj 366 374 s udpOUT2;
#X floatatom 380 68 5 0 0 2 tOSC-ACCENTVELOCITY2 #0-toscACCENTVELOCITY2
-, f 5;
#X msg 173 329 \$1 eucAcc2;
#X msg 275 328 \$1 eucAccR2;
#X msg 366 325 \$1 eucAccV2;
#X obj 21 329 s \$0-toParameters2;
#X floatatom 111 38 5 0 0 2 tOSC-BEATS2 #0-toscBEATS2 -, f 5;
#X floatatom 292 60 5 0 0 2 tOSC-STEPS2 #0-toscSTEPS2 -, f 5;
#X floatatom 170 156 5 0 0 0 - - -, f 5;
#X floatatom 62 125 5 0 0 0 - - -, f 5;
#X obj 24 80 clip 0 16;
#X obj 168 80 clip 0 16;
#X connect 0 0 12 0;
#X connect 1 0 12 0;
#X connect 2 0 3 0;
#X connect 2 0 11 0;
#X connect 2 0 4 0;
#X connect 4 0 12 0;
#X connect 5 0 18 0;
#X connect 6 0 17 0;
#X connect 8 0 2 0;
#X connect 9 0 7 0;
#X connect 10 0 7 0;
#X connect 11 0 7 0;
#X connect 13 0 17 2;
#X connect 14 0 18 2;
#X connect 17 0 16 0;
#X connect 17 0 0 0;
#X connect 17 0 9 0;
#X connect 18 0 15 0;
#X connect 18 0 1 0;
#X connect 18 0 10 0;
#X restore 307 111 pd \$0-Accents2;
#X obj 800 48 r \$0-toParameters2;
#X floatatom 694 40 5 0 0 2 step_count step_count -, f 5;
#N canvas 475 276 638 342 guistuffagai 0;
#X obj 44 35 inlet;
#X obj 39 145 tabread \$0-btsacc;
#X obj 39 123 t f f;
#X obj 167 140 pack f \$0;
#X msg 167 229 symbol \$2-tgl\$1;
#X obj 39 246 s;
#X obj 39 167 sel 0 1 2;
#X msg 39 189 color 0 0;
#X msg 59 209 color 11 11;
#X msg 79 229 color 22 22;
#X obj 39 101 i;
#X obj 39 79 t f b b f;
#X msg 79 123 color 10 10;
#X obj 55 369 tabread \$0-btsacc;
#X obj 55 391 sel 1 2, f 23;
#X obj 55 440 i;
#X obj 73 418 r \$0-vel;
#X obj 134 440 i;
#X obj 152 418 r \$0-avl;
#X text 55 482 VELOCITY;
#X text 134 482 ACCENT VELOCITY;
#N canvas 417 131 450 526 \$0-drumsout 0;
#X obj 71 -63 t b f b;
#X obj 256 -37 t b f b;
#X msg 117 -21 152;
#X obj 71 8 pack f f f;
#X msg 302 -15 152;
#X obj 256 14 pack f f f;
#X obj 119 216 unpack f f f;
#X floatatom 233 236 5 0 0 0 - - -, f 5;
#X floatatom 271 236 5 0 0 0 - - -, f 5;
#X floatatom 310 236 5 0 0 0 - - -, f 5;
#X msg 119 190 \$2 \$1 \$3;
#X obj 118 280 midiout 2;
#X obj 28 -72 inlet;
#X obj 366 -50 inlet;
#X obj 193 -12 v adrum;
#X obj 15 -10 v bdrum;
#X connect 0 0 15 0;
#X connect 0 1 3 1;
#X connect 0 2 2 0;
#X connect 1 0 14 0;
#X connect 1 1 5 1;
#X connect 1 2 4 0;
#X connect 2 0 3 2;
#X connect 3 0 10 0;
#X connect 4 0 5 2;
#X connect 5 0 10 0;
#X connect 6 0 7 0;
#X connect 6 0 11 0;
#X connect 6 1 8 0;
#X connect 6 1 11 0;
#X connect 6 2 9 0;
#X connect 6 2 11 0;
#X connect 10 0 6 0;
#X connect 12 0 0 0;
#X connect 13 0 1 0;
#X connect 14 0 5 0;
#X connect 15 0 3 0;
#X restore 52 467 pd \$0-drumsout;
#X floatatom 265 390 5 0 0 0 - - -, f 5;
#X connect 0 0 11 0;
#X connect 1 0 6 0;
#X connect 2 0 1 0;
#X connect 2 1 3 0;
#X connect 3 0 4 0;
#X connect 4 0 5 1;
#X connect 6 0 7 0;
#X connect 6 1 8 0;
#X connect 6 2 9 0;
#X connect 7 0 5 0;
#X connect 8 0 5 0;
#X connect 9 0 5 0;
#X connect 10 0 2 0;
#X connect 11 0 10 1;
#X connect 11 1 10 0;
#X connect 11 2 12 0;
#X connect 11 3 3 0;
#X connect 11 3 13 0;
#X connect 12 0 5 0;
#X connect 13 0 14 0;
#X connect 13 0 22 0;
#X connect 14 0 15 0;
#X connect 14 1 17 0;
#X connect 15 0 21 0;
#X connect 16 0 15 1;
#X connect 17 0 21 1;
#X connect 18 0 17 1;
#X restore 305 600 pd guistuffagai;
#X floatatom 695 67 5 0 0 3 tOSC-STEPS2 - #0-toscSTEPS2, f 5;
#X obj 456 170 r clk_tick;
#X floatatom 322 305 5 0 0 0 - - -, f 5;
#X obj 489 258 + 1;
#X obj 456 195 mod 12;
#X obj 456 220 sel 0;
#X obj 457 260 f;
#X obj 305 265 - 1;
#X obj 538 180 tgl 15 0 empty \$0-clk_tgl clk_tgl 20 5 0 10 #fcfcfc
#000000 #000000 0 1;
#X obj 538 203 sel 1;
#X obj 409 294 mod 16;
#X floatatom 409 319 5 0 0 0 - - -, f 5;
#X floatatom 529 299 5 0 0 2 step_count step_count -, f 5;
#X floatatom 305 563 5 0 0 0 - - -, f 5;
#N canvas 352 213 450 308 \$0-autosave 0;
#X msg 27 170 menusave;
#X obj 27 105 tgl 15 0 empty empty empty 17 7 0 10 #fcfcfc #000000
#000000 1 1;
#X obj 27 130 metro 1000;
#X msg 114 84 5;
#X obj 114 107 * 60000;
#X floatatom 114 129 8 0 0 0 - - -, f 8;
#X obj 27 7 loadbang;
#X obj 27 76 t b b;
#X obj 27 36 del 4000;
#X obj 27 199 s pd-eucgui777.pd;
#X connect 0 0 9 0;
#X connect 1 0 2 0;
#X connect 2 0 0 0;
#X connect 3 0 4 0;
#X connect 4 0 5 0;
#X connect 4 0 2 1;
#X connect 6 0 8 0;
#X connect 7 0 1 0;
#X connect 7 1 3 0;
#X connect 8 0 7 0;
#X restore 449 26 pd \$0-autosave;
#X connect 20 0 71 0;
#X connect 20 0 85 0;
#X connect 21 0 20 1;
#X connect 22 0 23 0;
#X connect 23 0 20 0;
#X connect 24 0 26 0;
#X connect 25 0 22 0;
#X connect 26 0 27 0;
#X connect 26 1 28 0;
#X connect 26 2 29 0;
#X connect 26 3 30 0;
#X connect 26 4 31 0;
#X connect 26 5 33 0;
#X connect 26 6 34 0;
#X connect 26 7 35 0;
#X connect 26 8 32 0;
#X connect 27 0 25 1;
#X connect 28 0 25 1;
#X connect 29 0 25 1;
#X connect 30 0 25 1;
#X connect 31 0 25 1;
#X connect 32 0 25 1;
#X connect 33 0 25 1;
#X connect 34 0 25 1;
#X connect 35 0 25 1;
#X connect 36 0 79 0;
#X connect 37 0 25 0;
#X connect 38 0 37 1;
#X connect 40 0 41 0;
#X connect 41 0 42 0;
#X connect 41 1 43 0;
#X connect 41 2 44 0;
#X connect 41 3 45 0;
#X connect 41 4 46 0;
#X connect 41 5 47 0;
#X connect 41 6 48 0;
#X connect 41 7 49 0;
#X connect 41 8 50 0;
#X connect 62 0 27 0;
#X connect 69 0 41 0;
#X connect 70 0 72 0;
#X connect 73 0 76 0;
#X connect 75 0 78 1;
#X connect 76 0 77 0;
#X connect 77 0 78 0;
#X connect 78 0 75 0;
#X connect 78 0 82 0;
#X connect 79 0 37 0;
#X connect 79 0 74 0;
#X connect 80 0 81 0;
#X connect 81 1 78 1;
#X connect 82 0 83 0;
#X connect 84 0 82 1;
#X coords 0 -1 1 1 185 435 1 100 100;
