#N canvas 314 44 966 651 12;
#X floatatom 440 121 12 0 0 1 value - -, f 12;
#X symbolatom 399 142 15 0 0 1 event_code - -, f 15;
#X symbolatom 359 163 15 0 0 1 event_type - -, f 15;
#X obj 359 99 unpack s s f;
#N canvas 19 56 570 445 serin 0;
#X obj 286 61 cnv 15 30 15 empty \$0-open-canvas 8 4 8 0 14 #e0e0e0
#000000 0;
#X obj 60 61 hradio 15 1 1 15 empty empty empty 0 -6 0 8 #d8fcd8 #000000
#000000 8;
#X obj 60 13 inlet;
#X msg 196 131 label \$1;
#X obj 196 109 makefilename %d;
#X obj 59 88 int;
#X msg 201 236 set \$1 \$2;
#X obj 59 196 trigger bang anything;
#X obj 201 216 list;
#X msg 60 150 open \$1;
#X obj 196 154 send \$0-open-canvas;
#X msg 192 358 close;
#X msg 192 323 refresh;
#X msg 109 295 poll 2;
#X msg 185 297 open 8;
#X obj 109 331 hid;
#X obj 109 267 t b a;
#X obj 109 399 outlet;
#X connect 1 0 5 0;
#X connect 2 0 1 0;
#X connect 3 0 10 0;
#X connect 4 0 3 0;
#X connect 5 0 4 0;
#X connect 5 0 9 0;
#X connect 6 0 16 0;
#X connect 7 0 16 0;
#X connect 7 1 8 0;
#X connect 8 0 6 0;
#X connect 9 0 7 0;
#X connect 11 0 15 0;
#X connect 12 0 15 0;
#X connect 13 0 15 0;
#X connect 14 0 15 0;
#X connect 15 0 17 0;
#X connect 16 0 13 0;
#X connect 16 1 14 0;
#X coords 0 -1 1 1 257 17 1 60 60;
#X restore 52 43 pd serin;
#X obj 52 287 s, f 4;
#X obj 52 252 f, f 10;
#X obj 52 176 unpack s f;
#X obj 52 210 t b s;
#X symbolatom 151 230 10 0 0 0 - - -, f 10;
#X obj 52 79 route key abs, f 17;
#X floatatom 110 138 6 0 0 0 - - -, f 6;
#X floatatom 167 138 6 0 0 0 - - -, f 6;
#X floatatom 225 138 6 0 0 0 - - -, f 6;
#X floatatom 283 138 6 0 0 0 - - -, f 6;
#X obj 110 115 route abs_x abs_y abs_z abs_rz;
#X floatatom 152 272 5 0 0 0 - - -, f 5;
#X connect 3 0 2 0;
#X connect 3 1 1 0;
#X connect 3 2 0 0;
#X connect 4 0 10 0;
#X connect 4 0 3 0;
#X connect 6 0 5 0;
#X connect 6 0 16 0;
#X connect 7 0 8 0;
#X connect 7 1 6 1;
#X connect 8 0 6 0;
#X connect 8 1 5 1;
#X connect 8 1 9 0;
#X connect 10 0 7 0;
#X connect 10 1 15 0;
#X connect 15 0 11 0;
#X connect 15 1 12 0;
#X connect 15 2 13 0;
#X connect 15 3 14 0;
