#N canvas 2215 348 1051 601 12;
#X obj 641 112 netOSC;
#X obj 655 23 tgl 25 0 tgl-print-1 empty print1 27 10 0 10 #fcfcfc
#000000 #00d211 0 1;
#X obj 915 86 arpeggiator;
#X obj 724 10 ps3;
#X obj 671 267 audio-input;
#N canvas 411 403 646 360 chord_grid_gui 0;
#X obj 383 111 s udpOUT2;
#X obj 59 113 s udpOUT2;
#X obj 128 -11 list tosymbol;
#X msg 128 -44 32;
#X obj 59 68 pack f s;
#X obj 128 -80 loadbang;
#X obj 58 -140 inlet;
#X obj 58 -98 sel 0 1;
#X msg 58 90 \$2 chord L-\$1;
#X obj 59 -10 ct1u;
#X floatatom 94 19 3 0 0 0 - - -, f 3;
#X floatatom 69 19 3 0 0 0 - - -, f 3;
#X msg 366 -110 G#;
#X symbolatom 451 7 10 0 0 0 - - -, f 10;
#X obj 383 34 pack f s;
#X msg 383 84 \$2 chord keysig;
#X obj 383 -14 t b s;
#X msg 383 10 1;
#X obj 400 -89 list tosymbol;
#X msg 400 -112 32;
#X connect 2 0 4 1;
#X connect 3 0 2 0;
#X connect 3 0 9 1;
#X connect 4 0 8 0;
#X connect 5 0 3 0;
#X connect 6 0 7 0;
#X connect 7 0 9 0;
#X connect 8 0 1 0;
#X connect 9 0 11 0;
#X connect 9 0 4 0;
#X connect 9 1 10 0;
#X connect 12 0 16 0;
#X connect 14 0 15 0;
#X connect 15 0 0 0;
#X connect 16 0 17 0;
#X connect 16 1 14 1;
#X connect 16 1 13 0;
#X connect 17 0 14 0;
#X connect 18 0 16 0;
#X connect 19 0 18 0;
#X restore 923 229 pd chord_grid_gui;
#X obj 947 314 s no2_time;
#X msg 954 283 10;
#X obj 234 129 euc_drums_kick_snare;
#X obj 445 128 euc_drums_hh_fills;
#X obj 8 130 cv_generator;
#X obj 9 5 clock;
#X obj 430 6 midiio;
#X connect 7 0 6 0;
#X connect 11 0 8 0;
#X connect 11 0 9 0;
#X connect 11 0 10 0;
#X coords 0 0 1 1 85 60 0;
