#N canvas 300 258 842 399 12;
#N canvas 382 227 434 376 \$0-keys 0;
#X obj 22 -6 r parsedOSC;
#N canvas 74 158 833 462 chanoctv 0;
#X msg 254 247 1;
#X msg 296 247 2;
#X msg 338 247 3;
#X msg 380 247 4;
#X msg 422 247 5;
#X msg 464 247 6;
#X msg 506 247 7;
#X msg 548 247 8;
#X msg 596 247 9;
#X msg 644 247 10;
#X msg 688 247 11;
#X msg 734 247 12;
#X msg 776 247 13;
#X msg 818 247 14;
#X msg 860 247 15;
#X msg 908 247 16;
#X floatatom 254 267 5 0 0 0 - - -, f 5;
#X msg 794 52 10;
#X msg 738 52 9;
#X msg 682 52 8;
#X msg 627 52 7;
#X msg 571 52 6;
#X msg 515 52 5;
#X msg 460 52 4;
#X msg 404 52 3;
#X msg 348 52 2;
#X msg 293 52 1;
#X floatatom 293 72 5 0 0 0 - - -, f 5;
#X obj 293 32 route key_c#2 key_d#2 key_f#2 key_g#2 key_a#2 key_c#
key_d# key_f# key_g# key_a#, f 80;
#X obj 255 206 route key_c2-2 key_d2 key_e2 key_f2 key_g2 key_a2 key_b2
key_c3 key_c key_d key_e key_f key_g key_a key_b key_c2-1, f 100;
#X obj 325 123 outlet;
#X obj 287 356 outlet;
#X obj 254 9 inlet;
#X obj 34 315 bng 15 250 50 0 empty empty empty 17 7 0 10 #fcfcfc #000000
#000000;
#X obj 34 380 s udpOUT2;
#X msg 34 357 0 keys chanoctv;
#X obj 293 92 t b f;
#X obj 254 295 t b f;
#X obj 381 365 s udpOUT2;
#X obj 381 314 tosym;
#X msg 381 342 \$1 keys chanGUI;
#X obj 382 154 s udpOUT2;
#X msg 382 130 \$1 keys octvGUI;
#X obj 382 106 tosym;
#X obj 34 112 bng 15 250 50 0 empty empty empty 17 7 0 10 #fcfcfc #000000
#000000;
#X floatatom 167 137 5 0 0 2 keyOctave #0-keyOctave -, f 5;
#X floatatom 658 120 5 0 0 3 keyOctave - keyOctave, f 5;
#N canvas 0 492 908 521 chaoctv_gui 0;
#X obj 241 211 s udpOUT2;
#X obj 241 166 pack f s;
#X msg 241 188 \$2 keys ch\$1;
#X obj 241 -28 until;
#X obj 271 5 + 1;
#X obj 241 5 f;
#X floatatom 244 25 3 0 0 0 - - -, f 3;
#X obj 301 25 sel 15;
#X msg 301 54 0, f 1;
#X floatatom 301 -17 1 0 0 0 - - -, f 1;
#X msg 241 -61 16, f 2;
#X obj 241 53 + 1;
#X obj 59 -33 until;
#X obj 89 0 + 1;
#X obj 59 0 f;
#X floatatom 62 20 3 0 0 0 - - -, f 3;
#X msg 119 49 0, f 1;
#X floatatom 119 -25 1 0 0 0 - - -, f 1;
#X obj 59 48 + 1;
#X msg 59 -62 10, f 2;
#X obj 119 20 sel 9;
#X obj 59 205 s udpOUT2;
#X obj 128 131 list tosymbol;
#X msg 128 108 32;
#X obj 59 160 pack f s;
#X obj 128 84 loadbang;
#X msg 59 182 \$2 keys ocv\$1;
#X obj 682 209 s udpOUT2;
#X msg 682 186 \$2 keys ch\$1;
#X obj 682 -30 until;
#X obj 712 3 + 1;
#X obj 682 3 f;
#X floatatom 685 23 3 0 0 0 - - -, f 3;
#X obj 742 23 sel 15;
#X msg 742 52 0, f 1;
#X floatatom 742 -19 1 0 0 0 - - -, f 1;
#X msg 682 -63 16, f 2;
#X obj 682 51 + 1;
#X obj 500 -35 until;
#X obj 530 -2 + 1;
#X obj 500 -2 f;
#X floatatom 503 18 3 0 0 0 - - -, f 3;
#X msg 560 47 0, f 1;
#X floatatom 560 -27 1 0 0 0 - - -, f 1;
#X obj 500 46 + 1;
#X msg 500 -64 10, f 2;
#X obj 560 18 sel 9;
#X obj 500 206 s udpOUT2;
#X msg 500 182 \$2 keys ocv\$1;
#X obj 500 82 t f f;
#X obj 682 80 t f f;
#X obj 532 113 tosym;
#X obj 500 149 pack f s;
#X obj 722 118 tosym;
#X obj 682 164 pack f s;
#X obj 58 -140 inlet;
#X obj 403 -116 sel 0 1;
#X obj 133 -87 bng 15 250 50 0 empty empty empty 17 7 0 10 #fcfcfc
#000000 #000000;
#X obj 610 -90 bng 15 250 50 0 empty empty empty 17 7 0 10 #fcfcfc
#000000 #000000;
#X connect 1 0 2 0;
#X connect 2 0 0 0;
#X connect 3 0 5 0;
#X connect 4 0 5 1;
#X connect 5 0 4 0;
#X connect 5 0 6 0;
#X connect 5 0 7 0;
#X connect 5 0 11 0;
#X connect 7 0 8 0;
#X connect 8 0 9 0;
#X connect 9 0 5 1;
#X connect 10 0 3 0;
#X connect 11 0 1 0;
#X connect 12 0 14 0;
#X connect 13 0 14 1;
#X connect 14 0 13 0;
#X connect 14 0 15 0;
#X connect 14 0 18 0;
#X connect 14 0 20 0;
#X connect 16 0 17 0;
#X connect 17 0 14 1;
#X connect 18 0 24 0;
#X connect 19 0 12 0;
#X connect 20 0 16 0;
#X connect 22 0 24 1;
#X connect 22 0 1 1;
#X connect 23 0 22 0;
#X connect 24 0 26 0;
#X connect 25 0 23 0;
#X connect 26 0 21 0;
#X connect 28 0 27 0;
#X connect 29 0 31 0;
#X connect 30 0 31 1;
#X connect 31 0 30 0;
#X connect 31 0 32 0;
#X connect 31 0 33 0;
#X connect 31 0 37 0;
#X connect 33 0 34 0;
#X connect 34 0 35 0;
#X connect 35 0 31 1;
#X connect 36 0 29 0;
#X connect 37 0 50 0;
#X connect 38 0 40 0;
#X connect 39 0 40 1;
#X connect 40 0 39 0;
#X connect 40 0 41 0;
#X connect 40 0 44 0;
#X connect 40 0 46 0;
#X connect 42 0 43 0;
#X connect 43 0 40 1;
#X connect 44 0 49 0;
#X connect 45 0 38 0;
#X connect 46 0 42 0;
#X connect 48 0 47 0;
#X connect 49 0 52 0;
#X connect 49 1 51 0;
#X connect 50 0 54 0;
#X connect 50 1 53 0;
#X connect 51 0 52 1;
#X connect 52 0 48 0;
#X connect 53 0 54 1;
#X connect 54 0 28 0;
#X connect 55 0 56 0;
#X connect 56 0 57 0;
#X connect 56 1 58 0;
#X connect 57 0 19 0;
#X connect 57 0 10 0;
#X connect 58 0 45 0;
#X connect 58 0 36 0;
#X restore 31 38 pd chaoctv_gui;
#X obj 31 14 tgl 15 0 empty \$0-chan_octv_tgl chan_octv 17 7 0 10 #fcfcfc
#000000 #104800 0 1;
#X obj 154 377 tgl 30 0 \$0-chan_octv_OFF empty chanoctv_OFF -18 35
0 10 #fcfcfc #000000 #1d7a02 0 1;
#X msg 154 357 0;
#X connect 0 0 16 0;
#X connect 1 0 16 0;
#X connect 2 0 16 0;
#X connect 3 0 16 0;
#X connect 4 0 16 0;
#X connect 5 0 16 0;
#X connect 6 0 16 0;
#X connect 7 0 16 0;
#X connect 8 0 16 0;
#X connect 9 0 16 0;
#X connect 10 0 16 0;
#X connect 11 0 16 0;
#X connect 12 0 16 0;
#X connect 13 0 16 0;
#X connect 14 0 16 0;
#X connect 15 0 16 0;
#X connect 16 0 37 0;
#X connect 17 0 27 0;
#X connect 18 0 27 0;
#X connect 19 0 27 0;
#X connect 20 0 27 0;
#X connect 21 0 27 0;
#X connect 22 0 27 0;
#X connect 23 0 27 0;
#X connect 24 0 27 0;
#X connect 25 0 27 0;
#X connect 26 0 27 0;
#X connect 27 0 36 0;
#X connect 28 0 26 0;
#X connect 28 1 25 0;
#X connect 28 2 24 0;
#X connect 28 3 23 0;
#X connect 28 4 22 0;
#X connect 28 5 21 0;
#X connect 28 6 20 0;
#X connect 28 7 19 0;
#X connect 28 8 18 0;
#X connect 28 9 17 0;
#X connect 29 0 0 0;
#X connect 29 1 1 0;
#X connect 29 2 2 0;
#X connect 29 3 3 0;
#X connect 29 4 4 0;
#X connect 29 5 5 0;
#X connect 29 6 6 0;
#X connect 29 7 7 0;
#X connect 29 8 8 0;
#X connect 29 9 9 0;
#X connect 29 10 10 0;
#X connect 29 11 11 0;
#X connect 29 12 12 0;
#X connect 29 13 13 0;
#X connect 29 14 14 0;
#X connect 29 15 15 0;
#X connect 32 0 28 0;
#X connect 32 0 29 0;
#X connect 33 0 50 0;
#X connect 33 0 35 0;
#X connect 35 0 34 0;
#X connect 36 0 44 0;
#X connect 36 1 30 0;
#X connect 36 1 43 0;
#X connect 36 1 46 0;
#X connect 37 0 33 0;
#X connect 37 1 31 0;
#X connect 37 1 39 0;
#X connect 39 0 40 0;
#X connect 40 0 38 0;
#X connect 42 0 41 0;
#X connect 43 0 42 0;
#X connect 44 0 33 0;
#X connect 45 0 42 0;
#X connect 48 0 47 0;
#X connect 50 0 49 0;
#X restore 157 224 pd chanoctv;
#X floatatom 369 245 5 0 0 3 keyOctave from_sel_btn #0-keyOctave,
f 5;
#X floatatom 157 246 4 0 0 3 MIDICH - #0-keys_MIDICH, f 4;
#X obj 166 56 route z;
#X obj 22 175 list prepend;
#X obj 22 199 route 0 1, f 39;
#X obj 166 83 tgl 15 0 \$0-chan_octv_tgl \$0-chan_octv_OFF chan_octv
16 9 0 10 #fcfcfc #000000 #104800 0 1;
#X obj 103 147 tgl 15 0 empty \$0-chan_octv_tgl chan_octv -57 7 0 10
#fcfcfc #000000 #104800 0 1;
#X floatatom 231 246 5 0 0 3 keyOctave - #0-keyOctave, f 5;
#X obj 266 56 route z;
#X obj 266 79 sel 1;
#X obj 266 104 bng 15 250 50 0 \$0-midipanic empty PANIC 17 7 0 10
#fcfcfc #000000 #009c0d;
#X obj 166 29 route chanoctv mpanic, f 29;
#N canvas 121 265 813 480 \$0-keynotes 0;
#X msg 33 69 \$1 60;
#X msg 81 69 \$1 61;
#X msg 125 69 \$1 62;
#X msg 171 69 \$1 63;
#X msg 213 69 \$1 64;
#X msg 255 69 \$1 65;
#X msg 297 69 \$1 66;
#X msg 345 69 \$1 67;
#X msg 392 69 \$1 68;
#X msg 445 69 \$1 69;
#X msg 491 69 \$1 70;
#X msg 536 69 \$1 71;
#X msg 581 69 \$1 72;
#X obj 719 211 * 12;
#X obj 157 280 +;
#X obj 29 278 +;
#X obj 719 188 - 6;
#X obj 29 349 s \$0-noteon;
#X obj 157 352 s \$0-noteoff-CHG;
#X obj 33 89 route 1 0;
#X obj 15 12 inlet;
#X msg 33 146 \$1 60;
#X msg 89 146 \$1 61;
#X msg 133 146 \$1 62;
#X msg 179 146 \$1 63;
#X msg 221 146 \$1 64;
#X msg 263 146 \$1 65;
#X msg 305 146 \$1 66;
#X msg 353 146 \$1 67;
#X msg 400 146 \$1 68;
#X msg 453 146 \$1 69;
#X msg 499 146 \$1 70;
#X msg 544 146 \$1 71;
#X msg 589 146 \$1 72;
#X obj 77 198 + 12;
#X obj 33 196 + 12;
#X obj 33 44 route key_c key_c# key_d key_d# key_e key_f key_f# key_g
key_g# key_a key_a# key_b key_c2-1, f 92;
#X obj 33 126 route key_c2-2 key_c#2 key_d2 key_d#2 key_e2 key_f2 key_f#2
key_g2 key_g#2 key_a2 key_a#2 key_b2 key_c3, f 104;
#X floatatom 719 12 5 0 0 2 keyOctave #0-keyOctave -, f 5;
#X obj 33 166 route 1 0;
#X obj 29 307 no2;
#X obj 157 309 no2;
#X floatatom 47 327 3 0 0 0 - - -, f 3;
#X floatatom 175 330 3 0 0 0 - - -, f 3;
#X connect 0 0 19 0;
#X connect 1 0 19 0;
#X connect 3 0 19 0;
#X connect 4 0 19 0;
#X connect 5 0 19 0;
#X connect 6 0 19 0;
#X connect 7 0 19 0;
#X connect 8 0 19 0;
#X connect 9 0 19 0;
#X connect 10 0 19 0;
#X connect 11 0 19 0;
#X connect 12 0 19 0;
#X connect 13 0 14 1;
#X connect 13 0 15 1;
#X connect 14 0 41 0;
#X connect 15 0 40 0;
#X connect 16 0 13 0;
#X connect 19 0 15 0;
#X connect 19 1 14 0;
#X connect 20 0 36 0;
#X connect 20 0 37 0;
#X connect 21 0 39 0;
#X connect 22 0 39 0;
#X connect 23 0 39 0;
#X connect 24 0 39 0;
#X connect 25 0 39 0;
#X connect 26 0 39 0;
#X connect 27 0 39 0;
#X connect 28 0 39 0;
#X connect 29 0 39 0;
#X connect 30 0 39 0;
#X connect 31 0 39 0;
#X connect 32 0 39 0;
#X connect 33 0 39 0;
#X connect 34 0 14 0;
#X connect 35 0 15 0;
#X connect 36 0 0 0;
#X connect 36 1 1 0;
#X connect 36 2 2 0;
#X connect 36 3 3 0;
#X connect 36 4 4 0;
#X connect 36 5 5 0;
#X connect 36 6 6 0;
#X connect 36 7 7 0;
#X connect 36 8 8 0;
#X connect 36 9 9 0;
#X connect 36 10 10 0;
#X connect 36 11 11 0;
#X connect 36 12 12 0;
#X connect 37 0 21 0;
#X connect 37 1 22 0;
#X connect 37 2 23 0;
#X connect 37 3 24 0;
#X connect 37 4 25 0;
#X connect 37 5 26 0;
#X connect 37 6 27 0;
#X connect 37 7 28 0;
#X connect 37 8 29 0;
#X connect 37 9 30 0;
#X connect 37 10 31 0;
#X connect 37 11 32 0;
#X connect 37 12 33 0;
#X connect 38 0 16 0;
#X connect 39 0 35 0;
#X connect 39 1 34 0;
#X connect 40 0 17 0;
#X connect 40 1 42 0;
#X connect 41 0 18 0;
#X connect 41 1 43 0;
#X restore 22 224 pd \$0-keynotes;
#X connect 0 0 5 0;
#X connect 0 0 13 0;
#X connect 1 0 3 0;
#X connect 1 1 9 0;
#X connect 4 1 7 0;
#X connect 5 0 6 0;
#X connect 6 0 14 0;
#X connect 6 1 1 0;
#X connect 8 0 5 1;
#X connect 10 0 11 0;
#X connect 11 0 12 0;
#X connect 13 0 4 0;
#X connect 13 1 10 0;
#X restore 243 75 pd \$0-keys;
#X obj 14 236 unpack f f f;
#X floatatom 103 256 3 0 0 0 - - #0-last_velocity, f 3;
#X floatatom 126 256 3 0 0 0 - - #0-last_note, f 3;
#X floatatom 150 256 3 0 0 0 - - -, f 3;
#X obj 14 256 midiout 1;
#X obj 14 162 r \$0-toMidiOut;
#X obj 538 104 t f f;
#X obj 570 126 pipe;
#X obj 712 50 r toMidiOut2;
#X obj 245 226 unpack f f f;
#X floatatom 312 253 3 0 0 0 - - #0-last_velocity, f 3;
#X floatatom 336 253 3 0 0 0 - - #0-last_note, f 3;
#X floatatom 360 253 3 0 0 0 - - -, f 3;
#X obj 245 253 midiout 2;
#N canvas 6 58 390 202 \$0-osc 0;
#X obj 14 14 r parsedOSC;
#X floatatom 141 107 5 0 0 0 - - -, f 5;
#N canvas 504 44 680 676 \$0-MOUT 0;
#X obj 161 72 inlet;
#X obj 262 523 outlet;
#X obj 294 136 list split 1;
#X obj 170 102 list split 1;
#X obj 216 183 list fromsymbol;
#X obj 264 345 unpack;
#X obj 269 374 - 48;
#X obj 318 377 - 48;
#X obj 269 447 +;
#X floatatom 269 476 5 0 0 0 - - -, f 5;
#X obj 242 243 list length;
#X obj 219 285 list prepend;
#X obj 216 212 t a a;
#X obj 219 314 route 1 2;
#X obj 269 403 * 10;
#X obj 208 356 - 48;
#X obj 71 112 route z;
#X connect 0 0 16 0;
#X connect 2 0 4 0;
#X connect 3 1 2 0;
#X connect 4 0 12 0;
#X connect 5 0 6 0;
#X connect 5 1 7 0;
#X connect 6 0 14 0;
#X connect 7 0 8 1;
#X connect 8 0 9 0;
#X connect 9 0 1 0;
#X connect 10 0 11 1;
#X connect 11 0 13 0;
#X connect 12 0 11 0;
#X connect 12 1 10 0;
#X connect 13 0 15 0;
#X connect 13 1 5 0;
#X connect 14 0 8 0;
#X connect 15 0 9 0;
#X connect 16 1 3 0;
#X restore 14 74 pd \$0-MOUT;
#N canvas 502 347 680 676 \$0-JSCONF 0;
#X obj 161 72 inlet;
#X obj 262 523 outlet;
#X obj 294 136 list split 1;
#X obj 170 102 list split 1;
#X obj 216 183 list fromsymbol;
#X obj 264 345 unpack;
#X obj 269 374 - 48;
#X obj 318 377 - 48;
#X obj 269 447 +;
#X floatatom 269 476 5 0 0 0 - - -, f 5;
#X obj 242 243 list length;
#X obj 219 285 list prepend;
#X obj 216 212 t a a;
#X obj 219 314 route 1 2;
#X obj 269 403 * 10;
#X obj 208 356 - 48;
#X obj 71 112 route z;
#X connect 0 0 16 0;
#X connect 2 0 4 0;
#X connect 3 1 2 0;
#X connect 4 0 12 0;
#X connect 5 0 6 0;
#X connect 5 1 7 0;
#X connect 6 0 14 0;
#X connect 7 0 8 1;
#X connect 8 0 9 0;
#X connect 9 0 1 0;
#X connect 10 0 11 1;
#X connect 11 0 13 0;
#X connect 12 0 11 0;
#X connect 12 1 10 0;
#X connect 13 0 15 0;
#X connect 13 1 5 0;
#X connect 14 0 8 0;
#X connect 15 0 9 0;
#X connect 16 1 3 0;
#X restore 141 74 pd \$0-JSCONF;
#X floatatom 14 107 4 0 0 3 MOUT_MODE - #0-mout_mode, f 4;
#X obj 14 44 route midiout_mode js_mode, f 37;
#X connect 0 0 5 0;
#X connect 2 0 4 0;
#X connect 3 0 1 0;
#X connect 5 0 2 0;
#X connect 5 1 3 0;
#X restore 337 11 pd \$0-osc;
#X obj 538 241 pack f f f;
#X floatatom 571 222 3 0 0 2 vON #0-midi_velocity -, f 3;
#X obj 656 241 pack f f f;
#X msg 602 215 144;
#X msg 721 217 128;
#X obj 704 172 loadbang;
#X floatatom 689 222 3 0 0 2 vOFF #0-midi_velocityOFF -, f 3;
#X obj 80 35 nbx 3 20 -1e+37 1e+37 0 0 empty \$0-keys_MIDICH Channel
-59 8 0 14 #000000 #ffffff #007f03 0 256 0;
#X obj 81 58 nbx 3 20 -1e+37 1e+37 0 0 empty \$0-last_note Note -59
8 0 14 #000000 #ffffff #007f03 0 256 0;
#X obj 80 81 nbx 3 20 -1e+37 1e+37 0 0 empty \$0-last_velocity Velocity
-59 8 0 12 #000000 #ffffff #007f03 0 256 0;
#X text 16 11 MIDI;
#N canvas 705 188 450 400 \$0-init 0;
#X obj 147 54 loadbang;
#X obj 147 112 shell;
#X msg 147 83 /home/pi/JACK_purr2;
#X floatatom 74 211 4 0 0 3 MOUT_MODE - #0-mout_mode, f 4;
#X msg 76 117 1;
#X floatatom 245 241 3 0 0 3 vON - #0-midi_velocity, f 3;
#X floatatom 283 241 3 0 0 3 chON - #0-midi_noteON, f 3;
#X floatatom 364 241 3 0 0 3 chOFF - #0-midi_noteOFF, f 3;
#X floatatom 329 241 3 0 0 3 vOFF - #0-midi_velocityOFF, f 3;
#X floatatom 283 186 4 0 0 2 MIDICH #0-keys_MIDICH -, f 4;
#X obj 283 213 + 143;
#X obj 364 213 + 127;
#X msg 245 213 64;
#X msg 329 213 0;
#X connect 0 0 2 0;
#X connect 0 0 4 0;
#X connect 2 0 1 0;
#X connect 4 0 3 0;
#X connect 9 0 10 0;
#X connect 9 0 11 0;
#X connect 9 0 12 0;
#X connect 9 0 13 0;
#X connect 10 0 6 0;
#X connect 11 0 7 0;
#X connect 12 0 5 0;
#X connect 13 0 8 0;
#X restore 230 16 pd \$0-init;
#N canvas 145 349 450 325 \$0-autosave 0;
#X msg 27 170 menusave;
#X obj 27 105 tgl 15 0 empty empty empty 17 7 0 10 #fcfcfc #000000
#000000 1 1;
#X obj 27 130 metro 1000;
#X msg 114 84 5;
#X obj 114 107 * 60000;
#X floatatom 114 129 8 0 0 0 - - -, f 8;
#X obj 27 47 loadbang;
#X obj 27 76 t b b;
#X obj 124 24 bng 15 250 50 0 empty empty empty 17 7 0 10 #fcfcfc #000000
#000000;
#X obj 27 199 s pd-midiout_patch.pd;
#X connect 0 0 9 0;
#X connect 1 0 2 0;
#X connect 2 0 0 0;
#X connect 3 0 4 0;
#X connect 4 0 5 0;
#X connect 4 0 2 1;
#X connect 6 0 7 0;
#X connect 7 0 1 0;
#X connect 7 1 3 0;
#X connect 8 0 7 0;
#X restore 410 11 pd \$0-autosave;
#N canvas 37 129 450 325 \$0-mixer-drums+inst 0;
#X obj 48 20 ctlin;
#X obj 48 50 pack f f f;
#X obj 48 108 route 17;
#X msg 48 79 \$3 \$2 \$1;
#X obj 10 249 s tofilldrums;
#X floatatom 202 208 3 0 0 3 vON - #0-midi_velocity, f 3;
#X obj 48 137 route 70;
#X floatatom 48 166 5 0 0 0 - - -, f 5;
#X connect 0 0 1 0;
#X connect 0 1 1 1;
#X connect 0 2 1 2;
#X connect 1 0 3 0;
#X connect 2 0 4 0;
#X connect 2 0 6 0;
#X connect 3 0 2 0;
#X connect 6 0 7 0;
#X connect 6 0 5 0;
#X restore 516 8 pd \$0-mixer-drums+inst;
#X floatatom 662 90 5 0 0 3 arp-pulse-time arp-pulse-time -, f 5;
#X obj 504 330 unpack f f f;
#X floatatom 593 350 3 0 0 0 - - #0-last_velocity, f 3;
#X floatatom 616 350 3 0 0 0 - - #0-last_note, f 3;
#X floatatom 640 350 3 0 0 0 - - -, f 3;
#X msg 547 310 \$2 \$1 \$3;
#X obj 504 350 midiout 3;
#X msg 541 292 64 64 176;
#N canvas 22 273 638 419 \$0-mod-pb 0;
#X obj 141 16 r parsedOSC;
#X obj 141 40 route modwh-osc pbend-osc, f 33;
#N canvas 256 44 638 676 \$0-modwh 0;
#X obj 196 271 line;
#X obj 297 161 t b b;
#X obj 297 238 f;
#X msg 297 187 0 200 0;
#X obj 14 345 s udpOUT2;
#X obj 196 -24 t a a;
#X obj 196 6 list length;
#X obj 196 31 list append;
#X obj 196 56 route 1 2, f 18;
#X floatatom 196 82 5 0 0 0 - - -, f 5;
#X obj 257 85 list split 1;
#X obj 297 109 change;
#X obj 297 135 sel 0;
#X obj 196 331 i;
#X msg 14 318 \$1 keys modwh-osc;
#X obj 196 307 * 127;
#X msg 196 181 \$1 4 0;
#X obj 196 -49 inlet;
#X obj 195 390 outlet;
#X connect 0 0 14 0;
#X connect 0 0 15 0;
#X connect 1 0 3 0;
#X connect 1 1 2 0;
#X connect 2 0 0 0;
#X connect 3 0 0 0;
#X connect 5 0 6 0;
#X connect 5 1 7 1;
#X connect 6 0 7 0;
#X connect 7 0 8 0;
#X connect 8 0 9 0;
#X connect 8 1 10 0;
#X connect 9 0 2 1;
#X connect 9 0 16 0;
#X connect 10 1 11 0;
#X connect 11 0 12 0;
#X connect 12 0 1 0;
#X connect 13 0 18 0;
#X connect 14 0 4 0;
#X connect 15 0 13 0;
#X connect 16 0 0 0;
#X connect 17 0 5 0;
#X restore 141 76 pd \$0-modwh;
#X floatatom 392 40 5 0 0 2 js_x js_x -, f 5;
#N canvas 175 144 522 676 MOD+JS_FILTER 0;
#X obj 52 411 line;
#X obj 138 340 t b b;
#X obj 107 387 f;
#X msg 138 384 0 200 0;
#X floatatom 53 344 5 0 0 0 - - -, f 5;
#X obj 112 324 bng 15 250 50 0 empty empty empty 17 7 0 10 #fcfcfc
#000000 #000000;
#X obj 52 292 sel 0;
#X obj 52 437 * 0.333431;
#X msg 52 383 \$1 5 0;
#X obj 50 212 / 127;
#X obj 50 462 sig~;
#X obj 53 264 - 1;
#X obj 50 241 * 2;
#X obj 237 148 * -1;
#X obj 50 79 - 128;
#X obj 237 172 clip 0 127;
#X obj 50 143 * -1;
#X obj 50 114 - 127;
#X obj 50 172 clip 0 127;
#X obj 50 31 inlet;
#X obj 50 491 outlet~;
#X obj 237 491 outlet;
#X connect 0 0 7 0;
#X connect 1 0 3 0;
#X connect 1 1 2 0;
#X connect 2 0 0 0;
#X connect 3 0 0 0;
#X connect 4 0 2 1;
#X connect 4 0 8 0;
#X connect 5 0 1 0;
#X connect 6 0 5 0;
#X connect 6 1 4 0;
#X connect 7 0 10 0;
#X connect 8 0 0 0;
#X connect 9 0 12 0;
#X connect 10 0 20 0;
#X connect 11 0 6 0;
#X connect 12 0 11 0;
#X connect 13 0 15 0;
#X connect 14 0 13 0;
#X connect 14 0 17 0;
#X connect 15 0 21 0;
#X connect 16 0 18 0;
#X connect 17 0 16 0;
#X connect 18 0 9 0;
#X connect 19 0 14 0;
#X restore 13 76 pd MOD+JS_FILTER;
#X floatatom 13 40 5 0 0 2 js_y js_y -, f 5;
#X floatatom 535 40 5 0 0 2 js_rz js_rz -, f 5;
#N canvas 59 156 710 486 \$0-js_pb_midi 0;
#X floatatom 96 243 3 0 0 0 pb-grad pb-gradient -, f 3;
#X obj 95 285 f, f 2;
#X obj 134 285 t b f;
#X obj 95 323 *;
#X obj 95 376 -;
#X obj 134 219 sel 255;
#X msg 134 243 256;
#X floatatom 113 352 5 0 0 1 pb-maxval pb-maxval -, f 5;
#X obj 90 427 s pb-out;
#X text 212 45 Joystick 1+2 to Pitchbends;
#X text 162 20 FOR PITCHBEND AND MODWHEEL;
#X obj 446 275 t b f f;
#X obj 370 231 sel 8192;
#X msg 370 256 127;
#X obj 370 388 pack f f f;
#X floatatom 531 314 5 0 0 0 - - -, f 5;
#X obj 531 314 / 128;
#X obj 531 343 + 64;
#X obj 469 314 mod 128;
#X obj 370 281 t b f f;
#X obj 370 360 f;
#X obj 370 147 r pb-out;
#X text 491 444 Pitchbend MIDI OUT;
#N canvas 0 249 1278 492 initpbmod 0;
#X obj 155 46 loadbang;
#X floatatom 111 128 5 0 0 3 pb-maxval - pb-maxval, f 5;
#X msg 111 99 8192;
#X floatatom 33 128 3 0 0 3 pb-grad - pb-gradient, f 3;
#X msg 33 106 64;
#X connect 0 0 4 0;
#X connect 0 0 2 0;
#X connect 2 0 1 0;
#X connect 4 0 3 0;
#X restore 89 63 pd initpbmod;
#X floatatom 282 284 4 0 0 2 MIDICH #0-keys_MIDICH -, f 4;
#X obj 282 318 + 223;
#X obj 115 99 inlet;
#X obj 370 552 outlet;
#X msg 370 525 \$3 \$2 \$1;
#X msg 370 439 \$1 \$1 \$2 \$3;
#X obj 370 463 route 224;
#X obj 478 533 outlet;
#X connect 0 0 1 1;
#X connect 1 0 3 0;
#X connect 2 0 1 0;
#X connect 2 1 3 1;
#X connect 3 0 4 0;
#X connect 4 0 8 0;
#X connect 5 0 6 0;
#X connect 5 1 2 0;
#X connect 6 0 2 0;
#X connect 7 0 4 1;
#X connect 11 0 20 0;
#X connect 11 1 18 0;
#X connect 11 2 16 0;
#X connect 12 0 13 0;
#X connect 12 1 11 0;
#X connect 13 0 19 0;
#X connect 14 0 29 0;
#X connect 16 0 17 0;
#X connect 17 0 14 2;
#X connect 18 0 14 1;
#X connect 19 0 20 0;
#X connect 19 1 14 1;
#X connect 19 2 14 2;
#X connect 20 0 14 0;
#X connect 21 0 12 0;
#X connect 24 0 25 0;
#X connect 25 0 20 1;
#X connect 26 0 5 0;
#X connect 28 0 27 0;
#X connect 29 0 30 0;
#X connect 30 0 28 0;
#X connect 30 1 31 0;
#X restore 392 76 pd \$0-js_pb_midi;
#N canvas 83 100 638 592 \$0-pb_midi 0;
#X obj 286 321 t b f f;
#X obj 220 271 sel 8192;
#X msg 220 296 127;
#X obj 220 418 pack f f f;
#X msg 109 491 \$3 \$2 \$1;
#X floatatom 371 354 5 0 0 0 - - -, f 5;
#X obj 371 354 / 128;
#X obj 371 383 + 64;
#X obj 309 354 mod 128;
#X obj 220 321 t b f f;
#X obj 220 390 f;
#X floatatom 11 310 4 0 0 2 MIDICH #0-keys_MIDICH -, f 4;
#X obj 11 359 + 223;
#X obj 220 12 inlet;
#X obj 220 39 route z;
#X obj 220 62 sel 0;
#X obj 220 179 line;
#X msg 336 125 \$1 4 0;
#X obj 292 125 f;
#X msg 220 125 0 200 0;
#X obj 220 86 t b b;
#X obj 15 252 s udpOUT2;
#X msg 15 225 \$1 keys pbend-osc;
#X obj 220 223 * 8192;
#X obj 220 247 i;
#X obj 109 515 outlet;
#X msg 220 442 \$1 \$1 \$2 \$3;
#X obj 220 466 route 224;
#X obj 312 520 outlet;
#X connect 0 0 10 0;
#X connect 0 1 8 0;
#X connect 0 2 6 0;
#X connect 1 0 2 0;
#X connect 1 1 0 0;
#X connect 2 0 9 0;
#X connect 3 0 26 0;
#X connect 4 0 25 0;
#X connect 6 0 7 0;
#X connect 7 0 3 2;
#X connect 8 0 3 1;
#X connect 9 0 10 0;
#X connect 9 1 3 1;
#X connect 9 2 3 2;
#X connect 10 0 3 0;
#X connect 11 0 12 0;
#X connect 12 0 10 1;
#X connect 13 0 14 0;
#X connect 14 0 15 0;
#X connect 14 1 17 0;
#X connect 14 1 18 1;
#X connect 15 0 20 0;
#X connect 16 0 22 0;
#X connect 16 0 23 0;
#X connect 17 0 16 0;
#X connect 18 0 16 0;
#X connect 19 0 16 0;
#X connect 20 0 19 0;
#X connect 20 1 18 0;
#X connect 22 0 21 0;
#X connect 23 0 24 0;
#X connect 24 0 1 0;
#X connect 26 0 27 0;
#X connect 27 0 4 0;
#X connect 27 1 28 0;
#X restore 255 76 pd \$0-pb_midi;
#X obj 535 349 s~ LFOjs;
#N canvas 0 478 450 591 \$0-lfo_cv 0;
#X obj 62 31 inlet;
#X obj 62 181 clip -1 1;
#X obj 62 107 / 127;
#X obj 62 78 - 128;
#X obj 62 136 * -1;
#X obj 62 210 sig~;
#X obj 62 264 outlet~;
#X connect 0 0 3 0;
#X connect 1 0 5 0;
#X connect 2 0 4 0;
#X connect 3 0 2 0;
#X connect 4 0 1 0;
#X connect 5 0 6 0;
#X restore 535 76 pd \$0-lfo_cv;
#X obj 116 349 s \$0-toMidiOut;
#X msg 118 161 \$1 1;
#X obj 13 349 s~ filterjs;
#X floatatom 46 134 5 0 0 3 modwheeel - #0-modwheeel, f 5;
#X obj 339 349 s \$0-toMidiOut2;
#X floatatom 202 137 4 0 0 2 MIDICH #0-keys_MIDICH -, f 4;
#X obj 202 161 + 175;
#X obj 118 192 list prepend;
#X msg 118 230 \$1 \$1 \$2 \$3;
#X obj 118 254 route 176;
#X msg 339 326 \$4 \$2 \$3;
#X obj 118 110 change;
#X connect 0 0 1 0;
#X connect 1 0 2 0;
#X connect 1 1 8 0;
#X connect 2 0 22 0;
#X connect 3 0 7 0;
#X connect 4 0 13 0;
#X connect 4 1 22 0;
#X connect 5 0 4 0;
#X connect 6 0 10 0;
#X connect 7 0 11 0;
#X connect 7 1 21 0;
#X connect 8 0 11 0;
#X connect 8 1 21 0;
#X connect 10 0 9 0;
#X connect 12 0 18 0;
#X connect 16 0 17 0;
#X connect 17 0 18 1;
#X connect 18 0 19 0;
#X connect 19 0 20 0;
#X connect 20 0 11 0;
#X connect 20 1 21 0;
#X connect 21 0 15 0;
#X connect 22 0 12 0;
#X connect 22 0 14 0;
#X restore 261 43 pd \$0-mod-pb;
#N canvas 108 296 822 424 \$0-ps3nkeys+modpb 0;
#X obj 24 10 r ps3_events;
#X floatatom 522 255 5 0 0 3 js_x - js_x, f 5;
#X floatatom 576 255 5 0 0 3 js_y - js_y, f 5;
#X floatatom 631 255 5 0 0 3 js_z - js_z, f 5;
#X floatatom 678 255 5 0 0 3 js_rz - js_rz, f 5;
#X obj 213 249 tgl 47 0 select_btn_tgl empty select 7 17 0 10 #fcfcfc
#000000 #000000 0 1;
#X obj 280 249 tgl 47 0 start_btn_tgl empty start 15 22 0 10 #fcfcfc
#000000 #000000 0 1;
#X obj 441 249 tgl 47 0 js2_btn empty js2_btn 15 22 0 10 #fcfcfc #000000
#000000 0 1;
#X obj 365 249 tgl 47 0 js1_btn empty js1_btn 15 22 0 10 #fcfcfc #000000
#000000 0 1;
#N canvas 620 220 450 454 ps3_pgmchg 0;
#X obj 92 300 pgmout;
#X obj 143 159 v pgch;
#X obj 132 34 sel 1;
#X obj 59 32 sel 1;
#X obj 132 63 v pgch;
#X obj 59 61 v pgch;
#X obj 132 90 + 0.5;
#X obj 59 90 - 0.5;
#X floatatom 218 177 4 0 0 1 Channel #0-keys_MIDICH -, f 4;
#X obj 92 258 pack;
#X obj 59 -4 inlet;
#X obj 132 -3 inlet;
#X obj 218 205 + 16;
#X floatatom 217 231 5 0 0 0 - - -, f 5;
#X floatatom 11 152 5 0 0 0 - - -, f 5;
#X obj 26 25 bng 15 250 50 0 empty empty empty 17 7 0 10 #fcfcfc #000000
#000000;
#X obj 91 132 t a;
#X obj 92 214 mod 128;
#X floatatom 22 243 5 0 0 0 - - -, f 5;
#X connect 2 0 4 0;
#X connect 3 0 5 0;
#X connect 4 0 6 0;
#X connect 5 0 7 0;
#X connect 6 0 16 0;
#X connect 7 0 16 0;
#X connect 8 0 12 0;
#X connect 9 0 0 0;
#X connect 10 0 3 0;
#X connect 10 0 15 0;
#X connect 11 0 2 0;
#X connect 12 0 13 0;
#X connect 13 0 9 1;
#X connect 16 0 14 0;
#X connect 16 0 17 0;
#X connect 16 0 1 0;
#X connect 17 0 9 0;
#X connect 17 0 18 0;
#X restore 391 186 pd ps3_pgmchg;
#N canvas 574 160 638 676 btn_sel_fx 0;
#X obj 39 3 inlet;
#X floatatom 174 195 5 0 0 2 keyOctave #0-keyOctave -, f 5;
#X obj 174 328 v octv;
#X obj 93 150 v octv;
#X obj 39 150 v octv;
#X floatatom 39 334 5 0 0 3 keyOctave - from_sel_btn, f 5;
#X obj 348 59 bng 15 250 50 0 \$0-midipanic empty PANIC 17 7 0 10 #fcfcfc
#000000 #009c0d;
#X obj 39 111 sel 1;
#X obj 93 111 sel 1;
#X obj 39 32 route btn_4 btn_5 btn_7;
#X obj 193 66 sel 1;
#X floatatom 39 218 5 0 0 0 - - -, f 5;
#X obj 39 248 mod 10;
#X obj 39 305 + 1;
#X obj 39 179 - 1;
#X obj 93 178 + 1;
#X obj 39 61 change;
#X obj 93 65 change;
#X obj 174 223 - 1;
#X floatatom 288 212 5 0 0 3 keyOctave - keyOctave, f 5;
#X connect 0 0 9 0;
#X connect 1 0 18 0;
#X connect 1 0 19 0;
#X connect 3 0 15 0;
#X connect 4 0 14 0;
#X connect 7 0 4 0;
#X connect 8 0 3 0;
#X connect 9 0 16 0;
#X connect 9 1 17 0;
#X connect 9 2 10 0;
#X connect 10 0 6 0;
#X connect 11 0 12 0;
#X connect 12 0 13 0;
#X connect 12 0 2 0;
#X connect 13 0 5 0;
#X connect 14 0 11 0;
#X connect 15 0 11 0;
#X connect 16 0 7 0;
#X connect 17 0 8 0;
#X connect 18 0 2 0;
#X restore 89 255 pd btn_sel_fx;
#N canvas 281 336 789 370 ps3bt2key 0;
#X msg 14 156 \$1 60;
#X msg 62 156 \$1 61;
#X msg 110 156 \$1 62;
#X msg 157 156 \$1 63;
#X msg 206 156 \$1 66;
#X msg 254 156 \$1 67;
#X msg 302 156 \$1 68;
#X msg 351 156 \$1 69;
#X obj 14 7 inlet;
#X msg 399 156 \$1 64;
#X msg 447 156 \$1 65;
#X msg 495 156 \$1 70;
#X msg 543 156 \$1 71;
#X obj 618 185 * 12;
#X obj 324 244 +;
#X obj 294 244 +;
#X obj 618 162 - 6;
#X obj 294 275 s \$0-noteon;
#X obj 379 275 s \$0-noteoff-CHG;
#X floatatom 618 8 5 0 0 0 keyOctave #0-keyOctave -, f 5;
#X obj 14 176 route 1 0;
#X obj 14 76 change;
#X obj 14 36 route btn_5 btn_4 btn_7 btn_6 btn_2 btn_3 btn_0 btn_1
btn_15 btn_13 btn_14 btn_12, f 83;
#X obj 63 76 change;
#X obj 111 76 change;
#X obj 160 76 change;
#X obj 217 76 change;
#X obj 266 76 change;
#X obj 314 76 change;
#X obj 363 76 change;
#X obj 420 76 change;
#X obj 469 76 change;
#X obj 517 76 change;
#X obj 566 76 change;
#X connect 0 0 20 0;
#X connect 1 0 20 0;
#X connect 2 0 20 0;
#X connect 3 0 20 0;
#X connect 4 0 20 0;
#X connect 5 0 20 0;
#X connect 6 0 20 0;
#X connect 7 0 20 0;
#X connect 8 0 22 0;
#X connect 9 0 20 0;
#X connect 10 0 20 0;
#X connect 11 0 20 0;
#X connect 12 0 20 0;
#X connect 13 0 14 1;
#X connect 13 0 15 1;
#X connect 14 0 18 0;
#X connect 15 0 17 0;
#X connect 16 0 13 0;
#X connect 19 0 16 0;
#X connect 20 0 15 0;
#X connect 20 1 14 0;
#X connect 21 0 0 0;
#X connect 22 0 21 0;
#X connect 22 1 23 0;
#X connect 22 2 24 0;
#X connect 22 3 25 0;
#X connect 22 4 26 0;
#X connect 22 5 27 0;
#X connect 22 6 28 0;
#X connect 22 7 29 0;
#X connect 22 8 30 0;
#X connect 22 9 31 0;
#X connect 22 10 32 0;
#X connect 22 11 33 0;
#X connect 23 0 1 0;
#X connect 24 0 2 0;
#X connect 25 0 3 0;
#X connect 26 0 4 0;
#X connect 27 0 5 0;
#X connect 28 0 6 0;
#X connect 29 0 7 0;
#X connect 30 0 9 0;
#X connect 31 0 10 0;
#X connect 32 0 11 0;
#X connect 33 0 12 0;
#X restore 24 311 pd ps3bt2key;
#X obj 218 223 route btn_8 btn_9 btn_10 btn_11 abs_x abs_y abs_z abs_rz
, f 67;
#X obj 24 128 list prepend;
#X obj 166 50 tgl 46 0 empty \$0-chan_octv_tgl chan_octv -2 7 0 10
#fcfcfc #000000 #104800 0 1;
#N canvas 93 305 789 295 ps3-midich 0;
#X obj 14 7 inlet;
#X floatatom 209 387 4 0 0 3 MIDICH - #0-keys_MIDICH, f 4;
#X obj 14 419 s udpOUT2;
#X msg 14 396 0 keys chanoctv;
#X obj 134 406 tgl 30 0 \$0-chan_octv_OFF empty chanoctv_OFF -18 35
0 10 #fcfcfc #000000 #1d7a02 0 1;
#X msg 134 385 0;
#X obj 302 427 s udpOUT2;
#X obj 302 376 tosym;
#X msg 302 404 \$1 keys chanGUI;
#X obj 14 66 spigot;
#X obj 53 44 tgl 15 0 empty empty empty 17 7 0 10 #fcfcfc #000000 #000000
0 1;
#X obj 191 6 route btn_9;
#X obj 191 31 sel 0;
#X msg 192 58 1;
#X obj 14 125 route btn_0 btn_1 btn_2 btn_3 btn_4 btn_5 btn_6 btn_7
btn_8 btn_9 btn_10 btn_11 btn_12 btn_13 btn_14 btn_15, f 107;
#X msg 14 166 \$1 1;
#X msg 62 166 \$1 2;
#X msg 110 166 \$1 3;
#X msg 157 166 \$1 4;
#X msg 206 166 \$1 5;
#X msg 254 166 \$1 6;
#X msg 302 166 \$1 7;
#X msg 351 166 \$1 8;
#X msg 399 166 \$1 9;
#X msg 447 166 \$1 10;
#X msg 495 166 \$1 11;
#X msg 543 166 \$1 12;
#X msg 587 166 \$1 13;
#X msg 635 166 \$1 14;
#X msg 693 166 \$1 15;
#X msg 751 166 \$1 16;
#X obj 14 211 route 0 1;
#X obj 240 42 bng 15 250 50 0 empty empty empty 17 7 0 10 #fcfcfc #000000
#000000;
#X obj 14 240 pipe 75;
#X obj 14 274 t f b;
#X obj 191 87 pipe 50;
#X connect 0 0 9 0;
#X connect 0 0 11 0;
#X connect 3 0 2 0;
#X connect 5 0 4 0;
#X connect 5 0 10 0;
#X connect 7 0 8 0;
#X connect 8 0 6 0;
#X connect 9 0 14 0;
#X connect 10 0 9 1;
#X connect 11 0 12 0;
#X connect 12 0 13 0;
#X connect 12 0 32 0;
#X connect 13 0 35 0;
#X connect 14 0 15 0;
#X connect 14 1 16 0;
#X connect 14 2 17 0;
#X connect 14 3 18 0;
#X connect 14 4 19 0;
#X connect 14 5 20 0;
#X connect 14 6 21 0;
#X connect 14 7 22 0;
#X connect 14 8 23 0;
#X connect 14 9 24 0;
#X connect 14 10 25 0;
#X connect 14 11 26 0;
#X connect 14 12 27 0;
#X connect 14 13 28 0;
#X connect 14 14 29 0;
#X connect 14 15 30 0;
#X connect 15 0 31 0;
#X connect 16 0 31 0;
#X connect 17 0 31 0;
#X connect 18 0 31 0;
#X connect 19 0 31 0;
#X connect 20 0 31 0;
#X connect 21 0 31 0;
#X connect 22 0 31 0;
#X connect 23 0 31 0;
#X connect 24 0 31 0;
#X connect 25 0 31 0;
#X connect 26 0 31 0;
#X connect 27 0 31 0;
#X connect 28 0 31 0;
#X connect 29 0 31 0;
#X connect 30 0 31 0;
#X connect 31 0 33 0;
#X connect 33 0 34 0;
#X connect 34 0 1 0;
#X connect 34 0 7 0;
#X connect 34 1 3 0;
#X connect 34 1 5 0;
#X connect 35 0 10 0;
#X restore 53 285 pd ps3-midich;
#X floatatom 105 100 5 0 0 0 - - -, f 5;
#X obj 24 157 route 0 1 2, f 27;
#X obj 231 136 route btn_8 btn_9, f 18;
#N canvas 642 44 638 651 \$0-start-sel-tgl 0;
#X obj 163 47 >= 240;
#X obj 163 76 tgl 15 0 empty empty empty 17 7 0 10 #fcfcfc #000000
#000000 0 1;
#X obj 126 122 &&;
#X floatatom 163 19 5 0 0 2 js_y js_y -, f 5;
#X obj 126 153 sel 1;
#X obj 320 63 tgl 15 0 empty start_btn_tgl start 19 5 0 10 #fcfcfc
#000000 #4ea421 0 1;
#X obj 310 48 tgl 15 0 empty select_btn_tgl select\ tgl 17 7 0 10 #fcfcfc
#000000 #3b7503 0 1;
#X obj 122 97 tgl 15 0 empty start_btn_tgl start 19 5 0 10 #fcfcfc
#000000 #4ea421 0 1;
#X msg 126 201 1;
#X obj 126 234 s \$0-chan_octv_tgl;
#X obj 310 94 * 2;
#X obj 310 155 spigot;
#X obj 349 94 * -1;
#X obj 349 139 tgl 15 0 empty empty empty 17 7 0 10 #fcfcfc #000000
#000000 0 1;
#X obj 349 116 + 1;
#X obj 310 214 tgl 41 0 \$0-start-sel_tgl empty start-sel_2 17 7 0
10 #fcfcfc #000000 #000000 0 2;
#X connect 0 0 1 0;
#X connect 1 0 2 1;
#X connect 1 0 12 0;
#X connect 2 0 4 0;
#X connect 3 0 0 0;
#X connect 4 0 8 0;
#X connect 5 0 10 0;
#X connect 6 0 10 0;
#X connect 7 0 2 0;
#X connect 8 0 9 0;
#X connect 10 0 11 0;
#X connect 11 0 15 0;
#X connect 12 0 14 0;
#X connect 13 0 11 1;
#X connect 14 0 13 0;
#X restore 124 11 pd \$0-start-sel-tgl;
#X obj 105 50 tgl 41 0 empty \$0-start-sel_tgl start-sel_2 -27 7 0
10 #fcfcfc #000000 #000000 0 2;
#X connect 0 0 13 0;
#X connect 12 0 5 0;
#X connect 12 1 6 0;
#X connect 12 2 8 0;
#X connect 12 2 9 0;
#X connect 12 3 7 0;
#X connect 12 3 9 1;
#X connect 12 4 1 0;
#X connect 12 5 2 0;
#X connect 12 6 3 0;
#X connect 12 7 4 0;
#X connect 13 0 17 0;
#X connect 14 0 16 0;
#X connect 16 0 13 1;
#X connect 17 0 11 0;
#X connect 17 0 12 0;
#X connect 17 1 15 0;
#X connect 17 2 18 0;
#X connect 17 2 10 0;
#X connect 18 0 5 0;
#X connect 18 1 6 0;
#X connect 20 0 16 0;
#X restore 522 33 pd \$0-ps3nkeys+modpb;
#N canvas 765 392 174 356 \$0-panicc 0;
#X floatatom 59 184 3 0 0 0 - - -, f 3;
#X msg 59 127 16, f 2;
#X obj 34 154 ct1u;
#X obj 34 103 t b b;
#X obj 34 33 bng 15 250 50 0 empty \$0-midipanic PANIC 17 7 0 10 #fcfcfc
#000000 #009c0d;
#X msg 34 274 64 123 \$1;
#X obj 66 241 + 16;
#X obj 34 300 ctlout;
#X obj 34 213 t f f;
#X connect 1 0 2 1;
#X connect 2 0 8 0;
#X connect 2 1 0 0;
#X connect 3 0 2 0;
#X connect 3 1 1 0;
#X connect 4 0 3 0;
#X connect 5 0 7 0;
#X connect 6 0 5 0;
#X connect 8 0 5 0;
#X connect 8 1 6 0;
#X restore 387 86 pd \$0-panicc;
#N canvas 536 127 296 445 \$0-note_out 0;
#X obj 22 5 pack f f f;
#X floatatom 55 -14 3 0 0 2 vON #0-midi_velocity -, f 3;
#X floatatom 89 -14 3 0 0 2 chON #0-midi_noteON -, f 3;
#X floatatom 207 -14 3 0 0 2 chOFF #0-midi_noteOFF -, f 3;
#X obj 140 5 pack f f f;
#X floatatom 173 -14 3 0 0 2 vOFF #0-midi_velocityOFF -, f 3;
#X obj 140 -60 r \$0-noteoff-CHG;
#X obj 22 -60 r \$0-noteon;
#X obj 20 66 list prepend;
#X floatatom 103 40 4 0 0 1 MOUT_MODE #0-mout_mode -, f 4;
#X obj 20 109 route 1 2 3 4;
#X msg 132 137 \$3 \$1 \$2 \$3;
#X obj 132 163 route 128 144;
#X obj 132 193 list split 1;
#X msg 132 237 \$2 \$1 \$3;
#X obj 132 266 outlet;
#X msg 20 237 \$2 \$1 \$3;
#X obj 20 266 outlet;
#X connect 0 0 8 0;
#X connect 1 0 0 1;
#X connect 2 0 0 2;
#X connect 3 0 4 2;
#X connect 4 0 8 0;
#X connect 5 0 4 1;
#X connect 6 0 4 0;
#X connect 7 0 0 0;
#X connect 8 0 10 0;
#X connect 9 0 8 1;
#X connect 10 0 11 0;
#X connect 10 0 16 0;
#X connect 10 1 14 0;
#X connect 10 1 16 0;
#X connect 10 2 16 0;
#X connect 10 3 14 0;
#X connect 11 0 12 0;
#X connect 12 2 13 0;
#X connect 13 1 14 0;
#X connect 14 0 15 0;
#X connect 16 0 17 0;
#X restore 129 162 pd \$0-note_out;
#X obj 278 195 r \$0-toMidiOut2;
#X obj 779 99 ctlin;
#X floatatom 772 138 5 0 0 0 - - -, f 5;
#X connect 1 0 2 0;
#X connect 1 0 5 0;
#X connect 1 1 3 0;
#X connect 1 1 5 0;
#X connect 1 2 4 0;
#X connect 1 2 5 0;
#X connect 6 0 1 0;
#X connect 7 0 16 0;
#X connect 7 1 8 0;
#X connect 8 0 18 0;
#X connect 9 0 7 0;
#X connect 10 0 11 0;
#X connect 10 0 14 0;
#X connect 10 1 12 0;
#X connect 10 1 14 0;
#X connect 10 2 13 0;
#X connect 10 2 14 0;
#X connect 17 0 16 1;
#X connect 19 0 16 2;
#X connect 20 0 18 2;
#X connect 21 0 19 0;
#X connect 21 0 20 0;
#X connect 22 0 18 1;
#X connect 30 0 8 1;
#X connect 31 0 32 0;
#X connect 31 0 36 0;
#X connect 31 1 33 0;
#X connect 31 1 36 0;
#X connect 31 2 34 0;
#X connect 31 2 36 0;
#X connect 35 0 31 0;
#X connect 37 0 35 0;
#X connect 41 0 1 0;
#X connect 41 1 10 0;
#X connect 42 0 10 0;
#X connect 43 1 44 0;
#X coords 0 -1 1 1 199 110 1 16 11;
