#N canvas 107 232 950 415 12;
#X symbolatom 152 85 14 0 0 1 addr_1 phone_ip_address -, f 14;
#X floatatom 209 51 5 0 0 1 port-out netport-out dduumm, f 5;
#X floatatom 97 210 5 0 0 1 port-in - netport-in, f 5;
#X floatatom 97 233 5 0 0 1 port-out - netport-out, f 5;
#X msg 37 210 54322;
#X msg 37 233 54321;
#X obj 37 185 bng 20 250 50 0 empty \$0-lbnglbng LB 4 8 0 10 #fcfcfc
#000000 #2c2c2c;
#X obj 32 378 netreceive -u -b;
#X msg 32 352 listen \$1;
#X floatatom 32 285 5 0 0 1 port-in netport-in -, f 5;
#X floatatom 143 285 5 0 0 1 port-out netport-out -, f 5;
#X obj 55 307 bng 17 250 50 0 empty CONNECTNET CONNECT 17 5 0 10 #fcfcfc
#000000 #00e419;
#N canvas 642 44 638 676 oscparse_tOSC 0;
#X obj 25 61 list trim;
#X obj 25 36 oscparse;
#X obj 106 160 list length;
#X obj 25 160 t a a;
#X obj 25 184 list prepend;
#X obj 25 231 list trim;
#X obj 25 207 list split 2;
#X obj 315 93 spigot;
#X obj 315 121 print osc_in;
#X obj 353 64 tgl 25 0 empty tgl-print-1 print1 27 10 0 10 #fcfcfc
#000000 #00d211 0 1;
#X obj 25 8 inlet;
#X obj 25 260 outlet;
#X obj 211 18 route accxyz;
#N canvas 1242 44 638 651 accccc 0;
#X obj 54 510 cnv 15 525 72 empty empty empty 20 12 0 14 #e0e0e0 #404040
0;
#X floatatom 405 349 5 0 0 0 - - -, f 5;
#X floatatom 476 368 5 0 0 0 - - -, f 5;
#X floatatom 546 353 5 0 0 0 - - -, f 5;
#X obj 405 377 bng 15 250 50 0 empty empty empty 17 7 0 10 #fcfcfc
#000000 #000000;
#X obj 477 540 bng 15 250 50 0 accxhit empty accxhit 17 7 0 10 #fcfcfc
#000000 #000000;
#X obj 476 396 bng 15 250 50 0 empty empty empty 17 7 0 10 #fcfcfc
#000000 #000000;
#X msg 476 420 0;
#X obj 546 381 bng 15 250 50 0 empty empty empty 17 7 0 10 #fcfcfc
#000000 #000000;
#X msg 546 405 1;
#X floatatom 476 449 5 0 0 0 - - -, f 5;
#X obj 476 477 change;
#X obj 498 326 moses 9;
#X obj 476 506 sel 1 2;
#X msg 405 401 2;
#X obj 397 531 bng 15 250 50 0 accxhit2 empty accxhit22 17 7 0 10 #fcfcfc
#000000 #000000;
#X obj 405 321 moses -9.5;
#X floatatom 210 338 5 0 0 0 - - -, f 5;
#X floatatom 281 357 5 0 0 0 - - -, f 5;
#X floatatom 351 342 5 0 0 0 - - -, f 5;
#X obj 210 366 bng 15 250 50 0 empty empty empty 17 7 0 10 #fcfcfc
#000000 #000000;
#X obj 282 529 bng 15 250 50 0 accxhit empty accxhit 17 7 0 10 #fcfcfc
#000000 #000000;
#X obj 281 385 bng 15 250 50 0 empty empty empty 17 7 0 10 #fcfcfc
#000000 #000000;
#X msg 281 409 0;
#X obj 351 370 bng 15 250 50 0 empty empty empty 17 7 0 10 #fcfcfc
#000000 #000000;
#X msg 351 394 1;
#X floatatom 281 438 5 0 0 0 - - -, f 5;
#X obj 281 466 change;
#X obj 303 315 moses 9;
#X obj 281 495 sel 1 2;
#X msg 210 390 2;
#X obj 202 520 bng 15 250 50 0 accxhit2 empty accxhit22 17 7 0 10 #fcfcfc
#000000 #000000;
#X obj 210 310 moses -9.5;
#X obj 106 51 unpack f f f;
#X floatatom 106 80 4 0 0 3 accx - accx, f 4;
#X floatatom 143 82 4 0 0 3 accy - accy, f 4;
#X floatatom 180 82 4 0 0 3 accz - accz, f 4;
#X obj 131 273 hsl 128 15 -10 10 0 0 empty empty empty -2 -8 0 10 #fcfcfc
#000000 #000000 0 1;
#X obj 146 132 vsl 15 128 -10 10 0 0 empty empty empty 0 -9 0 10 #fcfcfc
#000000 #000000 0 1;
#X obj 169 132 vsl 15 128 -10 10 0 0 empty empty empty 0 -9 0 10 #fcfcfc
#000000 #000000 0 1;
#X obj 89 20 inlet;
#X floatatom 52 325 5 0 0 0 - - -, f 5;
#X obj 139 383 bng 15 250 50 0 empty empty empty 17 7 0 10 #fcfcfc
#000000 #000000;
#X msg 139 407 1;
#X obj 99 396 bng 15 250 50 0 empty empty empty 17 7 0 10 #fcfcfc #000000
#000000;
#X msg 99 420 0;
#X obj 100 552 bng 15 250 50 0 accyhit empty accyhit 17 7 0 10 #fcfcfc
#000000 #000000;
#X floatatom 99 461 5 0 0 0 - - -, f 5;
#X obj 99 489 change;
#X obj 99 518 sel 1;
#X obj 52 296 moses -7.5;
#X obj 99 328 moses 7.5;
#X floatatom 254 142 5 0 0 0 - - -, f 5;
#X obj 254 113 < 0;
#X obj 254 170 sel 1;
#X obj 254 199 bng 15 250 50 0 accxhit empty accxhit 17 7 0 10 #fcfcfc
#000000 #000000;
#X connect 1 0 4 0;
#X connect 2 0 6 0;
#X connect 3 0 8 0;
#X connect 4 0 14 0;
#X connect 6 0 7 0;
#X connect 7 0 10 0;
#X connect 8 0 9 0;
#X connect 9 0 10 0;
#X connect 10 0 11 0;
#X connect 11 0 13 0;
#X connect 12 0 2 0;
#X connect 12 1 3 0;
#X connect 13 0 5 0;
#X connect 13 1 15 0;
#X connect 14 0 10 0;
#X connect 16 0 1 0;
#X connect 16 1 12 0;
#X connect 17 0 20 0;
#X connect 18 0 22 0;
#X connect 19 0 24 0;
#X connect 20 0 30 0;
#X connect 22 0 23 0;
#X connect 23 0 26 0;
#X connect 24 0 25 0;
#X connect 25 0 26 0;
#X connect 26 0 27 0;
#X connect 27 0 29 0;
#X connect 28 0 18 0;
#X connect 28 1 19 0;
#X connect 29 0 21 0;
#X connect 29 1 31 0;
#X connect 30 0 26 0;
#X connect 32 0 17 0;
#X connect 32 1 28 0;
#X connect 33 0 34 0;
#X connect 33 0 37 0;
#X connect 33 1 35 0;
#X connect 33 1 38 0;
#X connect 33 2 36 0;
#X connect 33 2 39 0;
#X connect 38 0 50 0;
#X connect 40 0 33 0;
#X connect 42 0 43 0;
#X connect 43 0 47 0;
#X connect 44 0 45 0;
#X connect 45 0 47 0;
#X connect 47 0 48 0;
#X connect 48 0 49 0;
#X connect 49 0 46 0;
#X connect 50 0 41 0;
#X connect 50 1 51 0;
#X connect 51 0 44 0;
#X connect 51 1 42 0;
#X connect 52 0 54 0;
#X connect 53 0 52 0;
#X connect 54 0 55 0;
#X restore 212 55 pd accccc;
#X connect 0 0 3 0;
#X connect 0 0 12 0;
#X connect 1 0 0 0;
#X connect 2 0 4 1;
#X connect 3 0 4 0;
#X connect 3 1 2 0;
#X connect 4 0 6 0;
#X connect 5 0 11 0;
#X connect 6 1 5 0;
#X connect 7 0 8 0;
#X connect 9 0 7 1;
#X connect 10 0 1 0;
#X connect 12 0 13 0;
#X connect 12 1 7 0;
#X restore 32 401 pd oscparse_tOSC;
#X obj 56 327 v porti;
#X obj 143 327 v porto;
#X obj 32 424 s parsedOSC;
#X symbolatom 31 601 15 0 0 3 phone_addr phone_ip_address -, f 15
;
#X floatatom 142 601 5 0 0 3 port-out netport-out -, f 5;
#X obj 27 571 netsend -u -b;
#N canvas 435 158 660 455 oscformat-TOUCH 0;
#X obj 18 69 list split 1;
#X obj 18 162 oscformat;
#X obj 58 104 list prepend set;
#X obj 58 131 list trim;
#X obj 18 278 outlet;
#X obj 18 9 r udpOUT2;
#X obj 18 240 list trim;
#X obj 18 217 list prepend send;
#X obj 210 72 list split 2;
#X obj 210 40 r udpOUT2-2;
#X obj 237 100 list prepend set;
#X obj 237 127 list trim;
#X obj 210 156 oscformat;
#X obj 208 246 list trim;
#X obj 208 223 list prepend send;
#X connect 0 0 1 0;
#X connect 0 1 2 0;
#X connect 1 0 7 0;
#X connect 2 0 3 0;
#X connect 3 0 1 0;
#X connect 5 0 0 0;
#X connect 6 0 4 0;
#X connect 7 0 6 0;
#X connect 8 0 12 0;
#X connect 8 1 10 0;
#X connect 9 0 8 0;
#X connect 10 0 11 0;
#X connect 11 0 12 0;
#X connect 12 0 14 0;
#X connect 13 0 4 0;
#X connect 14 0 13 0;
#X restore 27 486 pd oscformat-TOUCH;
#N canvas 408 135 638 676 netoutt 0;
#X msg 170 262 disconnect;
#X msg 26 259 connect \$2 \$1;
#X obj 26 234 pack f s;
#X obj 26 318 outlet;
#X obj 26 5 inlet;
#X obj 169 6 inlet;
#X obj 26 90 symbol;
#X obj 26 176 v porto;
#X floatatom 26 202 5 0 0 0 - - -, f 5;
#X symbolatom 44 53 12 0 0 2 tOSC_IP_address phone_ip_address -, f
12;
#X obj 26 141 t b s b;
#X connect 0 0 3 0;
#X connect 1 0 3 0;
#X connect 2 0 1 0;
#X connect 4 0 6 0;
#X connect 5 0 0 0;
#X connect 6 0 10 0;
#X connect 7 0 8 0;
#X connect 8 0 2 0;
#X connect 9 0 6 0;
#X connect 10 0 7 0;
#X connect 10 1 2 1;
#X connect 10 2 0 0;
#X restore 47 543 pd netoutt;
#X obj 47 526 bng 15 250 50 0 empty CONNECTNET CONNECT -5 -7 0 10 #fcfcfc
#000000 #00e419;
#X obj 114 526 bng 15 250 50 0 empty DISCONNECTNET DISCONNECT -5 -7
0 10 #fcfcfc #000000 #00e419;
#X obj 251 574 netsend -u -b;
#N canvas 642 44 638 776 netoutt 0;
#X msg 170 262 disconnect;
#X msg 26 259 connect \$2 \$1;
#X obj 26 234 pack f s;
#X obj 26 318 outlet;
#X obj 26 5 inlet;
#X obj 169 6 inlet;
#X obj 26 90 symbol;
#X obj 26 176 v porto;
#X floatatom 26 202 5 0 0 0 - - -, f 5;
#X symbolatom 44 53 12 0 0 2 tOSC_IP_address2 phone_ip_address2 -,
f 12;
#X obj 26 141 t b s b;
#X connect 0 0 3 0;
#X connect 1 0 3 0;
#X connect 2 0 1 0;
#X connect 4 0 6 0;
#X connect 5 0 0 0;
#X connect 6 0 10 0;
#X connect 7 0 8 0;
#X connect 8 0 2 0;
#X connect 9 0 6 0;
#X connect 10 0 7 0;
#X connect 10 1 2 1;
#X connect 10 2 0 0;
#X restore 271 546 pd netoutt;
#X obj 271 529 bng 15 250 50 0 empty CONNECTNET2 CONNECT2 -5 -7 0 10
#fcfcfc #000000 #00e419;
#X obj 338 529 bng 15 250 50 0 empty DISCONNECTNET2 DISCONNECT2 -5
-7 0 10 #fcfcfc #000000 #00e419;
#X symbolatom 258 601 12 0 0 3 tOSC_IP_address2 phone_ip_address2 -
, f 12;
#X symbolatom 407 240 15 0 0 0 addr1 - phone_ip_address, f 15;
#X obj 407 194 t b s;
#X obj 407 217 bng 15 250 50 0 CONNECTNET empty CONNECT -48 6 0 10
#fcfcfc #000000 #00e419;
#X symbolatom 622 245 15 0 0 0 addr2 - phone_ip_address2, f 15;
#X obj 622 201 t b s;
#X obj 622 224 bng 15 250 50 0 CONNECTNET2 empty CONNECT2 -54 5 0 10
#fcfcfc #000000 #00e419;
#X obj 407 104 r dev_ipaddr;
#X obj 622 104 r dev2_ipaddr;
#X symbolatom 152 108 14 0 0 1 addr_2 phone_ip_address2 -, f 14;
#N canvas 49 86 483 257 \$0-init 0;
#X obj 108 17 loadbang;
#X obj 248 41 bng 30 250 50 0 \$0-lbnglbng empty LB 5 12 0 16 #fcfcfc
#000000 #2c2c2c;
#X obj 15 86 tgl 25 0 tgl-print-1 empty print1 27 10 0 10 #fcfcfc #000000
#00d211 0 1;
#X floatatom 16 32 1 0 0 1 LB1 only-one -, f 1;
#X obj 16 60 del 1000;
#X obj 108 168 s dev_ipaddr;
#X obj 108 88 del 4000;
#X obj 226 168 s dev2_ipaddr;
#X msg 104 219 192.168.43.178;
#X msg 222 219 192.168.1.1;
#X msg 226 126 192.168.1.5;
#X msg 108 126 192.168.1.4;
#X connect 0 0 1 0;
#X connect 0 0 6 0;
#X connect 3 0 4 0;
#X connect 4 0 2 0;
#X connect 6 0 11 0;
#X connect 6 0 10 0;
#X connect 10 0 7 0;
#X connect 11 0 5 0;
#X restore 10 42 pd \$0-init;
#X obj 301 27 bng 46 250 50 0 empty \$0-ip_connect connect 4 21 0 10
#fcfcfc #000000 #000000;
#X obj 407 62 s dev_ipaddr;
#X obj 407 127 symbol, f 7;
#X symbolatom 410 147 17 0 0 0 - - -, f 17;
#X symbolatom 407 39 15 0 0 2 to-netOSC to-netOSC -, f 15;
#N canvas 70 353 450 350 \$0-osc 0;
#X obj 11 12 r parsedOSC;
#X obj 11 34 route refresh_connection;
#X obj 11 56 route z;
#X obj 11 78 sel 1;
#X obj 11 107 bng 46 250 50 0 \$0-ip_connect empty connect 4 21 0 10
#fcfcfc #000000 #000000;
#X connect 0 0 1 0;
#X connect 1 0 2 0;
#X connect 2 1 3 0;
#X connect 3 0 4 0;
#X restore 10 65 pd \$0-osc;
#N canvas 511 95 769 536 \$0-npad_33 0;
#X obj 209 461 s udpOUT2;
#X obj 11 -39 ctlin;
#X symbolatom 11 135 5 0 0 0 - - -, f 5;
#X obj 64 192 symbol;
#X symbolatom 103 212 15 0 0 0 - - -, f 15;
#X obj 11 232 pack s s;
#X symbolatom 11 418 20 0 0 3 pad# - #0-npad_nmb, f 20;
#X obj 11 163 t s b;
#X symbolatom 103 173 15 0 0 2 npad# #0-npad_nmb -, f 15;
#N canvas 17 118 680 506 \$0-npad_input 0;
#X obj 65 2 inlet;
#X obj 65 436 outlet;
#X msg 65 66 0, f 1;
#X msg 110 66 1, f 1;
#X msg 133 66 2, f 1;
#X msg 155 66 3, f 1;
#X msg 200 66 5, f 1;
#X msg 178 66 4, f 1;
#X msg 223 66 6, f 1;
#X msg 245 66 7, f 1;
#X msg 268 66 8, f 1;
#X msg 290 66 9, f 1;
#X symbolatom 65 158 10 0 0 0 - - -, f 10;
#X msg 88 66 ., f 1;
#X obj 110 87 t s;
#X obj 358 436 outlet;
#X obj 311 108 list tosymbol;
#X symbolatom 311 131 4 0 0 0 - - -, f 4;
#X obj 65 46 sel 25 57 28 22 23 24 41 42 44 52 53 54 27;
#X msg 311 66 32, f 2;
#X obj 469 436 outlet;
#X obj 415 66 bng 26 250 50 0 empty empty empty 17 7 0 10 #fcfcfc #000000
#000000;
#X floatatom 126 20 5 0 0 0 - - -, f 5;
#X obj 65 214 list prepend;
#X obj 65 116 tosym;
#X msg 98 194 31, f 2;
#X obj 65 87 t b f;
#X obj 311 155 t b s s;
#X msg 146 194 32, f 2;
#X floatatom 210 214 5 0 0 0 - - -, f 5;
#X obj 178 295 list fromsymbol;
#X obj 178 317 - 48;
#X floatatom 178 353 5 0 0 0 - - -, f 5;
#X obj 528 436 outlet;
#X msg 447 66 0, f 1;
#X obj 415 231 f;
#X msg 183 194 33, f 2;
#X obj 146 271 t b s;
#X obj 65 243 route 31 32 33;
#X obj 65 271 t s;
#X obj 96 271 t b s;
#X obj 442 351 f;
#X obj 415 260 sel 33 32 31;
#X obj 442 380 t b f;
#X msg 442 409 32, f 2;
#X obj 469 291 t b b;
#X connect 0 0 18 0;
#X connect 0 0 22 0;
#X connect 2 0 26 0;
#X connect 3 0 26 0;
#X connect 4 0 26 0;
#X connect 5 0 26 0;
#X connect 6 0 26 0;
#X connect 7 0 26 0;
#X connect 8 0 26 0;
#X connect 9 0 26 0;
#X connect 10 0 26 0;
#X connect 11 0 26 0;
#X connect 12 0 23 0;
#X connect 13 0 14 0;
#X connect 14 0 12 0;
#X connect 16 0 17 0;
#X connect 17 0 27 0;
#X connect 18 0 21 0;
#X connect 18 0 34 0;
#X connect 18 1 2 0;
#X connect 18 2 13 0;
#X connect 18 3 3 0;
#X connect 18 4 4 0;
#X connect 18 5 5 0;
#X connect 18 6 7 0;
#X connect 18 7 6 0;
#X connect 18 8 8 0;
#X connect 18 9 9 0;
#X connect 18 10 10 0;
#X connect 18 11 11 0;
#X connect 18 12 19 0;
#X connect 19 0 16 0;
#X connect 21 0 35 0;
#X connect 23 0 38 0;
#X connect 24 0 12 0;
#X connect 25 0 23 1;
#X connect 25 0 29 0;
#X connect 26 1 24 0;
#X connect 27 0 36 0;
#X connect 27 1 12 0;
#X connect 27 2 15 0;
#X connect 28 0 23 1;
#X connect 28 0 29 0;
#X connect 29 0 35 1;
#X connect 30 0 31 0;
#X connect 31 0 32 0;
#X connect 31 0 41 1;
#X connect 35 0 42 0;
#X connect 36 0 29 0;
#X connect 36 0 23 1;
#X connect 37 0 28 0;
#X connect 37 1 30 0;
#X connect 37 1 15 0;
#X connect 38 0 39 0;
#X connect 38 1 40 0;
#X connect 38 2 37 0;
#X connect 39 0 1 0;
#X connect 40 0 25 0;
#X connect 40 1 1 0;
#X connect 41 0 43 0;
#X connect 42 0 45 0;
#X connect 42 1 41 0;
#X connect 42 2 45 0;
#X connect 43 0 44 0;
#X connect 43 1 33 0;
#X connect 44 0 16 0;
#X connect 45 1 20 0;
#X restore 11 60 pd \$0-npad_input;
#X msg 11 261 \$2\$1;
#X msg 209 438 \$1 menu ipaddr;
#X obj 259 104 symbol;
#X symbolatom 236 400 15 0 0 3 to-netOSC - to-netOSC, f 15;
#X symbolatom 298 82 17 0 0 2 npad# #0-npad_nmb -, f 17;
#X obj 11 390 t s;
#X obj 259 80 bng 15 250 50 0 empty empty empty 17 7 0 10 #fcfcfc #000000
#000000;
#X obj 11 36 route 17;
#X msg 11 11 \$2 \$1;
#X obj 11 -14 pack;
#X obj 418 459 s udpOUT2;
#X msg 418 436 \$1 menu ipaddr2;
#X symbolatom 307 124 15 0 0 0 - - -, f 15;
#X obj 259 290 route 1 2, f 12;
#X symbolatom 438 389 15 0 0 3 to-netOSC2 - to-netOSC2, f 15;
#X floatatom 340 174 5 0 0 0 - - -, f 5;
#X obj 259 200 list prepend;
#X obj 259 313 t s;
#X obj 299 313 t s;
#X obj 11 330 symbol;
#X symbolatom 42 304 10 0 0 0 - - -, f 10;
#X connect 1 1 19 0;
#X connect 1 2 19 1;
#X connect 2 0 7 0;
#X connect 3 0 4 0;
#X connect 3 0 5 1;
#X connect 5 0 10 0;
#X connect 7 0 5 0;
#X connect 7 1 3 0;
#X connect 8 0 3 1;
#X connect 9 0 2 0;
#X connect 9 1 30 0;
#X connect 9 2 16 0;
#X connect 9 3 25 0;
#X connect 10 0 29 0;
#X connect 11 0 0 0;
#X connect 12 0 22 0;
#X connect 12 0 26 0;
#X connect 14 0 12 1;
#X connect 15 0 6 0;
#X connect 16 0 12 0;
#X connect 17 0 9 0;
#X connect 18 0 17 0;
#X connect 19 0 18 0;
#X connect 21 0 20 0;
#X connect 23 0 27 0;
#X connect 23 1 28 0;
#X connect 25 0 26 1;
#X connect 26 0 23 0;
#X connect 27 0 13 0;
#X connect 27 0 11 0;
#X connect 28 0 24 0;
#X connect 28 0 21 0;
#X connect 29 0 15 0;
#X connect 30 0 29 0;
#X restore 10 88 pd \$0-npad_33;
#X floatatom 209 28 5 0 0 1 port-in netport-in dduumm, f 5;
#X obj 301 82 bng 46 250 50 0 empty \$0-ip_connect2 2 23 21 0 10 #fcfcfc
#000000 #000000;
#X obj 622 130 symbol, f 7;
#X symbolatom 625 150 17 0 0 0 - - -, f 17;
#X symbolatom 622 39 15 0 0 2 to-netOSC2 to-netOSC2 -, f 15;
#X obj 622 62 s dev2_ipaddr;
#N canvas 354 209 450 333 \$0-autosave 0;
#X msg 27 170 menusave;
#X obj 27 105 tgl 15 0 empty empty empty 17 7 0 10 #fcfcfc #000000
#000000 1 1;
#X obj 27 130 metro 1000;
#X msg 114 84 5;
#X obj 114 107 * 60000;
#X floatatom 114 129 8 0 0 0 - - -, f 8;
#X obj 27 7 loadbang;
#X obj 27 76 t b b;
#X obj 27 36 del 5000;
#X obj 27 199 s pd-netOSC.pd;
#X connect 0 0 9 0;
#X connect 1 0 2 0;
#X connect 2 0 0 0;
#X connect 3 0 4 0;
#X connect 4 0 5 0;
#X connect 4 0 2 1;
#X connect 6 0 8 0;
#X connect 7 0 1 0;
#X connect 7 1 3 0;
#X connect 8 0 7 0;
#X restore 11 18 pd \$0-autosave;
#X msg 427 328 192.168.1.4;
#X msg 643 310 192.168.1.5;
#X connect 4 0 2 0;
#X connect 5 0 3 0;
#X connect 6 0 4 0;
#X connect 6 0 5 0;
#X connect 7 0 12 0;
#X connect 8 0 7 0;
#X connect 9 0 13 0;
#X connect 9 0 8 0;
#X connect 10 0 14 0;
#X connect 11 0 13 0;
#X connect 12 0 15 0;
#X connect 13 0 8 0;
#X connect 19 0 18 0;
#X connect 19 0 23 0;
#X connect 20 0 18 0;
#X connect 21 0 20 0;
#X connect 22 0 20 1;
#X connect 24 0 23 0;
#X connect 25 0 24 0;
#X connect 26 0 24 1;
#X connect 29 0 30 0;
#X connect 29 1 28 0;
#X connect 32 0 33 0;
#X connect 32 1 31 0;
#X connect 34 0 40 0;
#X connect 35 0 47 0;
#X connect 38 0 40 0;
#X connect 38 0 46 0;
#X connect 40 0 41 0;
#X connect 40 0 29 0;
#X connect 42 0 39 0;
#X connect 46 0 47 0;
#X connect 47 0 48 0;
#X connect 47 0 32 0;
#X connect 49 0 50 0;
#X connect 52 0 39 0;
#X connect 53 0 50 0;
#X coords 0 -1 1 1 204 106 1 148 25;
