#N canvas 572 331 450 300 12;
#X obj 80 32 inlet;
#X obj 80 91 change;
#X obj 174 167 t b;
#X obj 154 138 pipe 10;
#X obj 80 203 outlet;
#X msg 174 56 -11;
#X obj 80 137 sel -11;
#X obj 248 83 r no2_time;
#X obj 248 203 outlet;
#X connect 0 0 1 0;
#X connect 1 0 3 0;
#X connect 1 0 6 0;
#X connect 2 0 5 0;
#X connect 3 0 2 0;
#X connect 5 0 1 0;
#X connect 6 1 4 0;
#X connect 7 0 3 1;
#X connect 7 0 8 0;
