#N canvas 676 238 554 573 12;
#N canvas 162 133 570 420 serin 0;
#X obj 286 61 cnv 15 30 15 empty \$0-open-canvas 4 4 8 0 14 #e0e0e0
#000000 0;
#X obj 60 61 hradio 15 1 1 15 empty empty empty 0 -6 0 8 #d8fcd8 #000000
#000000 4;
#X obj 60 13 inlet;
#X msg 200 202 label \$1;
#X obj 200 180 makefilename %d;
#X obj 59 108 int;
#X obj 59 337 outlet;
#X msg 201 306 set \$1 \$2;
#X obj 59 266 trigger bang anything;
#X obj 201 286 list;
#X msg 60 210 open \$1;
#X obj 200 225 send \$0-open-canvas;
#X connect 1 0 5 0;
#X connect 2 0 1 0;
#X connect 3 0 11 0;
#X connect 4 0 3 0;
#X connect 5 0 4 0;
#X connect 5 0 10 0;
#X connect 7 0 6 0;
#X connect 8 0 6 0;
#X connect 8 1 9 0;
#X connect 9 0 7 0;
#X connect 10 0 8 0;
#X coords 0 -1 1 1 257 17 1 60 60;
#X restore 8 268 pd serin;
#X floatatom 8 143 5 0 0 1 ps3 ps3_event_No -, f 5;
#X obj 156 320 outlet;
#X obj 8 300 t b f;
#X obj 7 483 s, f 2;
#X obj 7 459 f, f 2;
#X obj 7 411 unpack s f;
#X obj 7 435 t b s;
#X obj 8 372 route key abs;
#X msg 68 324 open 4;
#X obj 8 348 hid;
#N canvas 754 99 411 260 see_device_info 0;
#X obj 81 96 tgl 15 0 empty empty open 0 -6 0 8 #fcfcfc #000000 #000000
1 1;
#X obj 110 22 inlet;
#X obj 272 44 print info;
#X symbolatom 304 93 0 0 0 0 productID - -;
#X symbolatom 304 112 0 0 0 0 vendorID - -;
#X symbolatom 304 151 0 0 0 0 transport - -;
#X symbolatom 304 171 0 0 0 0 manufacturer - -;
#X symbolatom 186 192 0 0 0 0 product - -;
#X floatatom 97 140 5 0 0 0 device - -, f 5;
#X floatatom 97 162 5 0 0 0 poll - -, f 5;
#X symbolatom 304 131 0 0 0 0 type - -;
#X floatatom 97 182 5 0 0 0 total - -, f 5;
#N canvas 110 314 543 289 route_info 0;
#X obj 27 14 inlet;
#X obj 72 226 outlet;
#X obj 19 226 outlet;
#X obj 172 226 outlet;
#X obj 222 204 symbol;
#X obj 222 226 outlet;
#X obj 272 204 symbol;
#X obj 272 226 outlet;
#X obj 322 204 symbol;
#X obj 322 226 outlet;
#X obj 372 204 symbol;
#X obj 372 226 outlet;
#X obj 122 225 outlet;
#X obj 422 204 symbol;
#X obj 422 226 outlet;
#X obj 472 204 symbol;
#X obj 472 226 outlet;
#X obj 26 63 route open device poll total product manufacturer transport
type vendorID productID;
#X connect 0 0 17 0;
#X connect 4 0 5 0;
#X connect 6 0 7 0;
#X connect 8 0 9 0;
#X connect 10 0 11 0;
#X connect 13 0 14 0;
#X connect 15 0 16 0;
#X connect 17 0 2 0;
#X connect 17 1 1 0;
#X connect 17 2 12 0;
#X connect 17 3 3 0;
#X connect 17 4 4 0;
#X connect 17 5 6 0;
#X connect 17 6 8 0;
#X connect 17 7 10 0;
#X connect 17 8 13 0;
#X connect 17 9 15 0;
#X restore 117 70 pd route_info;
#X connect 1 0 12 0;
#X connect 1 0 2 0;
#X connect 12 0 0 0;
#X connect 12 1 8 0;
#X connect 12 2 9 0;
#X connect 12 3 11 0;
#X connect 12 4 7 0;
#X connect 12 5 6 0;
#X connect 12 6 5 0;
#X connect 12 7 10 0;
#X connect 12 8 4 0;
#X connect 12 9 3 0;
#X restore 132 373 pd see_device_info;
#X obj 173 143 loadbang;
#X msg 173 166 /home/pi/purr_ps3;
#X obj 173 190 shell;
#X floatatom 173 214 5 0 0 1 ps3 - ps3_event_No, f 5;
#X floatatom 168 80 3 0 0 3 hx abs_hat0x -, f 3;
#X floatatom 193 80 3 0 0 3 hy abs_hat0y -, f 3;
#X obj 206 43 tgl 20 0 empty btn_10 b10 2 8 0 10 #fcfcfc #000000 #13c000
0 1;
#X obj 230 43 tgl 20 0 empty btn_11 b11 2 8 0 10 #fcfcfc #000000 #13c000
0 1;
#X obj 171 15 tgl 20 0 empty btn_6 b6 2 8 0 10 #fcfcfc #000000 #13c000
0 1;
#X obj 171 37 tgl 20 0 empty btn_4 b4 2 8 0 10 #fcfcfc #000000 #13c000
0 1;
#X obj 206 20 tgl 20 0 empty btn_8 b8 2 8 0 10 #fcfcfc #000000 #13c000
0 1;
#X obj 230 20 tgl 20 0 empty btn_9 b9 2 8 0 10 #fcfcfc #000000 #13c000
0 1;
#X obj 326 17 tgl 20 0 empty btn_7 b7 2 8 0 10 #fcfcfc #000000 #13c000
0 1;
#X obj 326 39 tgl 20 0 empty btn_5 b5 2 8 0 10 #fcfcfc #000000 #13c000
0 1;
#X obj 283 14 tgl 20 0 empty btn_0 b0 2 8 0 10 #fcfcfc #000000 #13c000
0 1;
#X obj 303 36 tgl 20 0 empty btn_1 b1 2 8 0 10 #fcfcfc #000000 #13c000
0 1;
#X obj 262 36 tgl 20 0 empty btn_3 b3 2 8 0 10 #fcfcfc #000000 #13c000
0 1;
#X obj 283 58 tgl 20 0 empty btn_2 b2 2 8 0 10 #fcfcfc #000000 #13c000
0 1;
#X floatatom 219 80 4 0 0 3 x abs_x -, f 4;
#X floatatom 251 80 4 0 0 3 y abs_y -, f 4;
#X floatatom 285 80 4 0 0 3 z abs_z -, f 4;
#X floatatom 317 80 4 0 0 3 rz abs_rz -, f 4;
#X obj 173 456 symbol;
#X symbolatom 173 485 10 0 0 0 - - #0-input, f 10;
#X symbolatom 54 35 9 0 0 0 input: #0-input -, f 9;
#X floatatom 106 486 5 0 0 0 - - #0-input_value, f 5;
#X floatatom 54 57 9 0 0 0 value: #0-input_value -, f 9;
#X obj 141 411 s ps3_events;
#N canvas 354 209 450 333 \$0-autosave 0;
#X msg 27 170 menusave;
#X obj 27 105 tgl 15 0 empty empty empty 17 7 0 10 #fcfcfc #000000
#000000 1 1;
#X obj 27 130 metro 1000;
#X msg 114 84 5;
#X obj 114 107 * 60000;
#X floatatom 114 129 8 0 0 0 - - -, f 8;
#X obj 27 7 loadbang;
#X obj 27 76 t b b;
#X obj 27 36 del 5000;
#X obj 27 199 s pd-ps3.pd;
#X connect 0 0 9 0;
#X connect 1 0 2 0;
#X connect 2 0 0 0;
#X connect 3 0 4 0;
#X connect 4 0 5 0;
#X connect 4 0 2 1;
#X connect 6 0 8 0;
#X connect 7 0 1 0;
#X connect 7 1 3 0;
#X connect 8 0 7 0;
#X restore 8 106 pd \$0-autosave;
#X msg 8 324 poll 20;
#X connect 0 0 3 0;
#X connect 1 0 0 0;
#X connect 3 0 41 0;
#X connect 3 1 9 0;
#X connect 3 1 2 0;
#X connect 5 0 4 0;
#X connect 5 0 37 0;
#X connect 6 0 7 0;
#X connect 6 1 5 1;
#X connect 7 0 5 0;
#X connect 7 1 4 1;
#X connect 7 1 34 0;
#X connect 8 0 6 0;
#X connect 8 0 39 0;
#X connect 8 1 6 0;
#X connect 8 1 39 0;
#X connect 9 0 10 0;
#X connect 10 0 8 0;
#X connect 10 1 11 0;
#X connect 12 0 13 0;
#X connect 13 0 14 0;
#X connect 14 0 15 0;
#X connect 34 0 35 0;
#X connect 41 0 10 0;
#X coords 0 -1 1 1 121 69 1 6 12;
