#N canvas 642 44 638 651 12;
#X obj 49 -53 inlet;
#X obj 49 518 outlet;
#X floatatom 94 -33 5 0 0 0 - - -, f 5;
#X obj 49 316 list tosymbol;
#X symbolatom 64 336 10 0 0 0 - - -, f 10;
#X obj 49 292 + 48;
#X obj 81 -2 >= 10;
#X floatatom 131 18 5 0 0 0 - - -, f 5;
#X obj 49 111 t f f;
#X obj 67 145 div 10;
#X obj 67 169 * 10;
#X obj 49 192 -;
#X obj 49 265 f;
#X obj 155 316 list tosymbol;
#X symbolatom 176 336 10 0 0 0 - - -, f 10;
#X obj 155 292 + 48;
#X obj 49 215 t b f;
#X obj 49 409 pack 0 s s;
#X obj 49 359 t b s;
#X msg 49 380 0, f 1;
#X msg 49 441 \$2\$3;
#X obj 49 469 t s;
#X symbolatom 109 489 10 0 0 0 - - -, f 10;
#X obj 49 -24 t f f;
#X obj 49 20 pack;
#X msg 49 49 \$2 \$1;
#X obj 49 75 route 1 0;
#X obj 255 317 list tosymbol;
#X symbolatom 276 337 10 0 0 0 - - -, f 10;
#X obj 255 292 + 48;
#X connect 0 0 2 0;
#X connect 0 0 23 0;
#X connect 3 0 4 0;
#X connect 3 0 18 0;
#X connect 5 0 3 0;
#X connect 6 0 7 0;
#X connect 6 0 24 1;
#X connect 8 0 11 0;
#X connect 8 1 9 0;
#X connect 9 0 10 0;
#X connect 9 0 12 1;
#X connect 10 0 11 1;
#X connect 11 0 16 0;
#X connect 12 0 5 0;
#X connect 13 0 14 0;
#X connect 13 0 17 2;
#X connect 15 0 13 0;
#X connect 16 0 12 0;
#X connect 16 1 15 0;
#X connect 17 0 20 0;
#X connect 18 0 19 0;
#X connect 18 1 17 1;
#X connect 19 0 17 0;
#X connect 20 0 21 0;
#X connect 21 0 22 0;
#X connect 21 0 1 0;
#X connect 23 0 24 0;
#X connect 23 1 6 0;
#X connect 24 0 25 0;
#X connect 25 0 26 0;
#X connect 26 0 8 0;
#X connect 26 1 29 0;
#X connect 27 0 28 0;
#X connect 27 0 21 0;
#X connect 29 0 27 0;
